<?xml version="1.0" encoding="UTF-8"?>
<svg version="1.1" xmlns="http://www.w3.org/2000/svg" width="543" height="132">
<path d="M0 0 C5.54999723 3.71715956 7.183888 7.4545227 8.54296875 13.91015625 C8.54296875 17.21015625 8.54296875 20.51015625 8.54296875 23.91015625 C16.46296875 23.91015625 24.38296875 23.91015625 32.54296875 23.91015625 C32.54296875 19.95015625 32.54296875 15.99015625 32.54296875 11.91015625 C34.54296875 7.16015625 34.54296875 7.16015625 36.54296875 3.91015625 C37.20296875 3.91015625 37.86296875 3.91015625 38.54296875 3.91015625 C38.54296875 3.25015625 38.54296875 2.59015625 38.54296875 1.91015625 C42.21590299 -0.84730292 44.95143102 -1.47526226 49.49145508 -1.52563477 C50.66650101 -1.54477432 51.84154694 -1.56391388 53.05220032 -1.58363342 C54.94448616 -1.58864113 54.94448616 -1.58864113 56.875 -1.59375 C58.18071457 -1.6037352 59.48642914 -1.6137204 60.83171082 -1.62400818 C63.59304236 -1.64193691 66.35409291 -1.64753279 69.11547852 -1.64575195 C72.63636772 -1.6454476 76.15543473 -1.68636159 79.67589283 -1.73806858 C83.05478594 -1.77966098 86.43335467 -1.77770022 89.8125 -1.78125 C91.0679512 -1.80280655 92.3234024 -1.8243631 93.61689758 -1.84657288 C100.25589405 -1.79484044 105.00970971 -1.40382909 110.04690552 3.18652344 C115.73906912 9.74453499 114.99599719 17.15422235 114.9765625 25.4375 C114.98180435 26.74038467 114.9870462 28.04326935 114.9924469 29.38563538 C115.00134751 32.13503757 114.99899022 34.88414883 114.98901367 37.63354492 C114.97752863 41.13831173 114.99774214 44.64207022 115.02693081 48.14670467 C115.04980213 51.51452123 115.04282144 54.88210787 115.0390625 58.25 C115.05029648 59.49917709 115.06153046 60.74835419 115.07310486 62.03538513 C115.01655803 69.13645822 114.42329063 73.89857169 110.54296875 79.91015625 C105.17576698 85.0155433 100.59321459 85.0528177 93.48168945 85.02368164 C92.55466217 85.02382767 91.62763489 85.02397369 90.67251587 85.02412415 C87.60457021 85.02342679 84.53668507 85.01564262 81.46875 85.0078125 C79.34311455 85.00594769 77.21747868 85.00452409 75.09184265 85.00352478 C69.49407772 84.99970454 63.89633868 84.98987844 58.29858398 84.9788208 C52.58773143 84.96859609 46.87687469 84.96402488 41.16601562 84.95898438 C29.95832195 84.94825576 18.7506475 84.93118522 7.54296875 84.91015625 C7.53266129 84.20049713 7.52235382 83.49083801 7.51173401 82.75967407 C7.41384687 76.07908592 7.31134504 69.3985865 7.20362949 62.71814919 C7.14841252 59.28348642 7.09499452 55.84881512 7.0456543 52.4140625 C6.98888168 48.46735736 6.92434477 44.52079783 6.859375 40.57421875 C6.84266251 39.3377359 6.82595001 38.10125305 6.80873108 36.82730103 C6.78878586 35.68626923 6.76884064 34.54523743 6.74829102 33.36962891 C6.72497459 31.85739243 6.72497459 31.85739243 6.70118713 30.31460571 C6.69810325 27.89749181 6.69810325 27.89749181 5.54296875 25.91015625 C3.23003568 25.36539954 3.23003568 25.36539954 0.48046875 25.03515625 C-6.18941199 23.90188209 -11.81380539 22.18420839 -16.45703125 17.03515625 C-19.9371641 11.73930192 -18.83456849 4.95914176 -18.45703125 -1.08984375 C-12.5072549 -2.91727506 -5.68426641 -2.52132008 0 0 Z M33.54296875 26.91015625 C31.90350912 30.1890755 32.42266697 33.81629159 32.4453125 37.41796875 C32.44672745 38.25858856 32.4481424 39.09920837 32.44960022 39.96530151 C32.45520638 42.655289 32.46775989 45.34519384 32.48046875 48.03515625 C32.48548296 49.85676963 32.490046 51.67838432 32.49414062 53.5 C32.50517781 57.97008402 32.52244655 62.44010611 32.54296875 66.91015625 C33.30609375 66.12640625 34.06921875 65.34265625 34.85546875 64.53515625 C38.37419291 61.09826289 40.34607713 59.66935558 45.19799805 59.59130859 C46.60912117 59.56150406 46.60912117 59.56150406 48.04875183 59.53109741 C49.0613356 59.5195462 50.07391937 59.507995 51.1171875 59.49609375 C52.15615677 59.4767276 53.19512604 59.45736145 54.26557922 59.43740845 C57.58712531 59.37758326 60.90870599 59.33121521 64.23046875 59.28515625 C66.48113499 59.2469792 68.73178657 59.20792764 70.98242188 59.16796875 C76.50252834 59.07023171 82.02247691 58.9906855 87.54296875 58.91015625 C87.54296875 47.69015625 87.54296875 36.47015625 87.54296875 24.91015625 C80.49528016 24.86425958 73.44810956 24.82442899 66.40039062 24.80029297 C64.0025863 24.7902318 61.60479425 24.77658146 59.20703125 24.75927734 C55.76168793 24.73503445 52.31650676 24.72367427 48.87109375 24.71484375 C47.79804993 24.70452118 46.7250061 24.69419861 45.6194458 24.68356323 C44.11834259 24.68333664 44.11834259 24.68333664 42.58691406 24.68310547 C41.70755188 24.67866425 40.8281897 24.67422302 39.92218018 24.66964722 C37.33246571 24.93143552 35.73201048 25.51848178 33.54296875 26.91015625 Z " fill="#0696D6" transform="translate(18.45703125,24.08984375)"/>
<path d="M0 0 C3.3 0 6.6 0 10 0 C10.06970121 7.7020631 10.12291303 15.40409323 10.15543652 23.10640049 C10.17105115 26.68343357 10.1922116 30.26024986 10.22631836 33.8371582 C10.25906318 37.29310659 10.27688458 40.74884727 10.28463173 44.20493889 C10.29282164 46.15635408 10.31621678 48.10768644 10.33988953 50.05897522 C10.34161346 59.19409383 9.16128957 65.48338138 2.84765625 72.35546875 C-3.35424221 77.87555173 -9.87424095 79.77672489 -18.08984375 79.4375 C-22.4991544 78.77462377 -26.1323079 77.15931689 -30 75 C-30.66 74.67 -31.32 74.34 -32 74 C-32 73.34 -32 72.68 -32 72 C-32.66 72 -33.32 72 -34 72 C-39.16067412 65.6781742 -41.5173684 59.63646528 -41.3203125 51.40234375 C-40.47902506 45.09268797 -37.70308151 38.3317856 -33 34 C-25.32347674 28.46182691 -17.24804833 27.80025319 -8 29 C-5.69 29.99 -3.38 30.98 -1 32 C-0.67 21.44 -0.34 10.88 0 0 Z M-27.8125 44 C-31.06393971 48.45911731 -31.74125512 52.57442429 -31 58 C-28.25268663 63.29112204 -24.71874267 67.09375244 -19 69 C-13.29611395 69.37402531 -10.02856955 69.01714173 -5 66 C-5 65.34 -5 64.68 -5 64 C-4.34 64 -3.68 64 -3 64 C0.12442622 58.92280739 0.73054327 54.80260082 0 49 C-1.57629463 43.87704244 -4.28827583 41.48969631 -8.81640625 38.9140625 C-16.00009826 35.90693561 -22.82664838 38.27339328 -27.8125 44 Z " fill="#191919" transform="translate(364,12)"/>
<path d="M0 0 C3.29177871 2.32463664 6.47183168 4.85264717 8.20703125 8.55859375 C8.2578125 10.94140625 8.2578125 10.94140625 7.20703125 13.55859375 C5.07202997 15.54696032 3.047206 17.22758157 0.70703125 18.93359375 C-0.57180982 19.89427141 -1.85045555 20.85520916 -3.12890625 21.81640625 C-3.75506836 22.28079102 -4.38123047 22.74517578 -5.02636719 23.22363281 C-8.08635047 25.53595849 -11.00142817 28.03113909 -13.92578125 30.51171875 C-15.79296875 31.55859375 -15.79296875 31.55859375 -17.89453125 31.390625 C-20.72078603 30.15195778 -22.02577799 28.02003802 -23.79296875 25.55859375 C-22.27423985 21.54160074 -19.83448518 19.89398156 -16.35546875 17.49609375 C-12.5254382 14.87844768 -12.5254382 14.87844768 -9.0703125 11.8125 C-7.79296875 10.55859375 -7.79296875 10.55859375 -5.79296875 10.55859375 C-7.62665563 8.07772327 -8.91833372 7.52098426 -11.91796875 6.62109375 C-16.99324411 6.53923447 -20.51851396 7.87423614 -24.79296875 10.55859375 C-28.06657686 14.24140287 -28.94109547 18.68892792 -28.79296875 23.55859375 C-27.23004751 28.7683312 -25.35574678 31.59278803 -20.79296875 34.55859375 C-16.72644739 35.91410087 -12.96113597 36.4560728 -8.88671875 34.76953125 C-6.33062291 33.35068144 -4.1262244 31.93030198 -2.16796875 29.74609375 C-1.48734375 29.15828125 -1.48734375 29.15828125 -0.79296875 28.55859375 C2.60447925 28.8199359 5.24797807 29.91467531 8.20703125 31.55859375 C6.12547811 37.62979042 3.28182695 41.1995353 -2.29296875 44.37109375 C-8.87498423 47.43429978 -15.30172795 47.74416974 -22.30859375 45.89453125 C-29.14687553 43.21969314 -33.97228815 38.65375077 -37.66796875 32.37109375 C-40.59035138 25.06513718 -40.64195851 18.18244824 -37.88671875 10.796875 C-35.01897025 4.92823253 -31.05973556 0.78683497 -25.10546875 -1.94140625 C-16.32082705 -4.91405435 -8.09876379 -4.61851958 0 0 Z " fill="#191919" transform="translate(525.79296875,44.44140625)"/>
<path d="M0 0 C6.52124145 3.01743897 11.4453176 7.21504578 14.1328125 13.95703125 C16.12295118 21.19471048 16.10342428 28.68719105 12.94140625 35.5625 C9.02027212 42.36649613 3.58145718 46.88900137 -3.99609375 49.125 C-11.76564987 50.00518748 -18.31800119 49.35720681 -24.99609375 45.125 C-27.80859375 42.6875 -27.80859375 42.6875 -29.99609375 40.125 C-30.71796875 39.34125 -31.43984375 38.5575 -32.18359375 37.75 C-36.0348461 32.17232418 -36.86717939 25.73879835 -35.99609375 19.125 C-33.94929312 11.70119879 -30.95888625 6.73464384 -24.43359375 2.4375 C-23.22703125 1.7878125 -23.22703125 1.7878125 -21.99609375 1.125 C-21.43277344 0.77695312 -20.86945313 0.42890625 -20.2890625 0.0703125 C-14.35136757 -2.3775958 -6.08128081 -1.77601943 0 0 Z M-22.80859375 14.125 C-26.06003346 18.58411731 -26.73734887 22.69942429 -25.99609375 28.125 C-23.24878038 33.41612204 -19.71483642 37.21875244 -13.99609375 39.125 C-8.00133139 39.7127218 -3.92686312 38.38620863 1.00390625 35.125 C4.89045218 30.98770917 5.31335869 26.86934628 5.20703125 21.40234375 C4.82957057 17.17042882 3.52180593 14.44400248 0.3046875 11.6484375 C-7.64997221 6.05360808 -16.18933425 6.52230766 -22.80859375 14.125 Z " fill="#191919" transform="translate(301.99609375,41.875)"/>
<path d="M0 0 C5.73066378 4.39795127 9.40418105 9.39222363 11.015625 16.546875 C11.37098169 21.72018174 11.2998282 26.86747595 11.203125 32.046875 C11.18805113 33.45571486 11.1743675 34.86457032 11.16210938 36.2734375 C11.12692224 39.69831896 11.07768579 43.12239263 11.015625 46.546875 C8.045625 46.546875 5.075625 46.546875 2.015625 46.546875 C2.00104248 45.76038574 1.98645996 44.97389648 1.97143555 44.16357422 C1.89673137 40.58252542 1.80014293 37.00238589 1.703125 33.421875 C1.66928711 31.565625 1.66928711 31.565625 1.63476562 29.671875 C1.59931641 28.47304687 1.56386719 27.27421875 1.52734375 26.0390625 C1.48806763 24.38946533 1.48806763 24.38946533 1.44799805 22.70654297 C0.78947809 17.89425318 -1.0346623 13.80766043 -4.921875 10.796875 C-10.39924315 6.77268616 -14.23994141 5.79488241 -20.984375 6.546875 C-26.30370283 8.49047555 -30.55548098 11.64433622 -33.09912109 16.8112793 C-34.11617651 19.95416564 -34.30458164 22.64080835 -34.3984375 25.94140625 C-34.45644531 27.74448242 -34.45644531 27.74448242 -34.515625 29.58398438 C-34.5465625 30.82986328 -34.5775 32.07574219 -34.609375 33.359375 C-34.66738281 35.25719727 -34.66738281 35.25719727 -34.7265625 37.19335938 C-34.82068157 40.31105351 -34.90631861 43.42874414 -34.984375 46.546875 C-38.284375 46.546875 -41.584375 46.546875 -44.984375 46.546875 C-45.08428039 42.58178361 -45.15632334 38.61719337 -45.20410156 34.65112305 C-45.23378281 32.64931449 -45.28464558 30.64785581 -45.3359375 28.64648438 C-45.44557065 17.76539385 -43.51656275 10.24184578 -35.93359375 2.27734375 C-26.67312167 -5.94387696 -10.45609971 -6.33056377 0 0 Z " fill="#191919" transform="translate(217.984375,44.453125)"/>
<path d="M0 0 C3.63 0 7.26 0 11 0 C14.66385361 8.15153229 18.22163556 16.32295096 21.375 24.6875 C21.62523926 25.34556641 21.87547852 26.00363281 22.13330078 26.68164062 C23.40020088 30.09408314 24.40904209 33.40615134 25 37 C25.66 37 26.32 37 27 37 C27.39058594 35.76894531 27.78117187 34.53789063 28.18359375 33.26953125 C30.17934812 27.28461194 32.61464703 21.49892387 35.0625 15.6875 C35.50916016 14.61693359 35.95582031 13.54636719 36.41601562 12.44335938 C38.18152295 8.2288374 39.95545996 4.08908009 42 0 C45.63 0 49.26 0 53 0 C49.14701535 10.53933459 45.02882238 20.93178959 40.62084961 31.2512207 C39.66655734 33.48655612 38.7187383 35.72456469 37.77148438 37.96289062 C37.16443293 39.39078254 36.55702549 40.81852317 35.94921875 42.24609375 C35.66696945 42.91257431 35.38472015 43.57905487 35.09391785 44.26573181 C33.1154692 48.8845308 33.1154692 48.8845308 32 50 C28.00015522 50.14346646 24.00170018 50.04212316 20 50 C19.70359619 49.28602051 19.40719238 48.57204102 19.10180664 47.83642578 C15.448873 39.05146527 11.74002751 30.29084876 8.01757812 21.53515625 C5.87150673 16.47462985 3.73702437 11.40969017 1.66015625 6.3203125 C1.33797119 5.53156738 1.01578613 4.74282227 0.68383789 3.93017578 C0 2 0 2 0 0 Z " fill="#191919" transform="translate(435,41)"/>
<path d="M0 0 C0 2.97 0 5.94 0 9 C-1.62249941 9.83819158 -3.24808497 10.6704116 -4.875 11.5 C-5.77992188 11.9640625 -6.68484375 12.428125 -7.6171875 12.90625 C-10 14 -10 14 -12 14 C-12.68620031 15.32338632 -13.34786461 16.65949948 -14 18 C-14.3403125 18.680625 -14.680625 19.36125 -15.03125 20.0625 C-16.37319416 24.13162099 -16.46362053 28.05275451 -16.625 32.3125 C-16.66367188 33.14845703 -16.70234375 33.98441406 -16.7421875 34.84570312 C-16.83595159 36.89679259 -16.91904245 38.94836515 -17 41 C-12.71 41 -8.42 41 -4 41 C-4 44.3 -4 47.6 -4 51 C-8.29 51 -12.58 51 -17 51 C-17 59.91 -17 68.82 -17 78 C-20.3 78 -23.6 78 -27 78 C-27.11647085 70.61062441 -27.20500427 63.22145061 -27.25906086 55.83133888 C-27.28502161 52.39878258 -27.32016534 48.96685978 -27.37719727 45.53466797 C-27.44252573 41.57787987 -27.46629239 37.62133741 -27.48828125 33.6640625 C-27.51408768 32.44699615 -27.5398941 31.22992981 -27.56648254 29.97598267 C-27.56931998 21.25719729 -26.0072911 14.47795006 -20.0851593 7.86026001 C-14.6520288 2.53785299 -7.73879112 -0.74891527 0 0 Z " fill="#191919" transform="translate(263,41)"/>
<path d="M0 0 C0 2.97 0 5.94 0 9 C-0.66386719 9.29132812 -1.32773437 9.58265625 -2.01171875 9.8828125 C-7.72568699 12.53542841 -11.46143941 14.74923267 -15 20 C-16.1007076 23.3021228 -16.20627072 25.94083279 -16.31640625 29.41796875 C-16.35830078 30.67158203 -16.40019531 31.92519531 -16.44335938 33.21679688 C-16.48267578 34.52712891 -16.52199219 35.83746094 -16.5625 37.1875 C-16.60570992 38.52279978 -16.649325 39.85808652 -16.69335938 41.19335938 C-16.79956502 44.46213297 -16.90160997 47.73098333 -17 51 C-20.3 51 -23.6 51 -27 51 C-27.09990539 47.03490861 -27.17194834 43.07031837 -27.21972656 39.10424805 C-27.24940781 37.10243949 -27.30027058 35.10098081 -27.3515625 33.09960938 C-27.42874981 25.43876882 -26.97475153 19.62736543 -23 13 C-22.54238281 12.17886719 -22.08476562 11.35773437 -21.61328125 10.51171875 C-16.51858514 3.36690469 -8.7884279 -0.23752508 0 0 Z " fill="#191919" transform="translate(408,41)"/>
<path d="M0 0 C2.97 0 5.94 0 9 0 C9 11.88 9 23.76 9 36 C6.03 36 3.06 36 0 36 C0 24.12 0 12.24 0 0 Z " fill="#191919" transform="translate(417,55)"/>
<path d="M0 0 C2.97 0 5.94 0 9 0 C9 11.88 9 23.76 9 36 C6.03 36 3.06 36 0 36 C0 24.12 0 12.24 0 0 Z " fill="#191919" transform="translate(156,55)"/>
<path d="M0 0 C3.90590763 -0.17754126 6.68902394 -0.20731737 10 2 C11.60725635 5.21451269 11.05748185 8.43612536 11 12 C2.88679245 11.21988389 2.88679245 11.21988389 0 8 C-1.38666667 2.77333333 -1.38666667 2.77333333 0 0 Z " fill="#0982C8" transform="translate(415,42)"/>
<path d="M0 0 C3.43119989 -0.19795384 6.20408888 -0.30611966 9.4375 0.9375 C11.97050725 4.28106957 11.30544933 7.95279637 11 12 C6.19331488 11.5528665 3.26736368 10.6517594 0 7 C-0.3125 3.25 -0.3125 3.25 0 0 Z " fill="#0D67B6" transform="translate(154,42)"/>
<path d="M0 0 C1.32 0.33 2.64 0.66 4 1 C5.60725635 4.21451269 5.05748185 7.43612536 5 11 C3.35 10.67 1.7 10.34 0 10 C0 6.7 0 3.4 0 0 Z " fill="#03ACE5" transform="translate(421,43)"/>
<path d="M0 0 C1.98 0.99 1.98 0.99 4 2 C4 4.97 4 7.94 4 11 C2.68 11 1.36 11 0 11 C0 7.37 0 3.74 0 0 Z " fill="#03AEE7" transform="translate(161,43)"/>
<path d="M0 0 C0.99 0 1.98 0 3 0 C3 3.63 3 7.26 3 11 C2.01 10.67 1.02 10.34 0 10 C0 6.7 0 3.4 0 0 Z " fill="#0889CD" transform="translate(158,42)"/>
<path d="M0 0 C0.99 0 1.98 0 3 0 C3 3.3 3 6.6 3 10 C0 8 0 8 -0.75 5 C-1 2 -1 2 0 0 Z " fill="#0E62B3" transform="translate(415,42)"/>
</svg>
