<?xml version="1.0" encoding="UTF-8"?>
<svg version="1.1" xmlns="http://www.w3.org/2000/svg" width="291" height="182">
<path d="M0 0 C1.54397461 0.11214844 1.54397461 0.11214844 3.11914062 0.2265625 C16.24237811 1.33627893 16.24237811 1.33627893 20.13647461 5.75097656 C21.43723143 7.61605696 22.57045532 9.51962426 23.6875 11.5 C24.10604248 12.20366699 24.52458496 12.90733398 24.95581055 13.63232422 C26.25876859 15.82850815 27.53624471 18.03821581 28.8125 20.25 C30.02707267 22.31729696 31.24805179 24.3805133 32.47509766 26.44042969 C33.21753956 27.68949756 33.95339388 28.94251564 34.68115234 30.20019531 C37.4345515 34.88398806 40.39773952 39.85198077 45.1875 42.625 C53.13928472 44.51828208 57.97391609 42.03012176 64.8125 38.25 C66.14265668 37.57701751 67.47488951 36.90804286 68.8125 36.25 C67.50673339 39.70522398 65.99668827 42.84092646 64.125 46.0234375 C63.59567871 46.92408936 63.06635742 47.82474121 62.52099609 48.75268555 C61.95719238 49.70054932 61.39338867 50.64841309 60.8125 51.625 C60.2345166 52.59928955 59.6565332 53.5735791 59.06103516 54.57739258 C55.55545509 60.44433678 51.97143108 66.24578908 48.1875 71.9375 C47.78660156 72.54190918 47.38570312 73.14631836 46.97265625 73.76904297 C43.16642668 79.39500343 43.16642668 79.39500343 40.8125 81.25 C36.95603828 81.7499117 34.71265141 81.82441002 31.39453125 79.70703125 C28.15749529 76.62670505 26.12055363 73.33661157 23.875 69.5 C23.4104541 68.72285645 22.9459082 67.94571289 22.46728516 67.14501953 C20.90402124 64.52007096 19.35729012 61.88585916 17.8125 59.25 C17.24225098 58.28223633 16.67200195 57.31447266 16.08447266 56.31738281 C9.93276473 45.87311987 3.82448372 35.40538717 -2.04492188 24.79931641 C-3.87621933 21.50767217 -5.772475 18.27628536 -7.76953125 15.08203125 C-8.19451904 14.39761963 -8.61950684 13.71320801 -9.05737305 13.00805664 C-9.87202465 11.70470915 -10.69715845 10.40783349 -11.53442383 9.11889648 C-14.21945722 4.81771053 -14.21945722 4.81771053 -14.0546875 1.890625 C-11.61146395 -2.73168982 -4.32850953 -0.37245933 0 0 Z " fill="#304E99" transform="translate(39.1875,50.75)"/>
<path d="M0 0 C3.43642298 2.77777524 6.14863377 5.29595227 7 9.765625 C6.81497296 15.59397684 5.97497125 19.26763122 2 23.765625 C-2.77393365 26.6674278 -6.53016523 27.20314082 -11.921875 26.33203125 C-16.60390198 25.05591488 -18.5149602 22.60636065 -20.875 18.515625 C-22.18766879 14.14006235 -22.53452427 11.08942267 -21 6.765625 C-18.76336633 3.16725537 -16.20359221 0.5257885 -12.625 -1.734375 C-7.9599689 -2.62295235 -4.0510831 -2.50027785 0 0 Z " fill="#F75B5B" transform="translate(113,50.234375)"/>
<path d="M0 0 C1.98 0 3.96 0 6 0 C6 7.92 6 15.84 6 24 C3.69 24 1.38 24 -1 24 C-1.86625 24.2475 -2.7325 24.495 -3.625 24.75 C-6 25 -6 25 -8.75 23.1875 C-11.60062877 20.41605536 -11.94875271 19.67902653 -12.25 15.6875 C-11.98066503 11.7148092 -11.67740389 9.93650749 -9 7 C-2.96470588 5.51764706 -2.96470588 5.51764706 0 7 C0 4.69 0 2.38 0 0 Z " fill="#4964A6" transform="translate(179,91)"/>
<path d="M0 0 C1.98 0 3.96 0 6 0 C7.65 4.62 9.3 9.24 11 14 C12.93938819 11.09091772 13.96774957 8.59137621 15.125 5.3125 C15.47820312 4.31863281 15.83140625 3.32476562 16.1953125 2.30078125 C16.46085937 1.54152344 16.72640625 0.78226562 17 0 C18.98 0 20.96 0 23 0 C21.88238606 3.43994603 20.75464754 6.87648873 19.625 10.3125 C19.30789062 11.28896484 18.99078125 12.26542969 18.6640625 13.27148438 C18.2 14.67817383 18.2 14.67817383 17.7265625 16.11328125 C17.30238037 17.40939331 17.30238037 17.40939331 16.86962891 18.73168945 C16 21 16 21 14 24 C10.875 24.1875 10.875 24.1875 8 24 C6.66147204 20.37689672 5.33006282 16.75121856 4 13.125 C3.6184375 12.09246094 3.236875 11.05992188 2.84375 9.99609375 C2.4828125 9.00996094 2.121875 8.02382812 1.75 7.0078125 C1.41484375 6.09660645 1.0796875 5.18540039 0.734375 4.24658203 C0 2 0 2 0 0 Z " fill="#425EA3" transform="translate(112,91)"/>
<path d="M0 0 C3.17832982 2.29387538 3.92104032 3.55256182 4.609375 7.453125 C4.65578125 8.70609375 4.7021875 9.9590625 4.75 11.25 C4.80671875 12.51328125 4.8634375 13.7765625 4.921875 15.078125 C4.94765625 16.04234375 4.9734375 17.0065625 5 18 C3.36611328 17.97873047 3.36611328 17.97873047 1.69921875 17.95703125 C-1.94071188 17.87631428 -1.94071188 17.87631428 -5.1875 18.6875 C-8 19 -8 19 -10.375 17.5625 C-10.91125 17.046875 -11.4475 16.53125 -12 16 C-11.67 13.69 -11.34 11.38 -11 9 C-7.62902617 7.50178941 -5.79557881 7 -2 7 C-2 6.01 -2 5.02 -2 4 C-2.7425 4.33 -3.485 4.66 -4.25 5 C-7 6 -7 6 -11 6 C-10.6875 4.125 -10.6875 4.125 -10 2 C-6.2794164 -0.48038907 -4.40203429 -0.46337203 0 0 Z " fill="#4762A5" transform="translate(218,97)"/>
<path d="M0 0 C2.17578125 1.0390625 2.17578125 1.0390625 4 3 C4.45781902 5.68528464 4.69472304 7.99651714 4.75 10.6875 C4.77964844 11.38939453 4.80929688 12.09128906 4.83984375 12.81445312 C4.91037033 14.54235424 4.95747068 16.2711832 5 18 C3.91074219 17.98453125 2.82148438 17.9690625 1.69921875 17.953125 C-1.94551862 17.86569263 -1.94551862 17.86569263 -5.1875 18.75 C-8 19 -8 19 -10.4375 17.375 C-12 15 -12 15 -11.875 12.375 C-11 10 -11 10 -9 8 C-6.34462628 7.43479997 -3.70855287 7.26211802 -1 7 C-1.33 6.34 -1.66 5.68 -2 5 C-6.455 5.495 -6.455 5.495 -11 6 C-9.37304347 -0.50782611 -6.13043691 -0.53775762 0 0 Z " fill="#415DA2" transform="translate(199,97)"/>
<path d="M0 0 C1.7109375 1.03515625 1.7109375 1.03515625 3 3 C3.37644848 5.62939205 3.60133087 8.05072472 3.6875 10.6875 C3.73874023 11.7403418 3.73874023 11.7403418 3.79101562 12.81445312 C3.87329947 14.54241387 3.9383324 16.27118072 4 18 C1.89722877 18.22197585 -0.20732302 18.42713637 -2.3125 18.625 C-3.48425781 18.74101563 -4.65601563 18.85703125 -5.86328125 18.9765625 C-9 19 -9 19 -12 17 C-12.9375 14.625 -12.9375 14.625 -13 12 C-10.73205373 8.5980806 -9.28754072 8.05750814 -5.25 7.25 C-3.64125 7.12625 -3.64125 7.12625 -2 7 C-2.33 6.34 -2.66 5.68 -3 5 C-7.455 5.495 -7.455 5.495 -12 6 C-9.75518148 -0.25342303 -6.5725419 -1.09325449 0 0 Z " fill="#415EA2" transform="translate(148,97)"/>
<path d="M0 0 C2.475 0.495 2.475 0.495 5 1 C6.7634375 0.6596875 6.7634375 0.6596875 8.5625 0.3125 C12 0 12 0 14.19921875 1.52734375 C16.64967367 4.89206818 16.40241623 7.13476167 16.25 11.25 C16.21390625 12.51328125 16.1778125 13.7765625 16.140625 15.078125 C16.07101563 16.52445313 16.07101563 16.52445313 16 18 C14.35 18 12.7 18 11 18 C10.67 14.04 10.34 10.08 10 6 C8.68 6 7.36 6 6 6 C5.67 9.96 5.34 13.92 5 18 C3.35 18 1.7 18 0 18 C0 12.06 0 6.12 0 0 Z " fill="#415DA2" transform="translate(226,97)"/>
<path d="M0 0 C3.63 0 7.26 0 11 0 C11.33 0.66 11.66 1.32 12 2 C11.67 2.99 11.34 3.98 11 5 C9.35 5 7.7 5 6 5 C5.67 9.29 5.34 13.58 5 18 C3.35 18 1.7 18 0 18 C0 12.06 0 6.12 0 0 Z " fill="#4661A4" transform="translate(155,97)"/>
<path d="M0 0 C0.125 2.875 0.125 2.875 0 6 C-0.66 6.66 -1.32 7.32 -2 8 C-1.67 8.66 -1.34 9.32 -1 10 C-3.75 10.75 -3.75 10.75 -7 11 C-9.4375 9.375 -9.4375 9.375 -11 7 C-10.83849795 3.60845705 -10.41703243 2.41703243 -8 0 C-4.98413546 -1.105817 -3.03916514 -0.97687451 0 0 Z " fill="#4A65A6" transform="translate(198,105)"/>
<path d="M0 0 C-0.33 3.3 -0.66 6.6 -1 10 C-3.8125 10.625 -3.8125 10.625 -7 11 C-10 9 -10 9 -10.9375 6.625 C-11 4 -11 4 -9.25 1.75 C-5.67507881 -1.03049426 -4.47341455 -1.11835364 0 0 Z " fill="#4863A5" transform="translate(146,105)"/>
<path d="M0 0 C4.55555556 0.55555556 4.55555556 0.55555556 6 2 C6.45977011 7.28735632 6.45977011 7.28735632 4.75 9.9375 C3 11 3 11 0.875 10.8125 C-1 10 -1 10 -2 8 C-2.1875 5 -2.1875 5 -2 2 C-1.34 1.34 -0.68 0.68 0 0 Z " fill="#EDEFF6" transform="translate(174,101)"/>
<path d="M0 0 C-0.33 1.65 -0.66 3.3 -1 5 C-0.01 5.66 0.98 6.32 2 7 C1.67 7.99 1.34 8.98 1 10 C-4.75 9.25 -4.75 9.25 -7 7 C-6.75 3.4375 -6.75 3.4375 -6 0 C-3.50907189 -1.24546405 -2.58919267 -0.7767578 0 0 Z " fill="#4662A4" transform="translate(213,106)"/>
<path d="M0 0 C-0.33 1.32 -0.66 2.64 -1 4 C-2.32 4.33 -3.64 4.66 -5 5 C-5.33 3.68 -5.66 2.36 -6 1 C-4 0 -4 0 0 0 Z " fill="#EDF0F6" transform="translate(217,107)"/>
<path d="M0 0 C-0.33 1.65 -0.66 3.3 -1 5 C-2.65 4.67 -4.3 4.34 -6 4 C-5.67 3.01 -5.34 2.02 -5 1 C-2 0 -2 0 0 0 Z " fill="#F2F3F8" transform="translate(198,107)"/>
<path d="M0 0 C-0.33 1.65 -0.66 3.3 -1 5 C-2.65 4.67 -4.3 4.34 -6 4 C-5.67 3.01 -5.34 2.02 -5 1 C-2 0 -2 0 0 0 Z " fill="#EEF0F7" transform="translate(146,107)"/>
</svg>
