<?xml version="1.0" encoding="UTF-8"?>
<svg version="1.1" xmlns="http://www.w3.org/2000/svg" width="679" height="182">
<path d="M0 0 C1.6305758 3.05732962 0.96158775 5.69393758 0 8.875 C-2.03551536 13.05694757 -4.4193445 17.01452169 -6.8125 21 C-7.49839665 22.16161931 -8.18303295 23.32398366 -8.86645508 24.48706055 C-10.2492579 26.83862451 -11.63692912 29.18719983 -13.02832031 31.53369141 C-15.7962924 36.22443757 -18.4960482 40.95257203 -21.1875 45.6875 C-22.1586461 47.38944166 -23.12999935 49.09126513 -24.1015625 50.79296875 C-25.06777207 52.48694281 -26.0339173 54.18095358 -27 55.875 C-34.14828172 68.40887799 -41.30003352 80.94037975 -48.56396484 93.40771484 C-49.54560437 95.09429238 -50.52499436 96.78218069 -51.50244141 98.47119141 C-57.73325816 109.22922412 -64.15324784 119.83048864 -70.9375 130.25 C-71.55206055 131.19456055 -72.16662109 132.13912109 -72.79980469 133.11230469 C-84.00380271 150.15974085 -84.00380271 150.15974085 -90 152.875 C-95.64221671 153.68464545 -100.5961823 153.9069072 -105.39257812 150.41455078 C-109.1095825 146.85449161 -111.72814039 142.36463236 -114.5 138.0625 C-115.54450317 136.46801025 -115.54450317 136.46801025 -116.61010742 134.84130859 C-123.09509363 124.87651984 -129.28613825 114.73760478 -135.39794922 104.54101562 C-137.40930231 101.19386906 -139.44188733 97.8600619 -141.48022461 94.52929688 C-142.39333788 93.03711668 -143.30438994 91.54367274 -144.21313477 90.04882812 C-146.26577749 86.67665701 -148.34219283 83.32671909 -150.4921875 80.015625 C-150.8752002 79.41830566 -151.25821289 78.82098633 -151.65283203 78.20556641 C-152.67073231 76.62322299 -153.70200525 75.04950381 -154.734375 73.4765625 C-156 70.875 -156 70.875 -155.703125 68.5234375 C-155.47109375 67.97945313 -155.2390625 67.43546875 -155 66.875 C-151.86929594 68.2929422 -149.49390983 70.03697287 -146.875 72.25 C-137.35643326 79.8144239 -126.92391103 81.77221904 -115 80.875 C-106.45943265 78.9175269 -101.71834617 72.96621753 -97.0378418 65.921875 C-94.92084154 62.51295915 -92.85758688 59.07726259 -90.8125 55.625 C-90.06472144 54.37658101 -89.3161773 53.12862028 -88.56689453 51.88110352 C-86.7121669 48.78936533 -84.8661426 45.69254485 -83.02313232 42.59381104 C-79.10443084 36.01058891 -75.15843176 29.44351412 -71.20458984 22.88134766 C-70.44290654 21.61269881 -69.68492777 20.34181192 -68.93212891 19.06787109 C-64.27267103 11.18389104 -60.20519012 4.88080095 -51.05725098 2.3500824 C-47.34819561 1.49354767 -43.5959786 1.14150272 -39.8125 0.76953125 C-38.95116455 0.68120529 -38.0898291 0.59287933 -37.20239258 0.50187683 C-35.39078676 0.31809207 -33.57884541 0.13758805 -31.76660156 -0.03979492 C-29.00723032 -0.3117873 -26.24981527 -0.59959743 -23.4921875 -0.88867188 C-21.72405436 -1.06606391 -19.95582776 -1.24252743 -18.1875 -1.41796875 C-17.37063721 -1.50435104 -16.55377441 -1.59073334 -15.7121582 -1.67973328 C-10.39660841 -2.18348666 -4.81365244 -2.70767949 0 0 Z " fill="#274794" transform="translate(188,18.125)"/>
<path d="M0 0 C5.97862438 4.46845283 10.37480943 9.38290353 12.2578125 16.6875 C13.26882372 25.66953652 12.7179711 33.28389512 7.2578125 40.6875 C1.95346325 46.65913413 -3.64399366 50.12955813 -11.59765625 51 C-21.09078338 51.3850191 -28.21545373 48.80598926 -35.23828125 42.40234375 C-40.69854001 36.17623051 -42.12439427 28.94057616 -42.0078125 20.88671875 C-41.39055531 13.45240053 -38.86688709 8.34389518 -33.4296875 3.25 C-23.64944148 -4.5836922 -11.19104796 -6.50041069 0 0 Z " fill="#F65252" transform="translate(51.7421875,16.3125)"/>
<path d="M0 0 C2.990625 -0.0825 5.98125 -0.165 9.0625 -0.25 C9.99070557 -0.28641602 10.91891113 -0.32283203 11.87524414 -0.36035156 C17.78555036 -0.43865886 21.27165745 0.36188675 26 4 C29.06874138 8.43332515 29.54780201 12.66189665 29.5 17.9375 C29.49572998 18.64535645 29.49145996 19.35321289 29.48706055 20.08251953 C29.35820505 24.01557163 29.02165481 27.07869014 26.8125 30.375 C21.33998616 35.48267958 16.31034318 35.26203606 9.1875 35.125 C6.155625 35.08375 3.12375 35.0425 0 35 C0 23.45 0 11.9 0 0 Z M8 7 C8 13.93 8 20.86 8 28 C16.35284977 28.83205029 16.35284977 28.83205029 20 26 C21.01102038 22.96693887 21.1982535 20.74059761 21.25 17.5625 C21.27578125 16.61503906 21.3015625 15.66757813 21.328125 14.69140625 C20.94556366 11.55349237 20.19071912 10.24702264 18 8 C14.4202491 6.63106761 14.4202491 6.63106761 8 7 Z " fill="#234493" transform="translate(355,107)"/>
<path d="M0 0 C1.22332031 -0.03738281 2.44664062 -0.07476562 3.70703125 -0.11328125 C7.78875424 0.38605411 9.37943091 1.35306659 12.1875 4.3125 C13 8.0625 13 8.0625 13.1875 11.3125 C10.8775 11.6425 8.5675 11.9725 6.1875 12.3125 C5.836875 11.6525 5.48625 10.9925 5.125 10.3125 C3.22192858 7.90146039 3.22192858 7.90146039 -0.5 8.0625 C-1.593125 8.145 -2.68625 8.2275 -3.8125 8.3125 C-4.1425 9.3025 -4.4725 10.2925 -4.8125 11.3125 C-4.01585937 11.48265625 -3.21921875 11.6528125 -2.3984375 11.828125 C3.57736659 13.19485392 8.44829204 14.34181225 13.1875 18.3125 C14.92013912 21.77777824 14.6594774 25.52357028 14.1875 29.3125 C12.42959361 32.37255926 11.00245249 33.82352851 8 35.625 C2.71255186 36.91748732 -1.98104111 36.96906074 -7.125 35.125 C-10.10998224 33.11187244 -11.91616113 31.37581663 -13.8125 28.3125 C-14.0625 25.5 -14.0625 25.5 -13.8125 23.3125 C-10.3475 22.8175 -10.3475 22.8175 -6.8125 22.3125 C-6.255625 23.5190625 -6.255625 23.5190625 -5.6875 24.75 C-4.01802402 27.57368948 -4.01802402 27.57368948 -0.875 28.1875 C1.80695489 28.29696755 3.67560924 28.18200065 6.1875 27.3125 C6.17728372 25.34004666 6.17728372 25.34004666 5.1875 23.3125 C2.34722102 22.12064583 2.34722102 22.12064583 -1.0625 21.375 C-10.04593016 18.82098418 -10.04593016 18.82098418 -12.8125 14.3125 C-13.77534874 9.92618906 -13.35966409 7.16972374 -10.9375 3.375 C-7.37850604 -0.07931766 -4.88562279 0.09720087 0 0 Z " fill="#23428F" transform="translate(482.8125,106.6875)"/>
<path d="M0 0 C2.33294775 -0.04241723 4.66702567 -0.04092937 7 0 C8.70492881 1.70492881 8.1280442 3.84534261 8.13894653 6.11901855 C8.1369223 6.83255493 8.13489807 7.54609131 8.1328125 8.28125 C8.13424759 9.37427429 8.13424759 9.37427429 8.13571167 10.48937988 C8.13639335 12.0327971 8.13453988 13.57621717 8.13037109 15.11962891 C8.12502262 17.489974 8.13031642 19.86012959 8.13671875 22.23046875 C8.13605797 23.72656292 8.1347768 25.22265697 8.1328125 26.71875 C8.13483673 27.43228638 8.13686096 28.14582275 8.13894653 28.88098145 C8.11495191 33.88504809 8.11495191 33.88504809 7 35 C4.66705225 35.04241723 2.33297433 35.04092937 0 35 C-2.23747075 34.93226118 -2.23747075 34.93226118 -5.3125 35.6875 C-9.51551703 36.04368788 -10.76973044 35.60216159 -14 33 C-17.75286214 28.7110147 -18.1371488 24.57167019 -18 19 C-17.20530848 15.18264251 -15.74519979 12.64169982 -12.75 10.0625 C-9.32977182 8.7410482 -6.63776343 8.72545182 -3 9 C-2.34 9.33 -1.68 9.66 -1 10 C-0.67 6.7 -0.34 3.4 0 0 Z M-8.75 16.625 C-10.35914482 19.68237517 -10.42694912 21.58440702 -10 25 C-8.62073227 27.34261608 -8.62073227 27.34261608 -7 29 C-4.56282742 28.72965366 -4.56282742 28.72965366 -2 28 C0.32579101 24.51131349 0.41865457 23.10281481 0 19 C-1.1075902 16.57715762 -1.1075902 16.57715762 -3 15 C-6.90949128 14.54636593 -6.90949128 14.54636593 -8.75 16.625 Z " fill="#22408C" transform="translate(248,107)"/>
<path d="M0 0 C2.97 0 5.94 0 9 0 C11.64 7.26 14.28 14.52 17 22 C19.2619525 15.13499057 19.2619525 15.13499057 21.51733398 8.26782227 C21.79907471 7.41760498 22.08081543 6.5673877 22.37109375 5.69140625 C22.65911865 4.81685791 22.94714355 3.94230957 23.24389648 3.04125977 C24 1 24 1 25 0 C27.67058851 -0.14115161 30.32432238 -0.04247107 33 0 C32.37973717 4.45771773 31.26890138 8.44262474 29.75 12.67578125 C29.3065625 13.91521484 28.863125 15.15464844 28.40625 16.43164062 C28.17550781 17.0681958 27.94476563 17.70475098 27.70703125 18.3605957 C26.99647366 20.32223519 26.29455522 22.2868111 25.59375 24.25195312 C22.13729592 33.86270408 22.13729592 33.86270408 21 35 C19.48071962 35.07179964 17.95832518 35.08392007 16.4375 35.0625 C15.61121094 35.05347656 14.78492188 35.04445312 13.93359375 35.03515625 C13.29550781 35.02355469 12.65742188 35.01195312 12 35 C10.60685119 31.3033583 9.21956874 27.60457108 7.83740234 23.90380859 C7.13809868 22.03500464 6.43432566 20.16787506 5.73046875 18.30078125 C3.47208541 12.24569549 1.37427061 6.31848556 0 0 Z " fill="#24428E" transform="translate(152,107)"/>
<path d="M0 0 C2.26973721 1.90365056 2.86288627 2.84195507 3.14282227 5.77978516 C3.17947998 6.64909668 3.2161377 7.5184082 3.25390625 8.4140625 C3.29580078 9.35507813 3.33769531 10.29609375 3.38085938 11.265625 C3.42017578 12.25046875 3.45949219 13.2353125 3.5 14.25 C3.54318359 15.24257812 3.58636719 16.23515625 3.63085938 17.2578125 C3.73711069 19.71339838 3.83914964 22.16908703 3.9375 24.625 C0.60416667 24.625 -2.72916667 24.625 -6.0625 24.625 C-7.320625 24.851875 -8.57875 25.07875 -9.875 25.3125 C-13.03168526 25.7257388 -13.96840713 25.6670415 -17 24.3125 C-19.88160568 21.95482262 -20.01987436 21.0086308 -20.4375 17.25 C-20.0625 13.625 -20.0625 13.625 -18.125 11.3125 C-14.21765121 9.15947107 -10.4353606 8.34904664 -6.0625 7.625 C-6.0625 6.965 -6.0625 6.305 -6.0625 5.625 C-8.0425 5.625 -10.0225 5.625 -12.0625 5.625 C-12.0625 6.285 -12.0625 6.945 -12.0625 7.625 C-14.7025 7.295 -17.3425 6.965 -20.0625 6.625 C-17.60892434 0.98177598 -17.60892434 0.98177598 -15.26171875 -0.55078125 C-10.28468213 -2.41606496 -4.79839881 -2.15438314 0 0 Z M-12.0625 15.625 C-11.7325 16.945 -11.4025 18.265 -11.0625 19.625 C-9.4125 19.295 -7.7625 18.965 -6.0625 18.625 C-5.7325 16.975 -5.4025 15.325 -5.0625 13.625 C-8.16801666 13.625 -9.41511084 14.1643715 -12.0625 15.625 Z " fill="#22408A" transform="translate(279.0625,117.375)"/>
<path d="M0 0 C0.92683594 -0.03996094 1.85367187 -0.07992187 2.80859375 -0.12109375 C6.89084871 0.70693811 8.17501684 2.02560031 10.5625 5.4375 C11.29657072 9.04202763 11.35281605 12.57978926 11.375 16.25 C11.40013672 17.22904297 11.42527344 18.20808594 11.45117188 19.21679688 C11.50988663 21.62410197 11.5462798 24.02959562 11.5625 26.4375 C10.51449219 26.42009766 10.51449219 26.42009766 9.4453125 26.40234375 C8.53523438 26.39332031 7.62515625 26.38429687 6.6875 26.375 C5.78257812 26.36339844 4.87765625 26.35179687 3.9453125 26.33984375 C1.5456415 26.27500743 1.5456415 26.27500743 -0.4375 27.4375 C-4.11136532 27.84570726 -5.99036137 27.68591035 -9.25 25.875 C-12.11271252 22.68512034 -12.51353596 20.69551359 -12.4375 16.4375 C-9.83404237 11.97442978 -5.19201408 11.23207897 -0.484375 9.953125 C0.52882813 9.69789062 0.52882813 9.69789062 1.5625 9.4375 C1.5625 8.7775 1.5625 8.1175 1.5625 7.4375 C0.840625 7.581875 0.11875 7.72625 -0.625 7.875 C-1.553125 8.060625 -2.48125 8.24625 -3.4375 8.4375 C-4.30375 8.64375 -5.17 8.85 -6.0625 9.0625 C-8.4375 9.4375 -8.4375 9.4375 -11.4375 8.4375 C-9.96468872 2.79172343 -9.96468872 2.79172343 -7.69921875 1.26953125 C-5.03521078 0.28950759 -2.83712233 0.0668947 0 0 Z M-4.4375 17.4375 C-4.4375 18.4275 -4.4375 19.4175 -4.4375 20.4375 C-2.04030568 21.11708603 -2.04030568 21.11708603 0.5625 21.4375 C1.2225 20.7775 1.8825 20.1175 2.5625 19.4375 C2.5625 18.1175 2.5625 16.7975 2.5625 15.4375 C-0.0840335 15.4375 -2.0183163 16.41889634 -4.4375 17.4375 Z " fill="#20408B" transform="translate(441.4375,115.5625)"/>
<path d="M0 0 C3.75339652 3.10995712 4.98399841 5.79499205 5.9375 10.5625 C6.06125 12.17125 6.06125 12.17125 6.1875 13.8125 C4.19133446 15.80866554 0.37048037 15.22233427 -2.375 15.375 C-3.44137695 15.43977539 -3.44137695 15.43977539 -4.52929688 15.50585938 C-6.29011912 15.61221777 -8.0512832 15.71288846 -9.8125 15.8125 C-8.8225 16.8025 -7.8325 17.7925 -6.8125 18.8125 C-5.8225 18.4825 -4.8325 18.1525 -3.8125 17.8125 C-3.4825 17.1525 -3.1525 16.4925 -2.8125 15.8125 C-0.1725 16.1425 2.4675 16.4725 5.1875 16.8125 C4.00941948 20.1654984 2.99343388 22.5677529 0.1875 24.8125 C-3.43180698 26.01893566 -6.00481005 26.13518559 -9.8125 25.8125 C-14.14932792 23.5606855 -16.98177416 21.38931459 -18.8125 16.8125 C-19.56585113 11.16236651 -19.12396295 6.60841186 -15.8125 1.8125 C-11.09121482 -2.23431587 -5.56593381 -2.35006094 0 0 Z M-7.8125 4.8125 C-9.51782323 6.75259522 -9.51782323 6.75259522 -10.8125 8.8125 C-8.1725 8.8125 -5.5325 8.8125 -2.8125 8.8125 C-3.4725 7.4925 -4.1325 6.1725 -4.8125 4.8125 C-5.8025 4.8125 -6.7925 4.8125 -7.8125 4.8125 Z " fill="#224088" transform="translate(557.8125,117.1875)"/>
<path d="M0 0 C0.94488281 -0.04898438 1.88976562 -0.09796875 2.86328125 -0.1484375 C7.01278575 0.62062696 8.27757423 1.91448381 10.6875 5.375 C11.42079516 8.97972075 11.47781569 12.51722846 11.5 16.1875 C11.52513672 17.16654297 11.55027344 18.14558594 11.57617188 19.15429688 C11.63488663 21.56160197 11.6712798 23.96709562 11.6875 26.375 C8.35416667 26.375 5.02083333 26.375 1.6875 26.375 C1.0275 26.705 0.3675 27.035 -0.3125 27.375 C-3.98636532 27.78320726 -5.86536137 27.62341035 -9.125 25.8125 C-11.98771252 22.62262034 -12.38853596 20.63301359 -12.3125 16.375 C-9.70904237 11.91192978 -5.06701408 11.16957897 -0.359375 9.890625 C0.65382813 9.63539062 0.65382813 9.63539062 1.6875 9.375 C1.6875 8.715 1.6875 8.055 1.6875 7.375 C-1.60325996 7.75404208 -1.60325996 7.75404208 -4.3125 9.375 C-6.65194736 9.08769945 -8.9864143 8.75563221 -11.3125 8.375 C-10.7485709 5.10421124 -9.85569569 3.51128438 -7.3125 1.375 C-4.7764472 0.1069736 -2.83238836 0.09965101 0 0 Z M-4.3125 17.375 C-3.9825 18.695 -3.6525 20.015 -3.3125 21.375 C-1.6625 21.045 -0.0125 20.715 1.6875 20.375 C2.0175 18.725 2.3475 17.075 2.6875 15.375 C-0.41801666 15.375 -1.66511084 15.9143715 -4.3125 17.375 Z " fill="#214089" transform="translate(297.3125,115.625)"/>
<path d="M0 0 C0.92683594 -0.01933594 1.85367187 -0.03867188 2.80859375 -0.05859375 C6.54805519 0.61503973 8.06287087 1.55604476 10.5625 4.4375 C11.28241208 7.43607076 11.3075898 10.36371466 11.3125 13.4375 C11.34581478 15.04173503 11.38216981 16.64591041 11.421875 18.25 C11.42670898 18.95769531 11.43154297 19.66539062 11.43652344 20.39453125 C11.5673267 22.51577492 11.98564567 24.3961467 12.5625 26.4375 C11.79164063 26.42589844 11.02078125 26.41429687 10.2265625 26.40234375 C9.22367187 26.39332031 8.22078125 26.38429687 7.1875 26.375 C5.69089844 26.35759766 5.69089844 26.35759766 4.1640625 26.33984375 C1.57817547 26.25743398 1.57817547 26.25743398 -0.4375 27.4375 C-4.15038464 27.85004274 -5.98371504 27.69968686 -9.25 25.8125 C-11.90337009 22.93169818 -12.35651526 21.3247673 -12.4375 17.4375 C-11.9375 15.25 -11.9375 15.25 -10.4375 13.4375 C-6.2437958 11.3406479 -1.90220773 9.85313904 2.5625 8.4375 C0.16530568 7.75791397 0.16530568 7.75791397 -2.4375 7.4375 C-3.0975 8.0975 -3.7575 8.7575 -4.4375 9.4375 C-8.0625 9.0625 -8.0625 9.0625 -11.4375 8.4375 C-9.42384146 2.22871949 -6.55075745 0.00908566 0 0 Z M-4.4375 17.4375 C-3.7775 18.7575 -3.1175 20.0775 -2.4375 21.4375 C0.42974686 20.86405063 1.4239515 20.5760485 3.5625 18.4375 C3.5625 17.4475 3.5625 16.4575 3.5625 15.4375 C0.35854584 15.4375 -1.53149739 16.18085022 -4.4375 17.4375 Z " fill="#22418C" transform="translate(399.4375,115.5625)"/>
<path d="M0 0 C0.92683594 -0.01933594 1.85367188 -0.03867188 2.80859375 -0.05859375 C6.54805519 0.61503973 8.06287087 1.55604476 10.5625 4.4375 C11.28241208 7.43607076 11.3075898 10.36371466 11.3125 13.4375 C11.34581478 15.04173503 11.38216981 16.64591041 11.421875 18.25 C11.42670898 18.95769531 11.43154297 19.66539062 11.43652344 20.39453125 C11.5673267 22.51577492 11.98564567 24.3961467 12.5625 26.4375 C8.89583333 26.4375 5.22916667 26.4375 1.5625 26.4375 C0.9025 26.7675 0.2425 27.0975 -0.4375 27.4375 C-4.15038464 27.85004274 -5.98371504 27.69968686 -9.25 25.8125 C-11.90337009 22.93169818 -12.35651526 21.3247673 -12.4375 17.4375 C-11.9375 15.25 -11.9375 15.25 -10.4375 13.4375 C-6.2437958 11.3406479 -1.90220773 9.85313904 2.5625 8.4375 C0.16530568 7.75791397 0.16530568 7.75791397 -2.4375 7.4375 C-3.0975 8.0975 -3.7575 8.7575 -4.4375 9.4375 C-8.0625 9.0625 -8.0625 9.0625 -11.4375 8.4375 C-9.42384146 2.22871949 -6.55075745 0.00908566 0 0 Z M-4.4375 17.4375 C-3.7775 18.7575 -3.1175 20.0775 -2.4375 21.4375 C0.42974686 20.86405063 1.4239515 20.5760485 3.5625 18.4375 C3.5625 17.4475 3.5625 16.4575 3.5625 15.4375 C0.35854584 15.4375 -1.53149739 16.18085022 -4.4375 17.4375 Z " fill="#223F85" transform="translate(197.4375,115.5625)"/>
<path d="M0 0 C3.98612246 1.8713796 5.79071107 4.45775142 7.375 8.5625 C8 12 8 12 8 16 C2.72 16 -2.56 16 -8 16 C-7.67 16.99 -7.34 17.98 -7 19 C-5.02 19.33 -3.04 19.66 -1 20 C-0.67 19.01 -0.34 18.02 0 17 C2.31 17.33 4.62 17.66 7 18 C6.69369024 20.83336529 6.37605841 22.56126519 4.5 24.75 C0.75411323 26.62294338 -2.82601727 27.11594396 -7 27 C-10.6301368 25.7899544 -12.38559326 24.84517673 -14.6328125 21.75390625 C-16.9942771 16.99724184 -16.77004764 12.1803205 -16 7 C-12.52388056 0.15075726 -7.12177476 -1.04133513 0 0 Z M-6 6 C-6.66 7.32 -7.32 8.64 -8 10 C-5.36 10 -2.72 10 0 10 C-0.33 9.01 -0.66 8.02 -1 7 C-2.65 6.67 -4.3 6.34 -6 6 Z " fill="#213E84" transform="translate(637,116)"/>
<path d="M0 0 C2.64 0 5.28 0 8 0 C8 0.66 8 1.32 8 2 C8.99 1.34 9.98 0.68 11 0 C17.97233202 -0.55335968 17.97233202 -0.55335968 21.4375 1.3125 C24.10062055 4.18867019 24.12144069 6.9338124 24.09765625 10.66796875 C24.09443359 11.56064453 24.09121094 12.45332031 24.08789062 13.37304688 C24.07951172 14.30181641 24.07113281 15.23058594 24.0625 16.1875 C24.05798828 17.12787109 24.05347656 18.06824219 24.04882812 19.03710938 C24.03704626 21.35813712 24.02059558 23.67903644 24 26 C21.36 26 18.72 26 16 26 C15.67 20.06 15.34 14.12 15 8 C13.68 7.67 12.36 7.34 11 7 C7.97906785 10.02093215 8.53323166 13.56372072 8.375 17.625 C8.31699219 18.82769531 8.31699219 18.82769531 8.2578125 20.0546875 C8.16346069 22.03607556 8.08063785 24.01800645 8 26 C5.36 26 2.72 26 0 26 C0 17.42 0 8.84 0 0 Z " fill="#234392" transform="translate(567,116)"/>
<path d="M0 0 C3.22496917 1.80598274 4.562675 2.78894616 5.8125 6.25 C5.874375 6.8275 5.93625 7.405 6 8 C3.36 8.33 0.72 8.66 -2 9 C-2.33 8.34 -2.66 7.68 -3 7 C-6.02934491 6.34227572 -6.02934491 6.34227572 -9 6 C-9 6.66 -9 7.32 -9 8 C-8.18015625 8.15855469 -7.3603125 8.31710938 -6.515625 8.48046875 C2.24167288 10.37648659 2.24167288 10.37648659 5.8125 13.3125 C7.35585036 16.80534556 7.29736507 18.41316715 6 22 C1.76405759 26.0187146 -1.03768013 27.30389938 -6.90234375 27.21875 C-11.12891354 26.77799039 -14.05783486 25.03638165 -16.875 21.9375 C-18 20 -18 20 -18 18 C-14.04 17.505 -14.04 17.505 -10 17 C-9.67 17.99 -9.34 18.98 -9 20 C-7.02 20 -5.04 20 -3 20 C-3 19.34 -3 18.68 -3 18 C-4.01320313 17.76216797 -4.01320313 17.76216797 -5.046875 17.51953125 C-9.26831889 16.41536746 -12.34156732 15.56655835 -15.6875 12.6875 C-17 10 -17 10 -17.0625 6.9375 C-14.18860968 -1.00796147 -7.4378076 -1.11678793 0 0 Z " fill="#213E87" transform="translate(664,116)"/>
<path d="M0 0 C2.31 0 4.62 0 7 0 C7.33 0.66 7.66 1.32 8 2 C8.99 1.34 9.98 0.68 11 0 C18.11864407 -0.6779661 18.11864407 -0.6779661 21.4375 1.875 C23.75441239 5.02600085 24.12207989 6.71137711 24.09765625 10.5703125 C24.09443359 11.46621094 24.09121094 12.36210937 24.08789062 13.28515625 C24.07951172 14.22230469 24.07113281 15.15945312 24.0625 16.125 C24.05798828 17.06988281 24.05347656 18.01476562 24.04882812 18.98828125 C24.03702357 21.32558387 24.02055759 23.66276061 24 26 C21.36 26 18.72 26 16 26 C15.93941406 24.87980469 15.87882812 23.75960937 15.81640625 22.60546875 C15.73198576 21.13280016 15.64733851 19.66014456 15.5625 18.1875 C15.52318359 17.44951172 15.48386719 16.71152344 15.44335938 15.95117188 C15.25618965 12.76928658 15.01279207 10.03837622 14 7 C12.35 7 10.7 7 9 7 C8.67 13.27 8.34 19.54 8 26 C5.36 26 2.72 26 0 26 C0 17.42 0 8.84 0 0 Z " fill="#243D7B" transform="translate(313,116)"/>
<path d="M0 0 C3.49642065 1.92659913 4.68231206 2.92474851 5.8125 6.75 C5.874375 7.4925 5.93625 8.235 6 9 C3.69 9.33 1.38 9.66 -1 10 C-1.33 9.01 -1.66 8.02 -2 7 C-3.98 7.33 -5.96 7.66 -8 8 C-8 11.3 -8 14.6 -8 18 C-5.70705512 18.85974801 -5.70705512 18.85974801 -3 19 C-0.66545339 17.16641665 -0.66545339 17.16641665 1 15 C2.98 15.66 4.96 16.32 7 17 C5.68954637 20.93136089 4.16791954 23.31206827 1 26 C-2.61930698 27.20643566 -5.19231005 27.32268559 -9 27 C-13.86953166 24.56523417 -16.18709505 22.13656401 -18 17 C-18.56138108 11.76044321 -17.85632372 8.43222647 -15 4 C-10.7965089 -0.84038369 -6.03066846 -0.98035497 0 0 Z " fill="#244494" transform="translate(518,116)"/>
<path d="M0 0 C0.7528125 -0.00515625 1.505625 -0.0103125 2.28125 -0.015625 C4.78391332 0.28398962 6.36675005 0.91899789 8.5 2.25 C11.5 6.53571429 11.5 6.53571429 11.5 9.25 C8.86 9.58 6.22 9.91 3.5 10.25 C2.84 9.26 2.18 8.27 1.5 7.25 C-1.08380177 6.99969023 -1.08380177 6.99969023 -3.5 7.25 C-3.52687279 9.06242052 -3.54633715 10.87495233 -3.5625 12.6875 C-3.57410156 13.69683594 -3.58570313 14.70617187 -3.59765625 15.74609375 C-3.78612676 18.19021067 -3.78612676 18.19021067 -2.5 19.25 C-0.83382885 19.29063832 0.83388095 19.292721 2.5 19.25 C3.16 17.93 3.82 16.61 4.5 15.25 C6.81 15.58 9.12 15.91 11.5 16.25 C11.23212125 20.17888829 10.97562903 21.79876221 8.0625 24.5625 C3.89846937 27.30466651 1.5494036 27.66388554 -3.5 27.25 C-6.78235293 25.97792346 -9.70575287 24.469077 -11.67578125 21.4453125 C-13.28025679 17.1717805 -13.03184755 12.7317885 -12.5 8.25 C-9.6370589 2.4218699 -6.49134499 -0.04446127 0 0 Z " fill="#224088" transform="translate(607.5,115.75)"/>
<path d="M0 0 C0 2.64 0 5.28 0 8 C1.65 8 3.3 8 5 8 C5 10.31 5 12.62 5 15 C3.35 15 1.7 15 0 15 C0.33 18.96 0.66 22.92 1 27 C2.32 27 3.64 27 5 27 C5 29.31 5 31.62 5 34 C2.19084526 35.40457737 0.11189466 35.24895157 -3 35 C-5.1796875 34.02734375 -5.1796875 34.02734375 -7 32 C-7.50217648 29.09262186 -7.37537989 26.25169391 -7.25 23.3125 C-7.23195313 22.51521484 -7.21390625 21.71792969 -7.1953125 20.89648438 C-7.14822247 18.93047551 -7.07647899 16.96508506 -7 15 C-7.99 15 -8.98 15 -10 15 C-10 12.69 -10 10.38 -10 8 C-9.01 8 -8.02 8 -7 8 C-7.103125 7.236875 -7.20625 6.47375 -7.3125 5.6875 C-7.209375 4.800625 -7.10625 3.91375 -7 3 C-4.6167054 1.18116991 -3.04181663 0 0 0 Z " fill="#243E7D" transform="translate(423,108)"/>
<path d="M0 0 C2.990625 -0.0825 5.98125 -0.165 9.0625 -0.25 C9.99070557 -0.28641602 10.91891113 -0.32283203 11.87524414 -0.36035156 C17.78555036 -0.43865886 21.27165745 0.36188675 26 4 C29.06874138 8.43332515 29.54780201 12.66189665 29.5 17.9375 C29.49572998 18.64535645 29.49145996 19.35321289 29.48706055 20.08251953 C29.35820505 24.01557163 29.02165481 27.07869014 26.8125 30.375 C21.33998616 35.48267958 16.31034318 35.26203606 9.1875 35.125 C6.155625 35.08375 3.12375 35.0425 0 35 C0 23.45 0 11.9 0 0 Z M3 1 C1.66003068 2.11347596 1.66003068 2.11347596 1.88647461 4.95922852 C1.89171143 6.25272217 1.89694824 7.54621582 1.90234375 8.87890625 C1.9037587 9.5655687 1.90517365 10.25223114 1.90663147 10.95970154 C1.91224521 13.16067801 1.92479993 15.36155409 1.9375 17.5625 C1.94251324 19.05143083 1.94707645 20.54036324 1.95117188 22.02929688 C1.96221907 25.68623075 1.97949287 29.34310558 2 33 C4.97041449 34.48520725 7.69764447 34.1705822 11 34.1875 C12.258125 34.20167969 13.51625 34.21585938 14.8125 34.23046875 C18.09354599 34.34263547 18.09354599 34.34263547 20 32 C20.66 30.35 21.32 28.7 22 27 C17.05 27.66 12.1 28.32 7 29 C7 21.74 7 14.48 7 7 C17.125 5.875 17.125 5.875 21 8 C21.06058594 9.20398438 21.12117188 10.40796875 21.18359375 11.6484375 C21.26799732 13.22397077 21.35264541 14.79949096 21.4375 16.375 C21.47681641 17.1690625 21.51613281 17.963125 21.55664062 18.78125 C21.68893404 23.02601221 21.68893404 23.02601221 23 27 C23.66 27 24.32 27 25 27 C25 26.34 25 25.68 25 25 C25.99 25 26.98 25 28 25 C28.13501894 22.56065775 28.23403897 20.12875896 28.3125 17.6875 C28.35439453 16.99720703 28.39628906 16.30691406 28.43945312 15.59570312 C28.54841587 13.30706875 28.54841587 13.30706875 28 10 C25.60380778 8.22048516 25.60380778 8.22048516 23 7 C22.1875 4.8125 22.1875 4.8125 22 3 C19.58374679 2.66340751 17.16707192 2.33061612 14.75 2 C14.06808594 1.90460938 13.38617188 1.80921875 12.68359375 1.7109375 C9.40628012 1.2654774 6.31615847 1 3 1 Z M8 7 C8 13.93 8 20.86 8 28 C16.35284977 28.83205029 16.35284977 28.83205029 20 26 C21.01102038 22.96693887 21.1982535 20.74059761 21.25 17.5625 C21.27578125 16.61503906 21.3015625 15.66757813 21.328125 14.69140625 C20.94556366 11.55349237 20.19071912 10.24702264 18 8 C14.4202491 6.63106761 14.4202491 6.63106761 8 7 Z " fill="#263E7A" transform="translate(355,107)"/>
<path d="M0 0 C5.33333333 0 10.66666667 0 16 0 C16.98120464 3.05263664 16.98120464 4.94736336 16 8 C14.02 8 12.04 8 10 8 C8.414131 11.171738 8.62133555 14.63513822 8.4375 18.125 C8.39431641 18.87910156 8.35113281 19.63320312 8.30664062 20.41015625 C8.2005168 22.27321888 8.09974999 24.13658524 8 26 C5.36 26 2.72 26 0 26 C0 17.42 0 8.84 0 0 Z " fill="#223F88" transform="translate(213,116)"/>
<path d="M0 0 C2.64 0 5.28 0 8 0 C8 8.58 8 17.16 8 26 C5.36 26 2.72 26 0 26 C0 17.42 0 8.84 0 0 Z " fill="#214088" transform="translate(528,116)"/>
<path d="M0 0 C3.1749036 1.443791 5.67697768 3.2364818 8.375 5.4375 C11.80077967 8.15547395 14.99946412 10.25617667 19 12 C18.01 12.66 17.02 13.32 16 14 C14.22651472 15.23181684 14.22651472 15.23181684 13 17 C12.85365929 19.52657767 12.85365929 19.52657767 13.3125 22.1875 C13.43238281 23.08855469 13.55226563 23.98960938 13.67578125 24.91796875 C13.78277344 25.60503906 13.88976563 26.29210937 14 27 C10.26467973 22.58715147 7.22899119 17.83789998 4.1875 12.9375 C3.67251953 12.13505859 3.15753906 11.33261719 2.62695312 10.50585938 C2.14548828 9.72919922 1.66402344 8.95253906 1.16796875 8.15234375 C0.72735107 7.45101318 0.2867334 6.74968262 -0.16723633 6.02709961 C-1.17245831 3.58020482 -0.89202914 2.44305636 0 0 Z " fill="#264187" transform="translate(33,85)"/>
<path d="M0 0 C0.66 0.33 1.32 0.66 2 1 C2 2.65 2 4.3 2 6 C3.65 6.33 5.3 6.66 7 7 C6.67 7.66 6.34 8.32 6 9 C5.01 9 4.02 9 3 9 C2.97300275 11.27076842 2.95360547 13.54162821 2.9375 15.8125 C2.92589844 17.07707031 2.91429687 18.34164062 2.90234375 19.64453125 C2.83840884 22.99605237 2.83840884 22.99605237 4 26 C3.01 26.99 2.02 27.98 1 29 C0.01 28.34 -0.98 27.68 -2 27 C-2.2208564 24.04935852 -2.28060989 21.31631769 -2.1875 18.375 C-2.17396484 17.57320312 -2.16042969 16.77140625 -2.14648438 15.9453125 C-2.11109051 13.96325622 -2.05728234 11.98154449 -2 10 C-2.99 9.67 -3.98 9.34 -5 9 C-4.67 7.35 -4.34 5.7 -4 4 C-3.34 4 -2.68 4 -2 4 C-2 3.01 -2 2.02 -2 1 C-1.34 0.67 -0.68 0.34 0 0 Z " fill="#234494" transform="translate(419,112)"/>
<path d="M0 0 C0.99 0.33 1.98 0.66 3 1 C3 1.66 3 2.32 3 3 C3.99 3 4.98 3 6 3 C6 9.93 6 16.86 6 24 C4.02 24 2.04 24 0 24 C0 16.08 0 8.16 0 0 Z " fill="#254493" transform="translate(314,117)"/>
<path d="M0 0 C2.64 0 5.28 0 8 0 C8 0.66 8 1.32 8 2 C8.66 2.33 9.32 2.66 10 3 C9.01 3 8.02 3 7 3 C7 2.34 7 1.68 7 1 C5.02 1 3.04 1 1 1 C1.33 7.27 1.66 13.54 2 20 C2.99 20 3.98 20 5 20 C5.19814261 13.91591528 5.19814261 13.91591528 4 8 C7.83325617 5.29417212 10.32538149 4.67386382 15 5 C15 5.99 15 6.98 15 8 C14.38125 7.79375 13.7625 7.5875 13.125 7.375 C12.42375 7.25125 11.7225 7.1275 11 7 C7.97906785 10.02093215 8.53323166 13.56372072 8.375 17.625 C8.31699219 18.82769531 8.31699219 18.82769531 8.2578125 20.0546875 C8.16346069 22.03607556 8.08063785 24.01800645 8 26 C5.36 26 2.72 26 0 26 C0 17.42 0 8.84 0 0 Z " fill="#223D7B" transform="translate(567,116)"/>
<path d="M0 0 C3.42126965 3.42126965 3.24254551 6.92149849 3.375 11.5625 C3.29238005 19.5766356 1.50216161 25.05726795 -3.83203125 31.0625 C-10.90782163 37.76147314 -17.50549705 39.52458942 -27.14453125 39.3046875 C-30.971046 38.89638634 -33.63749256 37.83409497 -37 36 C-35.0625 35.4375 -35.0625 35.4375 -33 35 C-32.67 35.33 -32.34 35.66 -32 36 C-25.25400433 36.56946717 -19.25604555 36.23106331 -12.9375 33.75390625 C-10.97919889 32.99190602 -9.04585336 32.47036361 -7 32 C-7 31.01 -7 30.02 -7 29 C-5.68 28.67 -4.36 28.34 -3 28 C-3 26.35 -3 24.7 -3 23 C-2.34 23 -1.68 23 -1 23 C2.71408071 16.03609866 1.11129365 7.50123214 0 0 Z " fill="#CF5456" transform="translate(61,28)"/>
<path d="M0 0 C0.66 0.33 1.32 0.66 2 1 C2.06058594 2.25296875 2.12117188 3.5059375 2.18359375 4.796875 C2.26802256 6.44792724 2.35266939 8.09896835 2.4375 9.75 C2.47681641 10.575 2.51613281 11.4 2.55664062 12.25 C2.59853516 13.04921875 2.64042969 13.8484375 2.68359375 14.671875 C2.72025146 15.4050293 2.75690918 16.13818359 2.79467773 16.89355469 C3.00114785 19.01177605 3.43132086 20.9519456 4 23 C3.22914063 22.98839844 2.45828125 22.97679687 1.6640625 22.96484375 C0.66117187 22.95582031 -0.34171875 22.94679687 -1.375 22.9375 C-2.87160156 22.92009766 -2.87160156 22.92009766 -4.3984375 22.90234375 C-6.98432453 22.81993398 -6.98432453 22.81993398 -9 24 C-12.71288464 24.41254274 -14.54621504 24.26218686 -17.8125 22.375 C-20.46587009 19.49419818 -20.91901526 17.8872673 -21 14 C-20.3125 11.6875 -20.3125 11.6875 -19 10 C-16.875 9.25 -16.875 9.25 -15 9 C-15.66 10.65 -16.32 12.3 -17 14 C-17.66 14 -18.32 14 -19 14 C-18.37189827 16.97017694 -18.37189827 16.97017694 -17 20 C-14.49004504 21.43923199 -14.49004504 21.43923199 -12 22 C-12.66 20.68 -13.32 19.36 -14 18 C-13.34 17.34 -12.68 16.68 -12 16 C-9.69 16.99 -7.38 17.98 -5 19 C-5 19.66 -5 20.32 -5 21 C-4.38125 20.814375 -3.7625 20.62875 -3.125 20.4375 C-1 20 -1 20 1 21 C0.67 14.07 0.34 7.14 0 0 Z " fill="#203A78" transform="translate(408,119)"/>
<path d="M0 0 C7.32026144 -0.36601307 7.32026144 -0.36601307 10.4375 1.3125 C13.10062055 4.18867019 13.12144069 6.9338124 13.09765625 10.66796875 C13.09443359 11.56064453 13.09121094 12.45332031 13.08789062 13.37304688 C13.07951172 14.30181641 13.07113281 15.23058594 13.0625 16.1875 C13.05798828 17.12787109 13.05347656 18.06824219 13.04882812 19.03710938 C13.03704626 21.35813712 13.02059558 23.67903644 13 26 C10.36 26 7.72 26 5 26 C5 20.06 5 14.12 5 8 C5.66 8.33 6.32 8.66 7 9 C7.4140625 12.16015625 7.4140625 12.16015625 7.625 16.0625 C7.69976563 17.35285156 7.77453125 18.64320313 7.8515625 19.97265625 C7.90054688 20.97167969 7.94953125 21.97070312 8 23 C8.66 23 9.32 23 10 23 C10.05379226 20.04142591 10.09357093 17.08382279 10.125 14.125 C10.14175781 13.28324219 10.15851562 12.44148437 10.17578125 11.57421875 C10.18544922 10.36572266 10.18544922 10.36572266 10.1953125 9.1328125 C10.21102295 8.01737061 10.21102295 8.01737061 10.22705078 6.87939453 C10.1665597 4.75509765 10.1665597 4.75509765 8 3 C7.67 2.34 7.34 1.68 7 1 C4.36 1.33 1.72 1.66 -1 2 C-0.67 1.34 -0.34 0.68 0 0 Z " fill="#233B76" transform="translate(578,116)"/>
<path d="M0 0 C2.31 0.66 4.62 1.32 7 2 C5.68954637 5.93136089 4.16791954 8.31206827 1 11 C-2.61930698 12.20643566 -5.19231005 12.32268559 -9 12 C-14.53846154 8.92307692 -14.53846154 8.92307692 -16 6 C-15.01 6 -14.02 6 -13 6 C-12.67 6.66 -12.34 7.32 -12 8 C-7.96960118 8.93730205 -4.12580711 9.0982335 0 9 C0 7.68 0 6.36 0 5 C-2.31 5.33 -4.62 5.66 -7 6 C-6.401875 5.7525 -5.80375 5.505 -5.1875 5.25 C-2.71352479 3.83629988 -1.56629745 2.34944617 0 0 Z " fill="#253E79" transform="translate(518,131)"/>
<path d="M0 0 C2 2 2 2 2.22705078 4.06298828 C2.21134033 5.30411377 2.21134033 5.30411377 2.1953125 6.5703125 C2.18564453 7.91416016 2.18564453 7.91416016 2.17578125 9.28515625 C2.15902344 10.22230469 2.14226562 11.15945312 2.125 12.125 C2.11597656 13.06988281 2.10695313 14.01476562 2.09765625 14.98828125 C2.07404522 17.32577292 2.04111516 19.66276123 2 22 C-0.64 22 -3.28 22 -6 22 C-6.33 16.06 -6.66 10.12 -7 4 C-5.68 4.33 -4.36 4.66 -3 5 C-3.33 8.96 -3.66 12.92 -4 17 C-3.34 17.33 -2.68 17.66 -2 18 C-1.34 18.66 -0.68 19.32 0 20 C-0.16749756 19.42024414 -0.33499512 18.84048828 -0.50756836 18.24316406 C-1.27535381 14.74568625 -0.83455572 11.28985149 -0.5625 7.75 C-0.51029297 7.00492187 -0.45808594 6.25984375 -0.40429688 5.4921875 C-0.2751783 3.66105139 -0.13834886 1.83046187 0 0 Z " fill="#233B76" transform="translate(335,120)"/>
<path d="M0 0 C2.05078125 0.03255208 4.1015625 0.06510417 6.15234375 0.09765625 C5.51217402 5.23522093 3.95534042 9.68555806 2.08984375 14.47265625 C1.80818359 15.20871094 1.52652344 15.94476563 1.23632812 16.703125 C0.54667757 18.50322985 -0.14979557 20.30071835 -0.84765625 22.09765625 C-2.3538954 16.9719469 -1.26767446 12.16914987 0.15234375 7.09765625 C0.81234375 7.09765625 1.47234375 7.09765625 2.15234375 7.09765625 C2.15234375 5.77765625 2.15234375 4.45765625 2.15234375 3.09765625 C1.16234375 3.42765625 0.17234375 3.75765625 -0.84765625 4.09765625 C-1.58089421 6.11273983 -1.58089421 6.11273983 -1.84765625 8.09765625 C-2.50765625 8.09765625 -3.16765625 8.09765625 -3.84765625 8.09765625 C-3.96882812 8.80792969 -4.09 9.51820312 -4.21484375 10.25 C-4.38242188 11.16910156 -4.55 12.08820313 -4.72265625 13.03515625 C-4.88507813 13.95167969 -5.0475 14.86820313 -5.21484375 15.8125 C-5.52808594 16.94365234 -5.52808594 16.94365234 -5.84765625 18.09765625 C-6.50765625 18.42765625 -7.16765625 18.75765625 -7.84765625 19.09765625 C-7.23099966 14.81317765 -6.23581676 10.88329187 -4.84765625 6.78515625 C-4.49703125 5.73714844 -4.14640625 4.68914062 -3.78515625 3.609375 C-2.4870191 0.13144921 -2.4870191 0.13144921 0 0 Z " fill="#233B72" transform="translate(178.84765625,106.90234375)"/>
<path d="M0 0 C7 0 7 0 10 2 C8.68 2.33 7.36 2.66 6 3 C6 2.34 6 1.68 6 1 C4.35 1 2.7 1 1 1 C1.144375 1.67804688 1.28875 2.35609375 1.4375 3.0546875 C2.715597 9.46292384 3.25489093 15.47196016 3 22 C3.99 21.67 4.98 21.34 6 21 C6.33 17.37 6.66 13.74 7 10 C7.33 10 7.66 10 8 10 C8 15.28 8 20.56 8 26 C5.36 26 2.72 26 0 26 C0 17.42 0 8.84 0 0 Z " fill="#233C74" transform="translate(213,116)"/>
<path d="M0 0 C-2.46278801 2.46278801 -4.70676982 2.99771255 -8 4 C-8 4.99 -8 5.98 -8 7 C-8.66 7 -9.32 7 -10 7 C-9.67 7.66 -9.34 8.32 -9 9 C-8.360625 8.319375 -7.72125 7.63875 -7.0625 6.9375 C-3.27123426 4.53894412 -1.3061212 4.78556007 3.01171875 5.25 C5 6 5 6 6.26953125 8.0625 C6.51058594 8.701875 6.75164062 9.34125 7 10 C7.99 10 8.98 10 10 10 C10 10.66 10 11.32 10 12 C8.125 11.6875 8.125 11.6875 6 11 C5.34 10.01 4.68 9.02 4 8 C0.41642759 7.74984127 0.41642759 7.74984127 -3 8 C-3.33 8.99 -3.66 9.98 -4 11 C-3.34 11.33 -2.68 11.66 -2 12 C-2.99 12 -3.98 12 -5 12 C-5.66 12.66 -6.32 13.32 -7 14 C-7.33 13.34 -7.66 12.68 -8 12 C-8.66 12 -9.32 12 -10 12 C-9.67 13.32 -9.34 14.64 -9 16 C-9.99 15.34 -10.98 14.68 -12 14 C-12.54339321 9.26471634 -12.70506185 7.1045969 -10.125 3.0625 C-6.72125625 -0.24113364 -4.64344389 -0.10094443 0 0 Z " fill="#203A7D" transform="translate(482,107)"/>
<path d="M0 0 C3.1875 1.8125 3.1875 1.8125 5 5 C5.38527584 8.70697832 5.292457 12.28904559 5 16 C4.34 15.67 3.68 15.34 3 15 C2.5859375 12.27734375 2.5859375 12.27734375 2.375 8.9375 C2.30023438 7.83277344 2.22546875 6.72804688 2.1484375 5.58984375 C2.09945313 4.73519531 2.05046875 3.88054687 2 3 C0.72125 2.835 -0.5575 2.67 -1.875 2.5 C-2.59429687 2.4071875 -3.31359375 2.314375 -4.0546875 2.21875 C-6.00498344 1.9627515 -6.00498344 1.9627515 -8 2 C-8.2165625 2.8971875 -8.2165625 2.8971875 -8.4375 3.8125 C-8.8872439 5.56150404 -9.42892341 7.28677023 -10 9 C-12.31 8.67 -14.62 8.34 -17 8 C-15.52718872 2.35422343 -15.52718872 2.35422343 -13.26171875 0.83203125 C-8.92124012 -0.76472514 -4.53956874 -0.61781113 0 0 Z " fill="#243E81" transform="translate(447,116)"/>
<path d="M0 0 C3.0598026 3.34237013 3.38397379 5.64964091 3.3125 10.125 C3.30863281 11.17945313 3.30476563 12.23390625 3.30078125 13.3203125 C3 16 3 16 1 18 C-0.32 17.67 -1.64 17.34 -3 17 C-3.33 13.37 -3.66 9.74 -4 6 C-3.34 6 -2.68 6 -2 6 C-2 4.35 -2 2.7 -2 1 C-1.34 0.67 -0.68 0.34 0 0 Z " fill="#204393" transform="translate(304,123)"/>
<path d="M0 0 C1.65 0.33 3.3 0.66 5 1 C4.67 1.66 4.34 2.32 4 3 C3.86642547 6.67329964 3.8328432 9.49852959 5 13 C7.50447516 14.21869929 7.50447516 14.21869929 10 15 C10 15.66 10 16.32 10 17 C8.35 17 6.7 17 5 17 C4.67 17.66 4.34 18.32 4 19 C2.05859375 18.27734375 2.05859375 18.27734375 0 17 C-0.71484375 14.94140625 -0.71484375 14.94140625 -0.9375 12.5625 C-1.02902344 11.78003906 -1.12054688 10.99757812 -1.21484375 10.19140625 C-1 8 -1 8 0.49609375 6.21484375 C0.99238281 5.81394531 1.48867187 5.41304688 2 5 C1.34 4.67 0.68 4.34 0 4 C0 2.68 0 1.36 0 0 Z " fill="#234394" transform="translate(233,122)"/>
<path d="M0 0 C0.12375 0.598125 0.2475 1.19625 0.375 1.8125 C0.95475985 4.26231348 0.95475985 4.26231348 3 7 C3.99 7 4.98 7 6 7 C6.33 5.02 6.66 3.04 7 1 C7.33 1 7.66 1 8 1 C8.33 3.97 8.66 6.94 9 10 C8.30132812 9.98839844 7.60265625 9.97679687 6.8828125 9.96484375 C5.97273438 9.95582031 5.06265625 9.94679687 4.125 9.9375 C3.22007812 9.92589844 2.31515625 9.91429687 1.3828125 9.90234375 C-1.0168585 9.83750743 -1.0168585 9.83750743 -3 11 C-5.875 11.3125 -5.875 11.3125 -9 11 C-11.375 9 -11.375 9 -13 7 C-8.545 7.99 -8.545 7.99 -4 9 C-4 8.01 -4 7.02 -4 6 C-4.66 6 -5.32 6 -6 6 C-5.67 5.34 -5.34 4.68 -5 4 C-4.34 3.855625 -3.68 3.71125 -3 3.5625 C-2.01 3.2840625 -2.01 3.2840625 -1 3 C-0.67 2.01 -0.34 1.02 0 0 Z " fill="#223C7C" transform="translate(444,132)"/>
<path d="M0 0 C0 1.65 0 3.3 0 5 C-0.78375 5.268125 -1.5675 5.53625 -2.375 5.8125 C-5.28114923 6.84814432 -5.28114923 6.84814432 -7 10 C-8.65 8.68 -10.3 7.36 -12 6 C-12.33 7.98 -12.66 9.96 -13 12 C-13.33 12 -13.66 12 -14 12 C-14.3125 8.75 -14.3125 8.75 -14 5 C-9.71106829 0.47279431 -5.99975324 -0.16665981 0 0 Z " fill="#1F3E81" transform="translate(273,126)"/>
<path d="M0 0 C2.25 1.375 2.25 1.375 4 4 C4.4649133 6.59681304 4.68744224 9.12388767 4.82421875 11.7578125 C4.86149196 14.03626682 4.86149196 14.03626682 6 16 C5.34 16.66 4.68 17.32 4 18 C2.5 16.625 2.5 16.625 1 15 C1 14.34 1 13.68 1 13 C0.67966043 10.99787771 0.34740923 8.99760305 0 7 C0.66 7 1.32 7 2 7 C-0.76223278 4.23776722 -3.20706617 4.42143709 -7 4 C-7 3.01 -7 2.02 -7 1 C-4.4086487 -0.29567565 -2.87704151 -0.34250494 0 0 Z " fill="#234396" transform="translate(446,117)"/>
<path d="M0 0 C1.16402344 0.00773437 1.16402344 0.00773437 2.3515625 0.015625 C3.12242187 0.01046875 3.89328125 0.0053125 4.6875 0 C7.22986723 0.29501872 8.81378197 0.9104063 10.9765625 2.265625 C13.9765625 6.55133929 13.9765625 6.55133929 13.9765625 9.265625 C11.3365625 9.595625 8.6965625 9.925625 5.9765625 10.265625 C5.3165625 9.275625 4.6565625 8.285625 3.9765625 7.265625 C1.39276073 7.01531523 1.39276073 7.01531523 -1.0234375 7.265625 C-0.6934375 6.605625 -0.3634375 5.945625 -0.0234375 5.265625 C0.6365625 5.265625 1.2965625 5.265625 1.9765625 5.265625 C2.3065625 4.605625 2.6365625 3.945625 2.9765625 3.265625 C4.2965625 3.925625 5.6165625 4.585625 6.9765625 5.265625 C6.6465625 4.275625 6.3165625 3.285625 5.9765625 2.265625 C2.6765625 2.265625 -0.6234375 2.265625 -4.0234375 2.265625 C-2.0234375 0.265625 -2.0234375 0.265625 0 0 Z " fill="#233D7F" transform="translate(605.0234375,115.734375)"/>
<path d="M0 0 C2.31 0.33 4.62 0.66 7 1 C6.69369024 3.83336529 6.37605841 5.56126519 4.5 7.75 C0.8089426 9.5955287 -2.92080486 9.74722936 -7 10 C-6.34 9.21625 -5.68 8.4325 -5 7.625 C-2.79798559 5.28487188 -2.79798559 5.28487188 -3 3 C-2.34 3 -1.68 3 -1 3 C-0.67 2.01 -0.34 1.02 0 0 Z " fill="#223D80" transform="translate(637,133)"/>
<path d="M0 0 C0.5859375 1.8359375 0.5859375 1.8359375 1 4 C0.54625 4.86625 0.0925 5.7325 -0.375 6.625 C-2.50275628 11.04418613 -2.72225676 15.15385928 -3 20 C-2.34 20 -1.68 20 -1 20 C-0.34 22.97 0.32 25.94 1 29 C1.66 29 2.32 29 3 29 C3.33 30.32 3.66 31.64 4 33 C5.32 33.33 6.64 33.66 8 34 C8.33 35.32 8.66 36.64 9 38 C3.03239296 34.53046102 -0.29012897 30.5011645 -3.3125 24.3125 C-5.1631989 15.39549621 -4.49569728 7.94775055 0 0 Z " fill="#CC5358" transform="translate(14,25)"/>
<path d="M0 0 C0.474375 0.804375 0.94875 1.60875 1.4375 2.4375 C2.78654718 5.29335442 2.78654718 5.29335442 5.9375 5.875 C8.61945489 5.98446755 10.48810924 5.86950065 13 5 C12.01 6.485 12.01 6.485 11 8 C8.6171875 8.29296875 8.6171875 8.29296875 5.875 8.1875 C4.96492188 8.16042969 4.05484375 8.13335937 3.1171875 8.10546875 C2.41851562 8.07066406 1.71984375 8.03585938 1 8 C0.34 6.35 -0.32 4.7 -1 3 C-1.99 3.495 -1.99 3.495 -3 4 C-2.67 6.31 -2.34 8.62 -2 11 C-6.92307692 6.69230769 -6.92307692 6.69230769 -7.3125 3.1875 C-7.209375 2.465625 -7.10625 1.74375 -7 1 C-4.39722303 -0.30138849 -2.88185107 -0.4217343 0 0 Z " fill="#213D7A" transform="translate(476,129)"/>
<path d="M0 0 C1.32 0.33 2.64 0.66 4 1 C4.33 3.97 4.66 6.94 5 10 C0.05 10 -4.9 10 -10 10 C-9.67 9.34 -9.34 8.68 -9 8 C-8.236875 8.061875 -7.47375 8.12375 -6.6875 8.1875 C-3.98617125 8.25837483 -3.98617125 8.25837483 -2.3125 6.625 C-1.6628125 5.820625 -1.6628125 5.820625 -1 5 C-0.34 4.34 0.32 3.68 1 3 C0.34 3 -0.32 3 -1 3 C-0.67 2.01 -0.34 1.02 0 0 Z " fill="#244492" transform="translate(557,121)"/>
<path d="M0 0 C0.33 0.66 0.66 1.32 1 2 C-0.23168945 4.58203125 -0.23168945 4.58203125 -2.11328125 7.8125 C-2.44289352 8.38202393 -2.7725058 8.95154785 -3.11210632 9.53833008 C-3.81208697 10.74422691 -4.51596505 11.94786843 -5.22338867 13.14941406 C-6.30539334 14.98792457 -7.37534116 16.83302411 -8.44335938 18.6796875 C-13.68713993 27.68713993 -13.68713993 27.68713993 -16 30 C-16.33 28.02 -16.66 26.04 -17 24 C-16.21625 23.443125 -15.4325 22.88625 -14.625 22.3125 C-11.91295142 19.92331435 -11.03866457 18.39926587 -10 15 C-9.34 15 -8.68 15 -8 15 C-8 13.68 -8 12.36 -8 11 C-7.34 11 -6.68 11 -6 11 C-5.34 8.69 -4.68 6.38 -4 4 C-3.34 4 -2.68 4 -2 4 C-2 3.01 -2 2.02 -2 1 C-1.34 0.67 -0.68 0.34 0 0 Z " fill="#253A79" transform="translate(145,98)"/>
<path d="M0 0 C4.94520214 4.78567949 4.94520214 4.78567949 5.09765625 8.1640625 C5.08605469 8.97617188 5.07445312 9.78828125 5.0625 10.625 C5.05347656 11.44226563 5.04445312 12.25953125 5.03515625 13.1015625 C5.02355469 13.72804687 5.01195312 14.35453125 5 15 C3.02 15.99 3.02 15.99 1 17 C0 16 0 16 -0.0625 13.6015625 C-0.02094265 11.62239354 0.02072344 9.64322685 0.0625 7.6640625 C0.12808574 4.89443987 0.12808574 4.89443987 -1 2 C-0.67 1.34 -0.34 0.68 0 0 Z " fill="#264594" transform="translate(215,122)"/>
<path d="M0 0 C0.95648438 -0.02578125 1.91296875 -0.0515625 2.8984375 -0.078125 C6.00392147 0.29560086 7.33036066 1.18373709 9.625 3.25 C9.295 3.91 8.965 4.57 8.625 5.25 C8.09390625 4.74855469 7.5628125 4.24710937 7.015625 3.73046875 C3.85524151 1.77330316 2.02434242 2.12616558 -1.625 2.5625 C-2.70265625 2.68238281 -3.7803125 2.80226563 -4.890625 2.92578125 C-6.12039063 3.08626953 -6.12039063 3.08626953 -7.375 3.25 C-7.375 4.57 -7.375 5.89 -7.375 7.25 C-6.7975 6.899375 -6.22 6.54875 -5.625 6.1875 C-3.01698224 5.10082593 -1.98082371 5.31934867 0.625 6.25 C-2.6587938 8.73772258 -3.98698583 9.28180444 -8.1875 8.9375 C-9.239375 8.710625 -10.29125 8.48375 -11.375 8.25 C-10.8110709 4.97921124 -9.91819569 3.38628438 -7.375 1.25 C-4.80935275 -0.03282363 -2.86466931 0.04608047 0 0 Z " fill="#273C7B" transform="translate(297.375,115.75)"/>
<path d="M0 0 C2.64 0 5.28 0 8 0 C8 2.64 8 5.28 8 8 C5.36 8 2.72 8 0 8 C0 5.36 0 2.72 0 0 Z " fill="#1F397B" transform="translate(528,107)"/>
<path d="M0 0 C2.45605371 2.55274874 2.98802939 3.85890643 3.29296875 7.453125 C3.24076172 9.33257812 3.24076172 9.33257812 3.1875 11.25 C3.14689453 13.14492187 3.14689453 13.14492187 3.10546875 15.078125 C3.07066406 16.04234375 3.03585937 17.0065625 3 18 C1.68 17.34 0.36 16.68 -1 16 C-1.02692484 13.70839681 -1.04636124 11.41670454 -1.0625 9.125 C-1.07410156 7.84882813 -1.08570313 6.57265625 -1.09765625 5.2578125 C-1 2 -1 2 0 0 Z " fill="#264697" transform="translate(332,122)"/>
<path d="M0 0 C0.66 0.33 1.32 0.66 2 1 C-2.75 5.875 -2.75 5.875 -5 7 C-5.66 6.67 -6.32 6.34 -7 6 C-8.3420235 5.96333269 -9.68602266 5.98614196 -11.02734375 6.04296875 C-12.21553711 6.07487305 -12.21553711 6.07487305 -13.42773438 6.10742188 C-15.09742463 6.16069604 -16.76678153 6.22575458 -18.43554688 6.30273438 C-20.68961982 6.35217383 -22.77471737 6.36716878 -25 6 C-27.06640625 3.98828125 -27.06640625 3.98828125 -28 2 C-26.700625 2.2475 -26.700625 2.2475 -25.375 2.5 C-16.55354733 3.72420159 -8.00247866 4.18311385 0 0 Z " fill="#2A3F7C" transform="translate(80,96)"/>
<path d="M0 0 C1.61226473 3.02299637 0.67268829 5.6338655 0 8.875 C-1.125 5.125 -1.125 5.125 0 2.875 C-1.65 2.875 -3.3 2.875 -5 2.875 C-5 3.535 -5 4.195 -5 4.875 C-5.66 4.875 -6.32 4.875 -7 4.875 C-7.33 3.225 -7.66 1.575 -8 -0.125 C-11.63 -0.125 -15.26 -0.125 -19 -0.125 C-19 -0.455 -19 -0.785 -19 -1.125 C-5.20696535 -2.92891801 -5.20696535 -2.92891801 0 0 Z " fill="#284182" transform="translate(188,18.125)"/>
<path d="M0 0 C0.33 0 0.66 0 1 0 C1.62108626 7.91884984 1.62108626 7.91884984 -0.6875 11.9375 C-5.13446136 15.90370878 -9.06084155 16.318898 -14.83984375 16.203125 C-17.49225884 15.95371165 -19.63752028 15.21934437 -22 14 C-18.8035914 12.93453047 -16.34252724 12.92572162 -13 13 C-13 13.66 -13 14.32 -13 15 C-12.01 15 -11.02 15 -10 15 C-9.67 13.68 -9.34 12.36 -9 11 C-9 11.66 -9 12.32 -9 13 C-6.52733235 12.65555119 -6.52733235 12.65555119 -4 12 C-3.67 11.34 -3.34 10.68 -3 10 C-2.34 10 -1.68 10 -1 10 C-1.020625 8.906875 -1.04125 7.81375 -1.0625 6.6875 C-1 3 -1 3 0 0 Z " fill="#283D78" transform="translate(496,127)"/>
<path d="M0 0 C-0.33 0.99 -0.66 1.98 -1 3 C-1.66 3 -2.32 3 -3 3 C-1.80100302 6.0831351 -0.52299523 9.06279492 1 12 C0.01 12.33 -0.98 12.66 -2 13 C-5.07090267 11.14317513 -6.7381562 10.04737519 -7.625 6.5 C-6.69626194 2.78504777 -3.98977341 0 0 0 Z " fill="#234494" transform="translate(396,129)"/>
<path d="M0 0 C0.598125 0.20625 1.19625 0.4125 1.8125 0.625 C0.8225 1.12 0.8225 1.12 -0.1875 1.625 C0.15477572 4.59565509 0.15477572 4.59565509 0.8125 7.625 C1.4725 7.955 2.1325 8.285 2.8125 8.625 C0.5025 8.955 -1.8075 9.285 -4.1875 9.625 C-5.58181504 6.83636993 -5.44410094 4.70421132 -5.1875 1.625 C-2.1875 -0.375 -2.1875 -0.375 0 0 Z " fill="#234394" transform="translate(192.1875,130.375)"/>
<path d="M0 0 C0.66 0 1.32 0 2 0 C1.67 1.32 1.34 2.64 1 4 C4.3 3.67 7.6 3.34 11 3 C11.33 3.66 11.66 4.32 12 5 C11.34 5.66 10.68 6.32 10 7 C8.33333333 6.66666667 6.66666667 6.33333333 5 6 C4.34 6.66 3.68 7.32 3 8 C-0.625 7.625 -0.625 7.625 -4 7 C-2.92598892 4.08482708 -2.22189824 2.22189824 0 0 Z " fill="#253E7F" transform="translate(392,117)"/>
<path d="M0 0 C0.66 0 1.32 0 2 0 C2.32613281 0.61488281 2.65226562 1.22976562 2.98828125 1.86328125 C3.42527344 2.67152344 3.86226562 3.47976562 4.3125 4.3125 C4.74175781 5.11300781 5.17101563 5.91351563 5.61328125 6.73828125 C6.87869895 9.00757694 6.87869895 9.00757694 8.59375 10.5625 C10.89493285 12.91482025 11.23384954 15.87646352 12 19 C12.66 19 13.32 19 14 19 C16 22 16 22 15.625 24.1875 C15.41875 24.785625 15.2125 25.38375 15 26 C13.06155731 22.93809574 11.12441424 19.87537131 9.1875 16.8125 C8.64029297 15.94818359 8.09308594 15.08386719 7.52929688 14.19335938 C6.01517003 11.79828599 4.50673221 9.39972967 3 7 C2.06607422 5.52080078 2.06607422 5.52080078 1.11328125 4.01171875 C0 2 0 2 0 0 Z " fill="#293D7A" transform="translate(57,128)"/>
<path d="M0 0 C1.8125 1.625 1.8125 1.625 3 3 C2.01 3.33 1.02 3.66 0 4 C-0.33 4.66 -0.66 5.32 -1 6 C-1.350625 5.505 -1.70125 5.01 -2.0625 4.5 C-4.94374289 2.26936034 -7.47009026 2.80019379 -11 3 C-11.33 2.01 -11.66 1.02 -12 0 C-7.24978042 -1.67654809 -4.47447076 -2.61010795 0 0 Z " fill="#244493" transform="translate(639,119)"/>
<path d="M0 0 C2.33294775 -0.04241723 4.66702567 -0.04092937 7 0 C8 1 8 1 8.0625 4.5625 C8.041875 5.696875 8.02125 6.83125 8 8 C7.67 8 7.34 8 7 8 C7 6.02 7 4.04 7 2 C5.35 2 3.7 2 2 2 C1.67 5.3 1.34 8.6 1 12 C-0.66666667 12 -2.33333333 12 -4 12 C-4 11.34 -4 10.68 -4 10 C-6.64 10.33 -9.28 10.66 -12 11 C-10 9 -10 9 -6.5 8.8125 C-3 9 -3 9 -1 10 C-0.67 6.7 -0.34 3.4 0 0 Z " fill="#1D3D73" transform="translate(248,107)"/>
<path d="M0 0 C2.99220268 1.36370299 5.29026529 2.94908083 7.75 5.125 C8.67039062 5.93324219 8.67039062 5.93324219 9.609375 6.7578125 C10.06828125 7.16773437 10.5271875 7.57765625 11 8 C10.01 8.33 9.02 8.66 8 9 C7.01 8.34 6.02 7.68 5 7 C4.67 8.32 4.34 9.64 4 11 C1.11670417 7.744666 -0.63331529 5.40021656 -1 1 C-0.67 0.67 -0.34 0.34 0 0 Z " fill="#263975" transform="translate(33,85)"/>
<path d="M0 0 C0.66 0.33 1.32 0.66 2 1 C1.01 3.31 0.02 5.62 -1 8 C-0.01 8.33 0.98 8.66 2 9 C1.505 9.515625 1.01 10.03125 0.5 10.5625 C-1.49649241 13.80680017 -1.21564385 16.26217334 -1 20 C-3.86328131 17.13671869 -3.70682017 14.5484166 -4.04296875 10.6171875 C-3.97829279 6.67783369 -2.87528435 2.87528435 0 0 Z " fill="#234184" transform="translate(234,118)"/>
<path d="M0 0 C0.99 0.33 1.98 0.66 3 1 C3.33 2.65 3.66 4.3 4 6 C4.99 6.33 5.98 6.66 7 7 C5.8125 8.5625 5.8125 8.5625 4 10 C1.3125 9.6875 1.3125 9.6875 -1 9 C-1.09765625 2.84765625 -1.09765625 2.84765625 -1 1 C-0.67 0.67 -0.34 0.34 0 0 Z " fill="#224492" transform="translate(288,130)"/>
<path d="M0 0 C0.66 0.66 1.32 1.32 2 2 C1.01 2 0.02 2 -1 2 C-5.92069723 3.23017431 -10.39092089 4.93061754 -15 7 C-15 4 -15 4 -13.125 1.8125 C-8.84265211 -0.67126178 -4.86259591 -0.74014734 0 0 Z " fill="#234086" transform="translate(518,116)"/>
<path d="M0 0 C2.49361571 1.20381448 4.68143083 2.45428722 7 4 C7 4.66 7 5.32 7 6 C7.66 6 8.32 6 9 6 C8.67 6.66 8.34 7.32 8 8 C5.9375 8.625 5.9375 8.625 4 9 C4 8.34 4 7.68 4 7 C2.35 7 0.7 7 -1 7 C-0.67 4.69 -0.34 2.38 0 0 Z " fill="#234393" transform="translate(261,132)"/>
<path d="M0 0 C6.09853407 0.12705279 8.9274445 2.15424501 13.3984375 6.2109375 C15 8 15 8 16 11 C14.125 10.6875 14.125 10.6875 12 10 C11.34 9.01 10.68 8.02 10 7 C9.01 7.495 9.01 7.495 8 8 C7.608125 7.21625 7.21625 6.4325 6.8125 5.625 C4.75725331 2.64843582 3.40320742 2.01176437 0 1 C0 0.67 0 0.34 0 0 Z " fill="#DC5052" transform="translate(44,15)"/>
<path d="M0 0 C0.99 0 1.98 0 3 0 C3 2.31 3 4.62 3 7 C-2.625 8.125 -2.625 8.125 -6 7 C-6 6.34 -6 5.68 -6 5 C-4.34467377 3.98133771 -2.67739862 2.98189187 -1 2 C-0.67 1.34 -0.34 0.68 0 0 Z " fill="#254592" transform="translate(640,124)"/>
<path d="M0 0 C-0.99 0 -1.98 0 -3 0 C-3 0.66 -3 1.32 -3 2 C0.46941546 1.54177532 3.67395049 1.10868317 7 0 C7.66 0.66 8.32 1.32 9 2 C5.33237392 4.34728069 2.28301385 4.4430704 -2 4 C-5.4375 2.0625 -5.4375 2.0625 -8 0 C-8 -0.33 -8 -0.66 -8 -1 C-3.375 -2.25 -3.375 -2.25 0 0 Z " fill="#243D7B" transform="translate(550,139)"/>
<path d="M0 0 C1.31767252 2.63534505 0.75847597 3.54582527 -0.125 6.3125 C-1.6032839 10.56941013 -3.56871018 13.02019568 -7 16 C-7.33 16.66 -7.66 17.32 -8 18 C-8.66 18 -9.32 18 -10 18 C-8.47146065 13.72813475 -6.28490519 10.00673137 -3.875 6.1875 C-3.50246094 5.59001953 -3.12992187 4.99253906 -2.74609375 4.37695312 C-1.8342952 2.91573749 -0.91764024 1.45755415 0 0 Z " fill="#263A74" transform="translate(117,41)"/>
<path d="M0 0 C0.66 0 1.32 0 2 0 C0.3003494 4.73474097 -2.13659027 8.96167111 -4.625 13.3125 C-5.04523438 14.05306641 -5.46546875 14.79363281 -5.8984375 15.55664062 C-6.92948495 17.37269011 -7.96436046 19.18656533 -9 21 C-9.5859375 19.12109375 -9.5859375 19.12109375 -10 17 C-9.03542166 15.64082143 -8.03145371 14.30915279 -7 13 C-6.835 12.13375 -6.67 11.2675 -6.5 10.375 C-6 8 -6 8 -3 6 C-1.93753473 4.03247172 -0.92862192 2.03412421 0 0 Z " fill="#2A3E79" transform="translate(185,27)"/>
<path d="M0 0 C-0.66 1.65 -1.32 3.3 -2 5 C-2.66 5 -3.32 5 -4 5 C-2.73053486 9.82442184 -2.73053486 9.82442184 1 13 C2.65549531 13.38499891 4.3222433 13.72793135 6 14 C6 14.33 6 14.66 6 15 C2.32823991 15.34155908 0.41971069 15.24249951 -2.8125 13.375 C-5.46587009 10.49419818 -5.91901526 8.8872673 -6 5 C-4.8148363 1.62684179 -3.77725897 0 0 0 Z " fill="#273C73" transform="translate(393,128)"/>
<path d="M0 0 C1.258125 -0.020625 2.51625 -0.04125 3.8125 -0.0625 C4.52019531 -0.07410156 5.22789062 -0.08570312 5.95703125 -0.09765625 C8 0 8 0 11 1 C11.6875 3.0625 11.6875 3.0625 12 5 C10.68 5.99 9.36 6.98 8 8 C7.67 7.01 7.34 6.02 7 5 C7.33 4.34 7.66 3.68 8 3 C6.02 3.33 4.04 3.66 2 4 C2 3.34 2 2.68 2 2 C1.34 1.34 0.68 0.68 0 0 Z " fill="#214192" transform="translate(267,117)"/>
<path d="M0 0 C0.66 0 1.32 0 2 0 C3.02826931 3.13667908 2.99386675 4.83184742 1.78515625 7.890625 C1.51123047 8.59960938 1.23730469 9.30859375 0.95507812 10.0390625 C0.66052734 10.76867187 0.36597656 11.49828125 0.0625 12.25 C-0.37352539 13.36761719 -0.37352539 13.36761719 -0.81835938 14.5078125 C-1.53573722 16.34241814 -2.26657439 18.17175065 -3 20 C-4.50623915 14.87429065 -3.42001821 10.07149362 -2 5 C-1.34 5 -0.68 5 0 5 C0 3.35 0 1.7 0 0 Z " fill="#1F3982" transform="translate(181,109)"/>
<path d="M0 0 C0.66 0 1.32 0 2 0 C0.40376856 4.39383706 -1.78024333 8.28995807 -4.125 12.3125 C-4.49753906 12.95767578 -4.87007812 13.60285156 -5.25390625 14.26757812 C-6.16632213 15.84675945 -7.08275509 17.42361864 -8 19 C-9 16 -9 16 -8.3984375 14.23828125 C-2.59616627 3.32026707 -2.59616627 3.32026707 0 0 Z " fill="#283C75" transform="translate(163,65)"/>
<path d="M0 0 C0.33 1.32 0.66 2.64 1 4 C-2.69541586 4.95024979 -5.30458414 4.95024979 -9 4 C-9 3.01 -9 2.02 -9 1 C-6.04335481 -0.4783226 -3.25770263 -0.06032783 0 0 Z " fill="#204291" transform="translate(661,137)"/>
<path d="M0 0 C0.66 0.33 1.32 0.66 2 1 C1.0919838 2.13199353 0.17316174 3.25532363 -0.75 4.375 C-1.26046875 5.00148437 -1.7709375 5.62796875 -2.296875 6.2734375 C-4.88905581 8.90129053 -6.88364049 9.91542731 -10.578125 10.1953125 C-11.45984375 10.17210937 -12.3415625 10.14890625 -13.25 10.125 C-14.14203125 10.10695312 -15.0340625 10.08890625 -15.953125 10.0703125 C-16.96632813 10.03550781 -16.96632813 10.03550781 -18 10 C-18 9.67 -18 9.34 -18 9 C-16.71802734 8.81824219 -16.71802734 8.81824219 -15.41015625 8.6328125 C-14.30542969 8.46523437 -13.20070313 8.29765625 -12.0625 8.125 C-10.96035156 7.96257812 -9.85820313 7.80015625 -8.72265625 7.6328125 C-7.37494141 7.31957031 -7.37494141 7.31957031 -6 7 C-5.67 6.34 -5.34 5.68 -5 5 C-4.34 4.67 -3.68 4.34 -3 4 C-2.67 3.01 -2.34 2.02 -2 1 C-1.34 0.67 -0.68 0.34 0 0 Z " fill="#293A6F" transform="translate(106,161)"/>
<path d="M0 0 C0 0.99 0 1.98 0 3 C-0.61875 2.79375 -1.2375 2.5875 -1.875 2.375 C-2.57625 2.25125 -3.2775 2.1275 -4 2 C-7.02093215 5.02093215 -6.46676834 8.56372072 -6.625 12.625 C-6.66367187 13.42679688 -6.70234375 14.22859375 -6.7421875 15.0546875 C-6.83653931 17.03607556 -6.91936215 19.01800645 -7 21 C-7.66 20.67 -8.32 20.34 -9 20 C-9.08069658 17.04112541 -9.14034665 14.0844341 -9.1875 11.125 C-9.21263672 10.28324219 -9.23777344 9.44148437 -9.26367188 8.57421875 C-9.27333984 7.76855469 -9.28300781 6.96289062 -9.29296875 6.1328125 C-9.3086792 5.38918457 -9.32438965 4.64555664 -9.34057617 3.87939453 C-9.22818604 3.25919434 -9.1157959 2.63899414 -9 2 C-5.5647952 -0.29013653 -4.014669 -0.17842973 0 0 Z " fill="#253A77" transform="translate(582,121)"/>
<path d="M0 0 C0.33 0 0.66 0 1 0 C1.02684312 2.81256281 1.04676188 5.62487241 1.0625 8.4375 C1.07087891 9.23994141 1.07925781 10.04238281 1.08789062 10.86914062 C1.0965143 12.91295221 1.0522815 14.95683902 1 17 C0 18 0 18 -3.5625 18.0625 C-4.696875 18.041875 -5.83125 18.02125 -7 18 C-7 17.34 -7 16.68 -7 16 C-5.35 15.67 -3.7 15.34 -2 15 C-0.9458482 11.83754459 -0.68724328 9.13051782 -0.4375 5.8125 C-0.35371094 4.72582031 -0.26992187 3.63914062 -0.18359375 2.51953125 C-0.12300781 1.68808594 -0.06242188 0.85664062 0 0 Z " fill="#0E1E7A" transform="translate(255,124)"/>
<path d="M0 0 C2.64 0.33 5.28 0.66 8 1 C7.34 2.65 6.68 4.3 6 6 C5.01 6 4.02 6 3 6 C3 5.34 3 4.68 3 4 C1.35 4 -0.3 4 -2 4 C-1.34 2.68 -0.68 1.36 0 0 Z " fill="#213C7D" transform="translate(555,133)"/>
<path d="M0 0 C0.33 0 0.66 0 1 0 C1.33 6.93 1.66 13.86 2 21 C-0.31 21 -2.62 21 -5 21 C-5.33 20.34 -5.66 19.68 -6 19 C-4.35 18.67 -2.7 18.34 -1 18 C-0.505 9.09 -0.505 9.09 0 0 Z " fill="#233A77" transform="translate(307,121)"/>
<path d="M0 0 C4.01922848 -0.31523361 6.35183346 -0.38044558 9.875 1.6875 C12.19628348 4.21360261 12.71897086 5.62765029 13 9 C12.67 8.34 12.34 7.68 12 7 C11.34 7 10.68 7 10 7 C9.608125 6.566875 9.21625 6.13375 8.8125 5.6875 C6.1874619 3.24349901 3.32711134 2.3182894 0 1 C0 0.67 0 0.34 0 0 Z " fill="#223E76" transform="translate(483,107)"/>
<path d="M0 0 C0.66 0 1.32 0 2 0 C0.56691865 3.95906817 -1.33141949 7.28718181 -3.625 10.8125 C-4.57246094 12.27623047 -4.57246094 12.27623047 -5.5390625 13.76953125 C-6.02117187 14.50558594 -6.50328125 15.24164063 -7 16 C-7.7945524 13.69274206 -8.15994803 12.4491564 -7.328125 10.11328125 C-6.97234375 9.51902344 -6.6165625 8.92476562 -6.25 8.3125 C-5.90453125 7.71050781 -5.5590625 7.10851562 -5.203125 6.48828125 C-4 5 -4 5 -1 4 C-0.26676204 1.98491642 -0.26676204 1.98491642 0 0 Z " fill="#253A71" transform="translate(116,145)"/>
<path d="M0 0 C0.99 0.33 1.98 0.66 3 1 C2.34644531 1.39058594 1.69289063 1.78117187 1.01953125 2.18359375 C-1.22453113 3.82698218 -1.22453113 3.82698218 -1.42578125 6.41015625 C-1.38839844 7.28542969 -1.35101563 8.16070312 -1.3125 9.0625 C-1.28800781 9.94035156 -1.26351563 10.81820312 -1.23828125 11.72265625 C-1.13188776 14.02931501 -1.13188776 14.02931501 0 16 C-0.99 15.67 -1.98 15.34 -3 15 C-3 13.35 -3 11.7 -3 10 C-3.66 9.67 -4.32 9.34 -5 9 C-5 5.84012675 -4.61785127 4.63965207 -3 2 C-2.01 1.34 -1.02 0.68 0 0 Z " fill="#233B7C" transform="translate(511,120)"/>
<path d="M0 0 C0.98484375 0.02707031 1.9696875 0.05414063 2.984375 0.08203125 C3.73203125 0.11683594 4.4796875 0.15164062 5.25 0.1875 C5.25 0.5175 5.25 0.8475 5.25 1.1875 C4.57453125 1.21328125 3.8990625 1.2390625 3.203125 1.265625 C-2.50763932 1.53071728 -2.50763932 1.53071728 -7.375 4.25 C-7.82875 4.889375 -8.2825 5.52875 -8.75 6.1875 C-7.43 7.1775 -6.11 8.1675 -4.75 9.1875 C-7.06 8.8575 -9.37 8.5275 -11.75 8.1875 C-9.65399555 1.72481961 -6.76383093 -0.24156539 0 0 Z " fill="#263C77" transform="translate(197.75,115.8125)"/>
<path d="M0 0 C2.64 0.99 5.28 1.98 8 3 C8 3.66 8 4.32 8 5 C7.34 5 6.68 5 6 5 C6 5.66 6 6.32 6 7 C4.35 7 2.7 7 1 7 C-0.0625 4.625 -0.0625 4.625 -1 2 C-0.67 1.34 -0.34 0.68 0 0 Z " fill="#223D87" transform="translate(395,135)"/>
<path d="M0 0 C0.99 0 1.98 0 3 0 C1.6744419 3.62276315 0.05653045 6.63505348 -2.125 9.8125 C-2.66382812 10.60269531 -3.20265625 11.39289063 -3.7578125 12.20703125 C-4.37269531 13.09455078 -4.37269531 13.09455078 -5 14 C-5.671875 12.328125 -5.671875 12.328125 -6 10 C-4.890625 7.421875 -4.890625 7.421875 -3.25 4.75 C-2.71890625 3.85796875 -2.1878125 2.9659375 -1.640625 2.046875 C-1.09921875 1.37140625 -0.5578125 0.6959375 0 0 Z " fill="#253973" transform="translate(124,131)"/>
<path d="M0 0 C2 1.8125 2 1.8125 4 4 C4 4.99 4 5.98 4 7 C1.69 7.33 -0.62 7.66 -3 8 C-3.33 7.01 -3.66 6.02 -4 5 C-4.66 4.67 -5.32 4.34 -6 4 C-4.68 4 -3.36 4 -2 4 C-1.67 4.66 -1.34 5.32 -1 6 C-0.34 5.01 0.32 4.02 1 3 C0.67 2.01 0.34 1.02 0 0 Z " fill="#283E7A" transform="translate(520,118)"/>
<path d="M0 0 C0.86882812 -0.00515625 1.73765625 -0.0103125 2.6328125 -0.015625 C4.875 0.25 4.875 0.25 6.875 2.25 C6.13894531 2.20359375 5.40289062 2.1571875 4.64453125 2.109375 C-1.59747842 1.79894404 -1.59747842 1.79894404 -7.25 4.125 C-9.16034196 6.10698834 -9.16034196 6.10698834 -10.125 8.25 C-10.785 7.92 -11.445 7.59 -12.125 7.25 C-9.10833704 1.51834038 -6.45154302 -0.03851667 0 0 Z " fill="#233974" transform="translate(271.125,115.75)"/>
<path d="M0 0 C1.134375 0.020625 2.26875 0.04125 3.4375 0.0625 C1.9525 2.5375 1.9525 2.5375 0.4375 5.0625 C-1.2125 4.7325 -2.8625 4.4025 -4.5625 4.0625 C-4.5625 -0.28271095 -4.43767807 0.077854 0 0 Z " fill="#244294" transform="translate(607.5625,136.9375)"/>
<path d="M0 0 C0.66 0.33 1.32 0.66 2 1 C2 4.96 2 8.92 2 13 C1.34 13 0.68 13 0 13 C-1.49084832 8.52745503 -1.49084832 4.47254497 0 0 Z " fill="#223A79" transform="translate(501,123)"/>
<path d="M0 0 C0.103125 0.639375 0.20625 1.27875 0.3125 1.9375 C0.539375 2.618125 0.76625 3.29875 1 4 C1.99 4.33 2.98 4.66 4 5 C3.01 7.31 2.02 9.62 1 12 C0.34 11.67 -0.32 11.34 -1 11 C-2.425 3.6375 -2.425 3.6375 0 0 Z " fill="#284798" transform="translate(624,122)"/>
<path d="M0 0 C1.65 0 3.3 0 5 0 C5.95261487 4.76307437 6.08333357 9.1666528 6 14 C5.67 14 5.34 14 5 14 C4 10 3 6 2 2 C1.34 3.32 0.68 4.64 0 6 C-1.125 2.25 -1.125 2.25 0 0 Z " fill="#16368B" transform="translate(250,109)"/>
<path d="M0 0 C2.97 0 5.94 0 9 0 C12.125 7.625 12.125 7.625 11 11 C9.58622659 8.36095629 8.62759865 5.92879371 8 3 C5.23735711 2.40267181 2.83967231 2 0 2 C0 1.34 0 0.68 0 0 Z " fill="#233674" transform="translate(152,107)"/>
<path d="M0 0 C-6.625 3.875 -6.625 3.875 -10 5 C-10.33 5.99 -10.66 6.98 -11 8 C-11.66 7.01 -12.32 6.02 -13 5 C-9.25316241 0.83684713 -5.67827303 -2.10306409 0 0 Z " fill="#E35157" transform="translate(28,18)"/>
<path d="M0 0 C-3.22146298 2.76125398 -6.01462013 4.56935081 -10 6 C-11.34050052 6.65213539 -12.67661368 7.31379969 -14 8 C-10.14108395 2.71185579 -6.82297589 -0.58482651 0 0 Z " fill="#2B3F74" transform="translate(139,21)"/>
<path d="M0 0 C2 2 2 2 2 4 C1.34 4 0.68 4 0 4 C0.33 4.66 0.66 5.32 1 6 C1.039992 7.99960012 1.04346799 10.00047242 1 12 C0.67 11.01 0.34 10.02 0 9 C-0.99 8.67 -1.98 8.34 -3 8 C-2.67 6.35 -2.34 4.7 -2 3 C-1.34 3 -0.68 3 0 3 C0 2.01 0 1.02 0 0 Z " fill="#1E428C" transform="translate(417,113)"/>
<path d="M0 0 C0.99 0.33 1.98 0.66 3 1 C3 3.64 3 6.28 3 9 C2.01 9.33 1.02 9.66 0 10 C-0.19412181 8.52168779 -0.38012131 7.04230684 -0.5625 5.5625 C-0.66691406 4.73878906 -0.77132812 3.91507813 -0.87890625 3.06640625 C-0.91886719 2.38449219 -0.95882812 1.70257813 -1 1 C-0.67 0.67 -0.34 0.34 0 0 Z " fill="#244793" transform="translate(204,130)"/>
<path d="M0 0 C0.680625 -0.00515625 1.36125 -0.0103125 2.0625 -0.015625 C4 0.25 4 0.25 7 2.25 C7 2.91 7 3.57 7 4.25 C6.01 4.58 5.02 4.91 4 5.25 C3.34 4.26 2.68 3.27 2 2.25 C-1.60992379 2.90585189 -1.60992379 2.90585189 -5 4.25 C-5.66 3.59 -6.32 2.93 -7 2.25 C-4.00261059 0.25174039 -3.36652492 -0.02550398 0 0 Z " fill="#1E3D75" transform="translate(328,115.75)"/>
<path d="M0 0 C1.79206547 0.14084796 3.58364917 0.28783701 5.375 0.4375 C6.87160156 0.55931641 6.87160156 0.55931641 8.3984375 0.68359375 C11 1 11 1 13 2 C9.50875983 4.32749345 8.10777749 4.50299316 4 4 C1.625 2 1.625 2 0 0 Z " fill="#263C75" transform="translate(287,139)"/>
<path d="M0 0 C1.65 0 3.3 0 5 0 C5 0.66 5 1.32 5 2 C9.455 1.505 9.455 1.505 14 1 C13.67 1.66 13.34 2.32 13 3 C6.08641975 4.49794239 6.08641975 4.49794239 2 2.625 C1.34 2.08875 0.68 1.5525 0 1 C0 0.67 0 0.34 0 0 Z " fill="#253C79" transform="translate(260,139)"/>
<path d="M0 0 C0.99 0.33 1.98 0.66 3 1 C3 2.65 3 4.3 3 6 C3.66 6 4.32 6 5 6 C5.33 8.97 5.66 11.94 6 15 C4.19969878 12.29954818 3.06622934 9.93322119 1.875 6.9375 C1.52179688 6.05964844 1.16859375 5.18179688 0.8046875 4.27734375 C0 2 0 2 0 0 Z " fill="#213876" transform="translate(154,113)"/>
<path d="M0 0 C0.78375 0.04125 1.5675 0.0825 2.375 0.125 C2.705 1.445 3.035 2.765 3.375 4.125 C-0.39187864 4.125 -1.53690305 3.88962683 -4.625 2.125 C-2.625 0.125 -2.625 0.125 0 0 Z " fill="#244494" transform="translate(328.625,116.875)"/>
<path d="M0 0 C2.375 0.6875 2.375 0.6875 5 2 C6.125 4.4375 6.125 4.4375 7 7 C8.52007842 8.77277259 8.52007842 8.77277259 10 10 C5.28531599 8.78765268 3.52327801 6.41445146 0.91796875 2.55859375 C0 1 0 1 0 0 Z " fill="#263C72" transform="translate(77,160)"/>
<path d="M0 0 C0.66 0 1.32 0 2 0 C2 1.32 2 2.64 2 4 C3.32 4.66 4.64 5.32 6 6 C6 6.33 6 6.66 6 7 C4.02 7 2.04 7 0 7 C0 4.69 0 2.38 0 0 Z " fill="#1F4086" transform="translate(314,134)"/>
<path d="M0 0 C0.66 0.33 1.32 0.66 2 1 C1.67 2.32 1.34 3.64 1 5 C1 4.34 1 3.68 1 3 C0.34 3 -0.32 3 -1 3 C-0.67 5.64 -0.34 8.28 0 11 C-1.5625 9.875 -1.5625 9.875 -3 8 C-2.77669287 4.35265021 -2.61627165 2.61627165 0 0 Z " fill="#243E79" transform="translate(650,118)"/>
<path d="M0 0 C2.64 0 5.28 0 8 0 C8 0.33 8 0.66 8 1 C6.35 1 4.7 1 3 1 C3 1.99 3 2.98 3 4 C2.34 4 1.68 4 1 4 C0.67 4.66 0.34 5.32 0 6 C-0.66 5.67 -1.32 5.34 -2 5 C-1.34 3.35 -0.68 1.7 0 0 Z " fill="#214294" transform="translate(394,117)"/>
<path d="M0 0 C1 3 1 3 0.3125 5.4375 C-1.10279146 8.20068809 -2.70408875 9.93367987 -5 12 C-5 8.55639368 -4.20408468 7.25204608 -2.5 4.3125 C-2.0359375 3.50425781 -1.571875 2.69601563 -1.09375 1.86328125 C-0.7328125 1.24839844 -0.371875 0.63351563 0 0 Z " fill="#283F79" transform="translate(124,29)"/>
<path d="M0 0 C0.66 0 1.32 0 2 0 C1.71640113 1.4391134 1.42278601 2.87625518 1.125 4.3125 C0.88136719 5.51326172 0.88136719 5.51326172 0.6328125 6.73828125 C0 9 0 9 -2 12 C-3.12377697 8.69564916 -2.89554742 6.9493138 -1.5625 3.75 C-1.27503906 3.04359375 -0.98757812 2.3371875 -0.69140625 1.609375 C-0.46324219 1.07828125 -0.23507813 0.5471875 0 0 Z " fill="#1F3777" transform="translate(175,129)"/>
<path d="M0 0 C0.66 0.99 1.32 1.98 2 3 C1.01 4.485 1.01 4.485 0 6 C-0.24107326 8.28648848 -0.24107326 8.28648848 -0.125 10.6875 C-0.10695313 11.49574219 -0.08890625 12.30398437 -0.0703125 13.13671875 C-0.04710937 13.75160156 -0.02390625 14.36648437 0 15 C-2 13 -2 13 -2.265625 10.9765625 C-2.26046875 10.20054687 -2.2553125 9.42453125 -2.25 8.625 C-2.25515625 7.85414063 -2.2603125 7.08328125 -2.265625 6.2890625 C-1.97688045 3.8007639 -1.24139229 2.15765802 0 0 Z " fill="#1E3576" transform="translate(541,121)"/>
<path d="M0 0 C0.66 0 1.32 0 2 0 C2 1.98 2 3.96 2 6 C2.99 6.33 3.98 6.66 5 7 C2.69 6.67 0.38 6.34 -2 6 C-1.34 4.02 -0.68 2.04 0 0 Z " fill="#253B75" transform="translate(432,118)"/>
<path d="M0 0 C0.66 0.33 1.32 0.66 2 1 C1.58427734 1.77923828 1.58427734 1.77923828 1.16015625 2.57421875 C-0.80733267 6.36216005 -2.46337389 9.70699113 -3 14 C-3.33 14 -3.66 14 -4 14 C-3.91231752 12.4156683 -3.80412671 10.83246433 -3.6875 9.25 C-3.60048828 7.92742187 -3.60048828 7.92742187 -3.51171875 6.578125 C-2.9358819 3.67696226 -1.92403852 2.20774393 0 0 Z " fill="#243773" transform="translate(234,118)"/>
<path d="M0 0 C1 2 1 2 0.9375 4.375 C-0.38361077 8.07411016 -2.67803906 9.09163946 -6 11 C-4.54955729 6.89041233 -2.48889248 3.56741255 0 0 Z " fill="#263E78" transform="translate(96,76)"/>
<path d="M0 0 C-0.33 1.32 -0.66 2.64 -1 4 C-1.66 4 -2.32 4 -3 4 C-3 3.34 -3 2.68 -3 2 C-6.63 2 -10.26 2 -14 2 C-14 1.67 -14 1.34 -14 1 C-12.41693353 0.83081732 -10.83353281 0.66476064 -9.25 0.5 C-8.36828125 0.4071875 -7.4865625 0.314375 -6.578125 0.21875 C-4 0 -4 0 0 0 Z " fill="#253A75" transform="translate(183,16)"/>
<path d="M0 0 C0.886875 -0.01417969 1.77375 -0.02835937 2.6875 -0.04296875 C5 0.1875 5 0.1875 7 2.1875 C5.35399979 2.1875 3.70741739 2.17688208 2.0625 2.1171875 C1.381875 2.09914063 0.70125 2.08109375 0 2.0625 C-0.680625 2.03929688 -1.36125 2.01609375 -2.0625 1.9921875 C-4.32785038 2.06774192 -4.32785038 2.06774192 -7 4.1875 C-7 3.1975 -7 2.2075 -7 1.1875 C-4.52224905 -0.05137548 -2.76346293 0.02008331 0 0 Z " fill="#203475" transform="translate(513,115.8125)"/>
<path d="M0 0 C-2.65197185 2.65197185 -5.55356766 3.584501 -9 5 C-9.99 5.495 -9.99 5.495 -11 6 C-8.60159776 0.46522561 -5.82500047 -0.25888891 0 0 Z " fill="#243A6F" transform="translate(482,107)"/>
<path d="M0 0 C0.2475 0.639375 0.495 1.27875 0.75 1.9375 C1.81562433 4.18741541 1.81562433 4.18741541 4.125 4.75 C4.74375 4.8325 5.3625 4.915 6 5 C6.33 6.32 6.66 7.64 7 9 C1.21538462 5.67692308 1.21538462 5.67692308 0.125 2.25 C0.08375 1.5075 0.0425 0.765 0 0 Z " fill="#D74F56" transform="translate(16,54)"/>
<path d="M0 0 C4 0 4 0 6 1 C4.68 3.31 3.36 5.62 2 8 C1.10869587 5.3260876 0.52268466 2.76276177 0 0 Z " fill="#233671" transform="translate(145,90)"/>
<path d="M0 0 C1.98 0.99 1.98 0.99 4 2 C4 1.34 4 0.68 4 0 C4.66 0.33 5.32 0.66 6 1 C6.625 3.0625 6.625 3.0625 7 5 C4.625 4.75 4.625 4.75 2 4 C0.6875 1.9375 0.6875 1.9375 0 0 Z " fill="#223B7E" transform="translate(623,137)"/>
<path d="M0 0 C1.32 0 2.64 0 4 0 C4 1.65 4 3.3 4 5 C2.68 5 1.36 5 0 5 C0 3.35 0 1.7 0 0 Z " fill="#24418B" transform="translate(519,133)"/>
<path d="M0 0 C0.99 0 1.98 0 3 0 C3 1.65 3 3.3 3 5 C2.01 5.33 1.02 5.66 0 6 C-0.66 5.34 -1.32 4.68 -2 4 C-1.34 2.68 -0.68 1.36 0 0 Z " fill="#274696" transform="translate(204,121)"/>
<path d="M0 0 C-0.25 1.875 -0.25 1.875 -1 4 C-3.0625 5.25 -3.0625 5.25 -5 6 C-5 4.68 -5 3.36 -5 2 C-2 0 -2 0 0 0 Z " fill="#203B7B" transform="translate(204,121)"/>
<path d="M0 0 C1.32 0.66 2.64 1.32 4 2 C0.98131566 3.50934217 -1.67297229 3.17510672 -5 3 C-5.99 2.34 -6.98 1.68 -8 1 C-6.865625 1.020625 -5.73125 1.04125 -4.5625 1.0625 C-1.18424326 1.41577477 -1.18424326 1.41577477 0 0 Z " fill="#1F3C72" transform="translate(609,140)"/>
<path d="M0 0 C1.2380014 3.57644848 0.74926071 6.33694766 0 10 C-0.66 9.34 -1.32 8.68 -2 8 C-1.42307692 1.42307692 -1.42307692 1.42307692 0 0 Z " fill="#203765" transform="translate(431,129)"/>
</svg>
