<?xml version="1.0" encoding="UTF-8"?>
<svg version="1.1" xmlns="http://www.w3.org/2000/svg" width="557" height="174">
<path d="M0 0 C1.1191944 3.02330342 1.20387227 4.48230302 0.01586914 7.49902344 C-0.49339111 8.36043945 -1.00265137 9.22185547 -1.52734375 10.109375 C-2.08663574 11.07294922 -2.64592773 12.03652344 -3.22216797 13.02929688 C-3.80885254 14.00962891 -4.39553711 14.98996094 -5 16 C-6.06414899 17.8383409 -7.12795366 19.67688116 -8.19140625 21.515625 C-9.31399223 23.42773658 -10.43773139 25.33917151 -11.5625 27.25 C-16.27837426 35.29502117 -20.9309564 43.37070823 -25.5 51.5 C-30.49455238 60.38359721 -35.59559926 69.19948867 -40.75415039 77.98876953 C-43.72363623 83.05931058 -46.65746811 88.14575634 -49.52734375 93.2734375 C-50.10033203 94.29695313 -50.67332031 95.32046875 -51.26367188 96.375 C-52.33882462 98.30199488 -53.40952583 100.23148398 -54.47460938 102.1640625 C-57.47196665 107.53809232 -60.72190674 112.58979246 -64.30200195 117.59375 C-67.37505933 121.94861031 -70.1733771 126.48368212 -72.9921875 131.00585938 C-76.88534498 137.13087007 -80.90551509 142.54421676 -88 145 C-93.11656769 145.40221647 -96.44544482 144.64891949 -100.44921875 141.41015625 C-104.09462826 138.11653536 -106.73736819 134.49671525 -109.375 130.375 C-109.86758301 129.62226807 -110.36016602 128.86953613 -110.86767578 128.09399414 C-116.45389632 119.46593257 -121.75176534 110.65037753 -127.03662109 101.83544922 C-130.48274598 96.09392683 -133.99754117 90.43315063 -137.75341797 84.88842773 C-139.36896632 82.44105866 -140.76613665 79.90987024 -142.125 77.3125 C-143.75559948 74.2363031 -145.39959858 71.32224836 -147.4375 68.5 C-148.2109375 67.2625 -148.2109375 67.2625 -149 66 C-148.67 65.01 -148.34 64.02 -148 63 C-146.35 63.66 -144.7 64.32 -143 65 C-143 65.66 -143 66.32 -143 67 C-142.34 67.226875 -141.68 67.45375 -141 67.6875 C-138.45328005 68.80168998 -136.42834204 69.98086974 -134.125 71.5 C-126.28184154 76.42376059 -118.10407294 77.00932072 -109 76 C-101.65755367 73.53354516 -96.96590039 70.19024763 -93.4375 63.3125 C-90.96100285 58.66831097 -88.31011144 54.19549493 -85.5 49.75 C-80.60266338 41.99984593 -75.83069764 34.17742744 -71.0859375 26.33300781 C-69.96282427 24.48038974 -68.83346693 22.63154196 -67.69775391 20.78662109 C-66.53826354 18.8834829 -65.40615714 16.96345879 -64.29833984 15.02978516 C-60.77707614 9.07325497 -57.68464369 4.41854319 -51 2 C-46.89425746 1.08641099 -42.81234163 0.66580791 -38.625 0.3125 C-36.30855298 0.08765926 -33.99214685 -0.13760324 -31.67578125 -0.36328125 C-30.54350098 -0.46721191 -29.4112207 -0.57114258 -28.24462891 -0.67822266 C-25.33115794 -0.9671583 -22.4419594 -1.32377386 -19.54296875 -1.73046875 C-18.73456543 -1.83979736 -17.92616211 -1.94912598 -17.09326172 -2.06176758 C-15.62558054 -2.26333415 -14.15949083 -2.47705622 -12.69580078 -2.70581055 C-7.48718541 -3.37399162 -4.41606691 -2.65974043 0 0 Z " fill="#284793" transform="translate(183,17)"/>
<path d="M0 0 C6.500395 4.40421273 10.67905264 9.51072986 12.52734375 17.19140625 C13.65795313 24.49590505 12.6455826 31.03902375 8.4375 37.1875 C4.28960282 42.28319678 -1.40081861 46.84357202 -8 48 C-17.32779782 48.89605617 -23.51001464 46.93575966 -31.25 41.875 C-36.71422008 36.16240628 -39.28807854 30.43637225 -39.625 22.5 C-39.24777161 14.06199646 -36.33595026 7.89284035 -30.25 2.0625 C-20.78336412 -5.49654635 -10.49022943 -5.56523909 0 0 Z " fill="#F65252" transform="translate(53,15)"/>
<path d="M0 0 C6.68178223 3.78170314 6.68178223 3.78170314 8 8 C8 9.32 8 10.64 8 12 C2.79714186 13.14639247 2.79714186 13.14639247 0 13 C-2.625 10.5625 -2.625 10.5625 -5 8 C-8.87440468 7.44651362 -11.78044012 7.70031437 -15 10 C-17.74933795 14.46397883 -17.51098906 18.91483467 -17 24 C-16.15163476 27.05649286 -16.15163476 27.05649286 -14 29 C-10.11023628 30.68801067 -7.80498084 31.14907053 -3.625 30.375 C-0.84875928 29.2789636 -0.84875928 29.2789636 -0.125 26.875 C-0.08375 26.25625 -0.0425 25.6375 0 25 C-2.64 25 -5.28 25 -8 25 C-8 22.36 -8 19.72 -8 17 C-5.35409986 16.97315321 -2.70846904 16.95323643 -0.0625 16.9375 C0.69224609 16.92912109 1.44699219 16.92074219 2.22460938 16.91210938 C4.14994313 16.90347559 6.07535581 16.94775667 8 17 C9 18 9 18 9.09765625 21.59765625 C9.0909822 23.08596867 9.07902183 24.57426432 9.0625 26.0625 C9.05798828 26.82111328 9.05347656 27.57972656 9.04882812 28.36132812 C9.0370068 30.24091871 9.01907078 32.12046899 9 34 C1.51602884 38.46159819 -4.17651413 39.85546262 -13 39 C-18.63164461 37.42617339 -21.91835593 34.51070572 -25.08984375 29.68359375 C-28.07936275 24.15362513 -27.82767368 17.43721809 -26.38671875 11.453125 C-24.55714414 6.64948416 -22.17520791 3.28676531 -17.61328125 0.8125 C-11.92573592 -0.95582501 -5.84347432 -0.92298886 0 0 Z " fill="#25428A" transform="translate(408,81)"/>
<path d="M0 0 C2.64 0 5.28 0 8 0 C8 12.54 8 25.08 8 38 C4.66666667 38 1.33333333 38 -2 38 C-2.99 38.495 -2.99 38.495 -4 39 C-11.0505676 39.57791538 -11.0505676 39.57791538 -14.875 37.25 C-18.71696777 33.18203412 -19.2931646 30.13753891 -19.3125 24.5625 C-19.32925781 23.45003906 -19.34601563 22.33757812 -19.36328125 21.19140625 C-18.87275662 16.88217376 -17.22781663 14.31876601 -14.3125 11.1875 C-10.76831923 9.36751528 -7.96893726 9.74800398 -4 10 C-3.01 10.33 -2.02 10.66 -1 11 C-0.67 7.37 -0.34 3.74 0 0 Z M-9.1875 17.5 C-11.41059599 20.56633929 -11.52759378 22.3903245 -11.3203125 26.09375 C-10.86058039 28.82971673 -10.14223357 30.22711704 -8 32 C-5.5 32.66666667 -5.5 32.66666667 -3 32 C-0.28961566 29.66346177 -0.01588856 28.1248387 0.4375 24.5625 C-0.0679529 20.44666926 -1.00668107 18.82227213 -4 16 C-7.02970006 15.71723582 -7.02970006 15.71723582 -9.1875 17.5 Z " fill="#25428B" transform="translate(264,81)"/>
<path d="M0 0 C2.64 0 5.28 0 8 0 C8.33 3.63 8.66 7.26 9 11 C9.99 10.67 10.98 10.34 12 10 C16.98758297 9.63054941 20.04959346 9.81772807 24 13 C27.90578544 18.43783687 27.78005785 23.51951936 27 30 C25.81336541 33.52947725 24.14917181 36.08858788 21.1875 38.4375 C16.70681349 39.58967653 13.20817309 39.61693945 9.0625 37.5 C8.381875 37.005 7.70125 36.51 7 36 C7 36.66 7 37.32 7 38 C4.69 38 2.38 38 0 38 C0 25.46 0 12.92 0 0 Z M9.8125 17.5 C7.58940401 20.56633929 7.47240622 22.3903245 7.6796875 26.09375 C8.13941961 28.82971673 8.85776643 30.22711704 11 32 C13.5 32.75 13.5 32.75 16 32 C18.25906051 29.3514463 18.93615418 27.43779993 19.4375 24 C18.89154771 20.25632712 17.6929374 18.61599633 15 16 C11.97029994 15.71723582 11.97029994 15.71723582 9.8125 17.5 Z " fill="#24438C" transform="translate(469,81)"/>
<path d="M0 0 C3.3 0 6.6 0 10 0 C12.64 7.92 15.28 15.84 18 24 C19.48451529 21.03096942 20.65089357 18.34186302 21.7265625 15.234375 C22.190625 13.90019531 22.190625 13.90019531 22.6640625 12.5390625 C22.98117188 11.61867188 23.29828125 10.69828125 23.625 9.75 C23.94984375 8.81414062 24.2746875 7.87828125 24.609375 6.9140625 C25.4086697 4.61021307 26.20465765 2.30521686 27 0 C29.97 0 32.94 0 36 0 C35.36595373 4.6617625 34.12170778 8.92321307 32.53125 13.33203125 C32.29088013 14.00924728 32.05051025 14.68646332 31.80285645 15.38420105 C31.29755907 16.80443238 30.78983043 18.22380084 30.27978516 19.64233398 C29.49684368 21.82128412 28.72247476 24.00314319 27.94921875 26.18554688 C27.45622834 27.56788646 26.96275598 28.95005428 26.46875 30.33203125 C26.23643677 30.9861348 26.00412354 31.64023834 25.76477051 32.31416321 C24.1158216 36.8841784 24.1158216 36.8841784 23 38 C21.31391034 38.07205511 19.62499341 38.08386068 17.9375 38.0625 C17.01839844 38.05347656 16.09929687 38.04445312 15.15234375 38.03515625 C14.44207031 38.02355469 13.73179687 38.01195312 13 38 C11.63016175 34.03496189 10.2609674 30.06970215 8.89233398 26.10424805 C8.42798676 24.75913692 7.96347266 23.41408339 7.4987793 22.0690918 C4.96154402 14.72503833 2.43767746 7.37782114 0 0 Z " fill="#25428C" transform="translate(158,81)"/>
<path d="M0 0 C2.39369357 2.15432421 2.80503257 3.88324898 3.08032227 7.04760742 C3.11697998 7.95357666 3.1536377 8.8595459 3.19140625 9.79296875 C3.23330078 10.77587891 3.27519531 11.75878906 3.31835938 12.77148438 C3.35767578 13.79564453 3.39699219 14.81980469 3.4375 15.875 C3.48068359 16.91076172 3.52386719 17.94652344 3.56835938 19.01367188 C3.67444366 21.5714819 3.77650146 24.12938845 3.875 26.6875 C0.54166667 26.6875 -2.79166667 26.6875 -6.125 26.6875 C-6.785 27.0175 -7.445 27.3475 -8.125 27.6875 C-12.89735191 28.34381559 -16.12451847 28.36129368 -20.1875 25.625 C-22.617403 21.94095351 -22.83430433 20.02213758 -22.125 15.6875 C-19.08214192 11.71631234 -16.18845661 10.90019132 -11.375 9.9375 C-10.20453125 9.69515625 -9.0340625 9.4528125 -7.828125 9.203125 C-6.93609375 9.03296875 -6.0440625 8.8628125 -5.125 8.6875 C-5.785 7.6975 -6.445 6.7075 -7.125 5.6875 C-10.20865871 5.4372843 -10.20865871 5.4372843 -13.125 5.6875 C-13.455 6.6775 -13.785 7.6675 -14.125 8.6875 C-16.435 8.3575 -18.745 8.0275 -21.125 7.6875 C-20.6297783 4.02285945 -20.1041794 1.97917646 -17.125 -0.3125 C-11.60253874 -2.15332042 -5.38128318 -2.26013894 0 0 Z M-13.125 16.6875 C-13.455 17.3475 -13.785 18.0075 -14.125 18.6875 C-13.135 20.1725 -13.135 20.1725 -12.125 21.6875 C-8.19424356 21.11297254 -8.19424356 21.11297254 -5.125 18.6875 C-5.125 17.3675 -5.125 16.0475 -5.125 14.6875 C-8.36361295 14.6875 -10.22240189 15.3125851 -13.125 16.6875 Z " fill="#24418A" transform="translate(521.125,92.3125)"/>
<path d="M0 0 C2.39369357 2.15432421 2.80503257 3.88324898 3.08032227 7.04760742 C3.11697998 7.95357666 3.1536377 8.8595459 3.19140625 9.79296875 C3.23330078 10.77587891 3.27519531 11.75878906 3.31835938 12.77148438 C3.35767578 13.79564453 3.39699219 14.81980469 3.4375 15.875 C3.48068359 16.91076172 3.52386719 17.94652344 3.56835938 19.01367188 C3.67444366 21.5714819 3.77650146 24.12938845 3.875 26.6875 C0.54166667 26.6875 -2.79166667 26.6875 -6.125 26.6875 C-6.785 27.0175 -7.445 27.3475 -8.125 27.6875 C-12.37892777 28.18844516 -15.92986114 28.43446179 -19.625 26.125 C-21.60042107 22.91494076 -21.99098253 20.43998912 -22.125 16.6875 C-21.5390625 14.609375 -21.5390625 14.609375 -20.125 12.6875 C-17.15625 11.421875 -17.15625 11.421875 -13.625 10.4375 C-12.4596875 10.10234375 -11.294375 9.7671875 -10.09375 9.421875 C-7.125 8.6875 -7.125 8.6875 -5.125 8.6875 C-5.785 7.6975 -6.445 6.7075 -7.125 5.6875 C-10.20865871 5.4372843 -10.20865871 5.4372843 -13.125 5.6875 C-13.455 6.6775 -13.785 7.6675 -14.125 8.6875 C-16.435 8.3575 -18.745 8.0275 -21.125 7.6875 C-20.6297783 4.02285945 -20.1041794 1.97917646 -17.125 -0.3125 C-11.60253874 -2.15332042 -5.38128318 -2.26013894 0 0 Z M-13.125 16.6875 C-13.125 18.0075 -13.125 19.3275 -13.125 20.6875 C-10.77966049 21.45706136 -10.77966049 21.45706136 -8.125 21.6875 C-6.20833333 20.60416667 -6.20833333 20.60416667 -5.125 18.6875 C-5.125 17.3675 -5.125 16.0475 -5.125 14.6875 C-8.32895416 14.6875 -10.21899739 15.43085022 -13.125 16.6875 Z " fill="#25438C" transform="translate(217.125,92.3125)"/>
<path d="M0 0 C2.29114062 1.9856552 2.81561123 2.94863182 3.08032227 5.96337891 C3.11697998 6.91647949 3.1536377 7.86958008 3.19140625 8.8515625 C3.23330078 9.8828125 3.27519531 10.9140625 3.31835938 11.9765625 C3.35767578 13.05679688 3.39699219 14.13703125 3.4375 15.25 C3.48068359 16.33796875 3.52386719 17.4259375 3.56835938 18.546875 C3.6746453 21.2394517 3.77668057 23.93212253 3.875 26.625 C0.54166667 26.625 -2.79166667 26.625 -6.125 26.625 C-6.785 26.955 -7.445 27.285 -8.125 27.625 C-12.37892777 28.12594516 -15.92986114 28.37196179 -19.625 26.0625 C-21.64355692 22.78234501 -22.125 20.4772557 -22.125 16.625 C-20.03861122 13.17522846 -18.72390791 11.83693239 -14.890625 10.48046875 C-13.73046875 10.26003906 -12.5703125 10.03960937 -11.375 9.8125 C-10.20453125 9.57917969 -9.0340625 9.34585938 -7.828125 9.10546875 C-6.93609375 8.94691406 -6.0440625 8.78835937 -5.125 8.625 C-5.785 7.635 -6.445 6.645 -7.125 5.625 C-9.72178151 6.05779692 -11.81685241 6.45166698 -14.125 7.75 C-16.77477777 8.90927778 -18.39437322 8.38350744 -21.125 7.625 C-20.6297783 3.96035945 -20.1041794 1.91667646 -17.125 -0.375 C-11.59669059 -2.2177698 -5.35265359 -2.35516758 0 0 Z M-13.125 16.625 C-13.125 17.945 -13.125 19.265 -13.125 20.625 C-10.77966049 21.39456136 -10.77966049 21.39456136 -8.125 21.625 C-6.20833333 20.54166667 -6.20833333 20.54166667 -5.125 18.625 C-5.125 17.305 -5.125 15.985 -5.125 14.625 C-8.32895416 14.625 -10.21899739 15.36835022 -13.125 16.625 Z " fill="#244390" transform="translate(327.125,92.375)"/>
<path d="M0 0 C3.95316505 3.37181725 6.23954857 5.98432324 7.0625 11.1875 C7.37300845 15.73909949 6.46467764 18.83504801 4.125 22.8125 C-0.72563738 27.30821269 -3.86827167 28.16836772 -10.33203125 28.09375 C-15.05612709 27.57126935 -17.66078919 25.14813189 -20.75 21.75 C-22.52130636 17.12492228 -22.52042523 12.69621757 -21.875 7.8125 C-17.54501911 -1.16820111 -9.12328185 -3.76831207 0 0 Z M-12.8125 7.8125 C-14.30222823 12.01879148 -13.87403443 14.45956428 -12.875 18.8125 C-10.04931454 21.13288095 -10.04931454 21.13288095 -6.8125 20.625 C-3.57759047 20.07495502 -3.57759047 20.07495502 -1.875 16.8125 C-1.32705547 13.28288329 -1.22870823 9.96146314 -3 6.8125 C-6.76766097 4.80308082 -9.79091811 4.69344773 -12.8125 7.8125 Z " fill="#254288" transform="translate(457.875,92.1875)"/>
<path d="M0 0 C2.29114062 1.9856552 2.81561123 2.94863182 3.08032227 5.96337891 C3.11697998 6.91647949 3.1536377 7.86958008 3.19140625 8.8515625 C3.23330078 9.8828125 3.27519531 10.9140625 3.31835938 11.9765625 C3.35767578 13.05679688 3.39699219 14.13703125 3.4375 15.25 C3.48068359 16.33796875 3.52386719 17.4259375 3.56835938 18.546875 C3.6746453 21.2394517 3.77668057 23.93212253 3.875 26.625 C0.54166667 26.625 -2.79166667 26.625 -6.125 26.625 C-6.785 26.955 -7.445 27.285 -8.125 27.625 C-12.37892777 28.12594516 -15.92986114 28.37196179 -19.625 26.0625 C-21.64355692 22.78234501 -22.125 20.4772557 -22.125 16.625 C-20.03861122 13.17522846 -18.72390791 11.83693239 -14.890625 10.48046875 C-13.73046875 10.26003906 -12.5703125 10.03960937 -11.375 9.8125 C-10.20453125 9.57917969 -9.0340625 9.34585938 -7.828125 9.10546875 C-6.93609375 8.94691406 -6.0440625 8.78835937 -5.125 8.625 C-5.785 7.635 -6.445 6.645 -7.125 5.625 C-10.20865871 5.3747843 -10.20865871 5.3747843 -13.125 5.625 C-13.455 6.615 -13.785 7.605 -14.125 8.625 C-16.435 8.295 -18.745 7.965 -21.125 7.625 C-20.6297783 3.96035945 -20.1041794 1.91667646 -17.125 -0.375 C-11.59669059 -2.2177698 -5.35265359 -2.35516758 0 0 Z M-13.125 16.625 C-13.125 17.945 -13.125 19.265 -13.125 20.625 C-10.77966049 21.39456136 -10.77966049 21.39456136 -8.125 21.625 C-6.20833333 20.54166667 -6.20833333 20.54166667 -5.125 18.625 C-5.125 17.305 -5.125 15.985 -5.125 14.625 C-8.32895416 14.625 -10.21899739 15.36835022 -13.125 16.625 Z " fill="#25428C" transform="translate(298.125,92.375)"/>
<path d="M0 0 C2.31 0 4.62 0 7 0 C7.33 0.66 7.66 1.32 8 2 C8.495 1.67 8.99 1.34 9.5 1 C13.00792862 -0.40317145 16.30685087 -0.6008695 20 0 C24.56782245 2.72125593 24.56782245 2.72125593 25.62280273 5.84277344 C26.03419234 8.19554921 26.11296584 10.3773289 26.09765625 12.765625 C26.09443359 13.65507813 26.09121094 14.54453125 26.08789062 15.4609375 C26.07951172 16.38132812 26.07113281 17.30171875 26.0625 18.25 C26.05798828 19.18585938 26.05347656 20.12171875 26.04882812 21.0859375 C26.03706938 23.39065247 26.01913468 25.69533446 26 28 C23.03 28 20.06 28 17 28 C16.505 18.1 16.505 18.1 16 8 C14.68 7.67 13.36 7.34 12 7 C9.84823274 8.46926839 9.12119688 9.44137203 8.56762695 11.99291992 C8.54144287 12.73131104 8.51525879 13.46970215 8.48828125 14.23046875 C8.45283203 15.03291016 8.41738281 15.83535156 8.38085938 16.66210938 C8.34702148 17.91217773 8.34702148 17.91217773 8.3125 19.1875 C8.27833984 20.03248047 8.24417969 20.87746094 8.20898438 21.74804688 C8.12658529 23.83156649 8.06161355 25.91576216 8 28 C5.36 28 2.72 28 0 28 C0 18.76 0 9.52 0 0 Z " fill="#21408A" transform="translate(336,91)"/>
<path d="M0 0 C2.64 0 5.28 0 8 0 C8 12.54 8 25.08 8 38 C5.36 38 2.72 38 0 38 C0 25.46 0 12.92 0 0 Z " fill="#243F7D" transform="translate(530,81)"/>
<path d="M0 0 C2.64 0 5.28 0 8 0 C8 12.54 8 25.08 8 38 C5.36 38 2.72 38 0 38 C0 25.46 0 12.92 0 0 Z " fill="#284488" transform="translate(423,81)"/>
<path d="M0 0 C3.33333333 0 6.66666667 0 10 0 C11.010625 -0.020625 12.02125 -0.04125 13.0625 -0.0625 C16 0 16 0 18 1 C17.125 5.75 17.125 5.75 16 8 C15.21625 7.95875 14.4325 7.9175 13.625 7.875 C10.83883881 7.71271266 10.83883881 7.71271266 9 10 C8.63168919 11.93257855 8.63168919 11.93257855 8.5859375 14.1328125 C8.52792969 15.34130859 8.52792969 15.34130859 8.46875 16.57421875 C8.42234375 17.83685547 8.42234375 17.83685547 8.375 19.125 C8.31699219 20.39923828 8.31699219 20.39923828 8.2578125 21.69921875 C8.16343506 23.79911684 8.08062414 25.89952891 8 28 C5.36 28 2.72 28 0 28 C0 18.76 0 9.52 0 0 Z " fill="#254390" transform="translate(226,91)"/>
<path d="M0 0 C2.475 0.99 2.475 0.99 5 2 C5 2.66 5 3.32 5 4 C5.66 4.226875 6.32 4.45375 7 4.6875 C9.54671995 5.80168998 11.57165796 6.98086974 13.875 8.5 C21.74008041 13.4375227 29.87426054 13.90312266 39 13 C42.01963684 11.96185878 44.25914839 10.68667791 47 9 C47.66 9 48.32 9 49 9 C47.54324045 12.54307347 47.13053104 12.93587949 43.4375 14.75 C38.67109189 16.17992243 33.99978293 16.28555712 29.0625 16.3125 C28.30445068 16.31797852 27.54640137 16.32345703 26.76538086 16.32910156 C21.25713895 16.25713895 21.25713895 16.25713895 19 14 C15.535 15.485 15.535 15.485 12 17 C12 18.32 12 19.64 12 21 C8.11442363 19.70480788 7.88509133 18.39483468 6.0625 14.8125 C4.3755463 11.56089674 2.72108689 8.46056189 0.5625 5.5 C0.046875 4.675 -0.46875 3.85 -1 3 C-0.67 2.01 -0.34 1.02 0 0 Z " fill="#264181" transform="translate(35,80)"/>
<path d="M0 0 C0 0.66 0 1.32 0 2 C-1.98 2 -3.96 2 -6 2 C-6 2.66 -6 3.32 -6 4 C-7.98 4.99 -7.98 4.99 -10 6 C-9.34 6.66 -8.68 7.32 -8 8 C-7.62532618 10.04367539 -7.49603939 12.05386434 -7.34375 14.125 C-7.13964634 16.23902286 -7.13964634 16.23902286 -5 18 C-2.33757179 18.46290221 -2.33757179 18.46290221 0.625 18.625 C1.62789063 18.69976562 2.63078125 18.77453125 3.6640625 18.8515625 C4.43492187 18.90054688 5.20578125 18.94953125 6 19 C5.34 20.32 4.68 21.64 4 23 C-1.9369172 23.31246933 -5.77304573 22.92709439 -11 20 C-13.21774211 16.69987864 -13.47658637 13.40555583 -13.8125 9.5 C-13.92207031 8.3759375 -14.03164063 7.251875 -14.14453125 6.09375 C-13.98241599 2.62360717 -13.4319815 1.42050989 -11 -1 C-6.8343753 -2.57618232 -4.04532297 -1.59931373 0 0 Z " fill="#264496" transform="translate(451,95)"/>
<path d="M0 0 C1.98 0 3.96 0 6 0 C7.79209397 17.34195551 7.79209397 17.34195551 6 24 C3.4375 26.1875 3.4375 26.1875 1 27 C0 26 0 26 -0.11352539 23.49975586 C-0.10828857 22.41573486 -0.10305176 21.33171387 -0.09765625 20.21484375 C-0.09443359 19.04501953 -0.09121094 17.87519531 -0.08789062 16.66992188 C-0.07951172 15.43822266 -0.07113281 14.20652344 -0.0625 12.9375 C-0.05798828 11.70193359 -0.05347656 10.46636719 -0.04882812 9.19335938 C-0.03699608 6.12885883 -0.02051173 3.06445279 0 0 Z " fill="#254594" transform="translate(531,82)"/>
<path d="M0 0 C5 1 5 1 6 2 C6.08713831 3.70772358 6.10700007 5.41898649 6.09765625 7.12890625 C6.09282227 8.68061523 6.09282227 8.68061523 6.08789062 10.26367188 C6.07951172 11.35228516 6.07113281 12.44089844 6.0625 13.5625 C6.05798828 14.65498047 6.05347656 15.74746094 6.04882812 16.87304688 C6.03699826 19.58208495 6.02051543 22.29101599 6 25 C4 26 4 26 0 25 C0 16.75 0 8.5 0 0 Z " fill="#264594" transform="translate(337,93)"/>
<path d="M0 0 C2.8125 -0.3125 2.8125 -0.3125 6 0 C7.75 2.3125 7.75 2.3125 9 5 C9.99 6.485 9.99 6.485 11 8 C11.50546722 13.18103903 10.86181723 19.11712086 9 24 C6.921875 25.296875 6.921875 25.296875 5 26 C4.80578562 23.04196565 4.61933814 20.08379837 4.4375 17.125 C4.38142578 16.28324219 4.32535156 15.44148438 4.26757812 14.57421875 C4.21923828 13.76855469 4.17089844 12.96289062 4.12109375 12.1328125 C4.05039673 11.01737061 4.05039673 11.01737061 3.97827148 9.87939453 C4 8 4 8 5 6 C3.35 4.02 1.7 2.04 0 0 Z " fill="#264593" transform="translate(350,92)"/>
<path d="M0 0 C2.31 0 4.62 0 7 0 C7.33 0.66 7.66 1.32 8 2 C8.495 1.67 8.99 1.34 9.5 1 C13.09090894 -0.43636358 16.14456127 -0.12851462 20 0 C20 0.33 20 0.66 20 1 C18.35 1.33 16.7 1.66 15 2 C15.33 2.99 15.66 3.98 16 5 C14.68 4.67 13.36 4.34 12 4 C12 4.99 12 5.98 12 7 C11.2733313 7.70443237 11.2733313 7.70443237 10.53198242 8.4230957 C8.58644549 10.42568104 8.58589438 11.47777835 8.48828125 14.23046875 C8.45283203 15.03291016 8.41738281 15.83535156 8.38085938 16.66210938 C8.34702148 17.91217773 8.34702148 17.91217773 8.3125 19.1875 C8.27833984 20.03248047 8.24417969 20.87746094 8.20898438 21.74804688 C8.12658529 23.83156649 8.06161355 25.91576216 8 28 C7.34 27.67 6.68 27.34 6 27 C6 19.41 6 11.82 6 4 C3.525 3.01 3.525 3.01 1 2 C1 10.25 1 18.5 1 27 C2.32 27.33 3.64 27.66 5 28 C3.35 28 1.7 28 0 28 C0 18.76 0 9.52 0 0 Z " fill="#26407F" transform="translate(336,91)"/>
<path d="M0 0 C0.33 0 0.66 0 1 0 C1.33 7.26 1.66 14.52 2 22 C-1.33333333 22 -4.66666667 22 -8 22 C-8.66 22.33 -9.32 22.66 -10 23 C-12.05859375 23.16796875 -12.05859375 23.16796875 -14.4375 23.1875 C-15.61119141 23.20876953 -15.61119141 23.20876953 -16.80859375 23.23046875 C-19 23 -19 23 -22 21 C-21.67 20.34 -21.34 19.68 -21 19 C-19.515 19.99 -19.515 19.99 -18 21 C-15.71351152 21.24107326 -15.71351152 21.24107326 -13.3125 21.125 C-12.50425781 21.10695313 -11.69601562 21.08890625 -10.86328125 21.0703125 C-10.24839844 21.04710938 -9.63351562 21.02390625 -9 21 C-9 20.01 -9 19.02 -9 18 C-10.65 18 -12.3 18 -14 18 C-11.33333333 16.66666667 -8.66666667 15.33333333 -6 14 C-5.01 14.66 -4.02 15.32 -3 16 C-3 16.99 -3 17.98 -3 19 C-2.34 18.67 -1.68 18.34 -1 18 C-0.67 12.06 -0.34 6.12 0 0 Z " fill="#243D80" transform="translate(523,97)"/>
<path d="M0 0 C3.42298577 1.14099526 4.14758766 2.00085621 6 5 C6 5.99 6 6.98 6 8 C6.66 8.33 7.32 8.66 8 9 C11.0152062 12.55762424 12.67338195 16.51652869 14.5234375 20.7578125 C16.35227516 23.53493636 17.92685192 23.92364372 21 25 C22.29492681 28.58595117 22.08798344 32.21671203 22 36 C18.94856259 32.34032392 16.39819253 28.56333361 13.92578125 24.4921875 C13.55647995 23.884888 13.18717865 23.2775885 12.8066864 22.65188599 C12.03273947 21.3771993 11.26053108 20.10145556 10.48999023 18.82470703 C9.31008447 16.87100033 8.12322129 14.92164784 6.93554688 12.97265625 C6.18187448 11.72941948 5.42860503 10.48593833 4.67578125 9.2421875 C3.99427002 8.1166748 3.31275879 6.99116211 2.6105957 5.83154297 C1 3 1 3 0 0 Z " fill="#264182" transform="translate(49,106)"/>
<path d="M0 0 C-0.75 7.75 -0.75 7.75 -3 10 C-3 10.99 -3 11.98 -3 13 C-2.01 13 -1.02 13 0 13 C-0.3403125 12.1028125 -0.3403125 12.1028125 -0.6875 11.1875 C-0.790625 10.465625 -0.89375 9.74375 -1 9 C0.4375 7.25 0.4375 7.25 2 6 C2.99 7.485 2.99 7.485 4 9 C7.60992379 8.34414811 7.60992379 8.34414811 11 7 C10.375 8.9375 10.375 8.9375 9 11 C5.875 11.75 5.875 11.75 3 12 C3 12.99 3 13.98 3 15 C3.763125 14.649375 4.52625 14.29875 5.3125 13.9375 C8 13 8 13 11 14 C6.97464442 16.68357039 3.72750362 16.67535766 -1 16 C-4.39082252 13.88073593 -4.88319436 12.40151938 -6 8.5625 C-6 5 -6 5 -4.1875 2.0625 C-2 0 -2 0 0 0 Z " fill="#263E79" transform="translate(311,104)"/>
<path d="M0 0 C2.31 0.66 4.62 1.32 7 2 C7.33 3.32 7.66 4.64 8 6 C9.65 6 11.3 6 13 6 C13 6.99 13 7.98 13 9 C9.86128812 10.56935594 7.46144178 10.35201103 4 10 C1 7.8125 1 7.8125 -1 5 C-0.8125 2.1875 -0.8125 2.1875 0 0 Z " fill="#224492" transform="translate(501,109)"/>
<path d="M0 0 C0 0.66 0 1.32 0 2 C-0.66 2 -1.32 2 -2 2 C-2 2.66 -2 3.32 -2 4 C-1.34 4.66 -0.68 5.32 0 6 C-1.65 6.66 -3.3 7.32 -5 8 C-4.67 9.32 -4.34 10.64 -4 12 C-5.32 12 -6.64 12 -8 12 C-7.34 9.69 -6.68 7.38 -6 5 C-7.65 4.67 -9.3 4.34 -11 4 C-11.0272415 5.41655793 -11.04650467 6.83327045 -11.0625 8.25 C-11.07410156 9.03890625 -11.08570313 9.8278125 -11.09765625 10.640625 C-11.00385306 12.90691002 -10.63241063 14.8288895 -10 17 C-12.65561386 15.03715497 -13.03313844 13.85979889 -13.8125 10.5625 C-14.0017027 6.96764867 -13.96324617 5.87347848 -12 3 C-9.94140625 1.953125 -9.94140625 1.953125 -7.5625 1.25 C-6.78003906 1.00765625 -5.99757812 0.7653125 -5.19140625 0.515625 C-3 0 -3 0 0 0 Z " fill="#253F7A" transform="translate(209,102)"/>
<path d="M0 0 C1.62418745 -0.08090971 3.24951745 -0.13914995 4.875 -0.1875 C5.77992188 -0.22230469 6.68484375 -0.25710937 7.6171875 -0.29296875 C8.79667969 -0.14794922 8.79667969 -0.14794922 10 0 C12 3 12 3 12 6 C7.95886635 6.84581867 5.00336856 7.00084214 1 6 C0.34 6 -0.32 6 -1 6 C-0.67 4.02 -0.34 2.04 0 0 Z " fill="#20428E" transform="translate(286,92)"/>
<path d="M0 0 C2.59874875 0.44549979 4.80591943 0.9057323 7.1875 2.0625 C14.04228438 4.34742813 20.53061035 3.23704659 27.08984375 0.55859375 C29 0 29 0 32 1 C24.53197726 5.45209048 18.80749236 6.88904701 10 6 C6.79098326 5.01440679 3.83570835 3.80693974 1 2 C0.67 1.34 0.34 0.68 0 0 Z " fill="#D75559" transform="translate(24,57)"/>
<path d="M0 0 C11.88975473 -0.56221257 11.88975473 -0.56221257 16 3 C17.25838557 5.51677113 17.20818973 7.41293288 17.31640625 10.2265625 C17.35830078 11.2578125 17.40019531 12.2890625 17.44335938 13.3515625 C17.48267578 14.43179688 17.52199219 15.51203125 17.5625 16.625 C17.60568359 17.71296875 17.64886719 18.8009375 17.69335938 19.921875 C17.7996453 22.6144517 17.90168057 25.30712253 18 28 C15.36 28 12.72 28 10 28 C10 27.34 10 26.68 10 26 C11.65 25.67 13.3 25.34 15 25 C15.11613204 21.89614789 15.18722029 18.79285338 15.25 15.6875 C15.28351563 14.80642578 15.31703125 13.92535156 15.3515625 13.01757812 C15.56482197 8.11272601 15.56482197 8.11272601 13.34375 3.96875 C10.6365235 2.84976305 8.14580276 2.26065995 5.25 1.8125 C3.77273438 1.57466797 3.77273438 1.57466797 2.265625 1.33203125 C1.51796875 1.22246094 0.7703125 1.11289063 0 1 C0 0.67 0 0.34 0 0 Z " fill="#293F7B" transform="translate(313,91)"/>
<path d="M0 0 C1.98790949 3.65518842 2.41204986 6.88434902 3 11 C3.99900981 13.84333561 4.51395104 14.71408885 7.125 16.25 C7.74375 16.4975 8.3625 16.745 9 17 C9.33 16.34 9.66 15.68 10 15 C10.33 15.66 10.66 16.32 11 17 C13.35599235 17.46751788 13.35599235 17.46751788 16.0625 17.625 C16.98160156 17.69976562 17.90070313 17.77453125 18.84765625 17.8515625 C19.55792969 17.90054688 20.26820313 17.94953125 21 18 C18.53003576 20.46996424 17.66102667 20.32331778 14.25 20.375 C9.40494422 20.27012866 6.67824382 19.31939077 3 16 C-1.16796748 11.41523578 -0.27559357 5.82829364 0 0 Z " fill="#263E7D" transform="translate(436,100)"/>
<path d="M0 0 C-0.99 0 -1.98 0 -3 0 C-2.67 0.99 -2.34 1.98 -2 3 C-0.35 3 1.3 3 3 3 C2.401875 3.268125 1.80375 3.53625 1.1875 3.8125 C-0.97224808 4.98493467 -2.35790256 6.19369282 -4 8 C-4.66 6.68 -5.32 5.36 -6 4 C-6.66 4 -7.32 4 -8 4 C-8.29562367 9.32170494 -8.29562367 9.32170494 -6 14 C-6.99 14.495 -6.99 14.495 -8 15 C-10.3746355 11.86548114 -11.01284245 10.37243096 -10.875 6.375 C-10.03028361 3.11680822 -9.70601146 1.87339255 -7 0 C-3.86650268 -1.04449911 -3.01031744 -0.93423645 0 0 Z " fill="#283E7D" transform="translate(287,104)"/>
<path d="M0 0 C0.99 0.33 1.98 0.66 3 1 C-4.27286218 13.48005936 -4.27286218 13.48005936 -10 16 C-13.01109472 16.68410414 -15.90943952 17.17660346 -19 17 C-19.99 16.34 -20.98 15.68 -22 15 C-21.21753906 14.95101562 -20.43507813 14.90203125 -19.62890625 14.8515625 C-18.61699219 14.77679688 -17.60507813 14.70203125 -16.5625 14.625 C-15.55316406 14.55539063 -14.54382813 14.48578125 -13.50390625 14.4140625 C-12.26447266 14.20910156 -12.26447266 14.20910156 -11 14 C-10.67 13.34 -10.34 12.68 -10 12 C-8.7934375 11.319375 -8.7934375 11.319375 -7.5625 10.625 C-4.87592252 8.92131672 -4.10510897 7.91346909 -3 5 C-2.34 5 -1.68 5 -1 5 C-0.67 3.35 -0.34 1.7 0 0 Z " fill="#283E77" transform="translate(108,145)"/>
<path d="M0 0 C0.66 0 1.32 0 2 0 C2.70180531 1.4096347 3.38593958 2.82807641 4.0625 4.25 C4.44535156 5.03890625 4.82820313 5.8278125 5.22265625 6.640625 C6.08564091 9.25993522 5.93045933 10.44855176 5 13 C4.01 13 3.02 13 2 13 C-1.18513349 9.10705907 -1.3785594 5.9212722 -1 1 C-0.67 0.67 -0.34 0.34 0 0 Z " fill="#224394" transform="translate(384,99)"/>
<path d="M0 0 C0.66 0.33 1.32 0.66 2 1 C1.125 5.75 1.125 5.75 0 8 C-1.98 8 -3.96 8 -6 8 C-6 6.35 -6 4.7 -6 3 C-6.66 3 -7.32 3 -8 3 C-8 2.34 -8 1.68 -8 1 C-5.26094655 -0.36952673 -3.02912668 -0.12621361 0 0 Z " fill="#263F82" transform="translate(242,91)"/>
<path d="M0 0 C0.66 0 1.32 0 2 0 C1.34 1.65 0.68 3.3 0 5 C0.99 5.33 1.98 5.66 3 6 C2.38125 6.04125 1.7625 6.0825 1.125 6.125 C0.42375 6.41375 -0.2775 6.7025 -1 7 C-1.33 7.99 -1.66 8.98 -2 10 C-2.33 10.99 -2.66 11.98 -3 13 C-4.33333333 13.33333333 -5.66666667 13.66666667 -7 14 C-8.3045656 16.99615946 -8.3045656 16.99615946 -9 20 C-9.66 20 -10.32 20 -11 20 C-9.35554633 15.39731718 -7.00052105 11.36169249 -4.5 7.1875 C-4.09652344 6.49462891 -3.69304687 5.80175781 -3.27734375 5.08789062 C-2.24318829 3.35576555 -1.12775368 1.67269436 0 0 Z " fill="#2C4180" transform="translate(114,40)"/>
<path d="M0 0 C-4.97913218 3.18111222 -8.55213914 4.14668612 -14.4375 4.1875 C-15.36433594 4.20167969 -16.29117187 4.21585937 -17.24609375 4.23046875 C-20.17833373 3.98507562 -22.33861389 3.22201577 -25 2 C-20.44451306 0.56318383 -15.91185143 1.02341102 -11.19140625 1.16015625 C-6.77602283 0.93857642 -4.24322382 -1.41440794 0 0 Z " fill="#29407C" transform="translate(415,116)"/>
<path d="M0 0 C0.99 0.33 1.98 0.66 3 1 C2.01 1.495 2.01 1.495 1 2 C1.66 5.3 2.32 8.6 3 12 C2.01 12.33 1.02 12.66 0 13 C-0.66 12.01 -1.32 11.02 -2 10 C-2.99 9.67 -3.98 9.34 -5 9 C-4.125 5.125 -4.125 5.125 -3 4 C-3.33 3.34 -3.66 2.68 -4 2 C-2.68 2 -1.36 2 0 2 C0 1.34 0 0.68 0 0 Z " fill="#284594" transform="translate(250,99)"/>
<path d="M0 0 C0.598125 0.226875 1.19625 0.45375 1.8125 0.6875 C1.4825 1.3475 1.1525 2.0075 0.8125 2.6875 C0.1525 2.6875 -0.5075 2.6875 -1.1875 2.6875 C-1.1875 4.0075 -1.1875 5.3275 -1.1875 6.6875 C-0.5275 6.6875 0.1325 6.6875 0.8125 6.6875 C0.8125 6.0275 0.8125 5.3675 0.8125 4.6875 C1.8025 5.0175 2.7925 5.3475 3.8125 5.6875 C2.75 7.25 2.75 7.25 0.8125 8.6875 C-2.875 8.375 -2.875 8.375 -6.1875 7.6875 C-5.82037028 4.97074005 -5.46005401 3.07686287 -3.875 0.8125 C-2.1875 -0.3125 -2.1875 -0.3125 0 0 Z " fill="#253D8A" transform="translate(312.1875,92.3125)"/>
<path d="M0 0 C0.33 0.66 0.66 1.32 1 2 C-1 5 -1 5 -2 6 C-1.01 6.33 -0.02 6.66 1 7 C-2.08888522 9.05925681 -2.70935927 9.2390374 -6.1875 9.125 C-8.0746875 9.063125 -8.0746875 9.063125 -10 9 C-9.01 8.67 -8.02 8.34 -7 8 C-6.938125 7.21625 -6.87625 6.4325 -6.8125 5.625 C-6.544375 4.75875 -6.27625 3.8925 -6 3 C-3.5 1.75 -3.5 1.75 -1 1 C-0.67 0.67 -0.34 0.34 0 0 Z " fill="#274081" transform="translate(292,111)"/>
<path d="M0 0 C0.66 0.33 1.32 0.66 2 1 C1.67 2.32 1.34 3.64 1 5 C0.34 5 -0.32 5 -1 5 C-1.98120464 8.05263664 -1.98120464 9.94736336 -1 13 C-2.32 12.67 -3.64 12.34 -5 12 C-5.625 10.125 -5.625 10.125 -6 8 C-5.34 7.34 -4.68 6.68 -4 6 C-3.7834375 5.01 -3.7834375 5.01 -3.5625 4 C-3 2 -3 2 0 0 Z " fill="#214293" transform="translate(313,105)"/>
<path d="M0 0 C3.3 0 6.6 0 10 0 C9.67 0.99 9.34 1.98 9 3 C9 2.34 9 1.68 9 1 C8.071875 1.4640625 8.071875 1.4640625 7.125 1.9375 C5.75 2.625 4.375 3.3125 3 4 C4.84188612 6.05270463 4.84188612 6.05270463 7 7 C6.67 9.64 6.34 12.28 6 15 C3.95349609 11.93024413 3.00295435 9.30915848 1.875 5.8125 C1.52179688 4.72582031 1.16859375 3.63914062 0.8046875 2.51953125 C0.53914062 1.68808594 0.27359375 0.85664062 0 0 Z " fill="#28427D" transform="translate(158,81)"/>
<path d="M0 0 C0.66 0.66 1.32 1.32 2 2 C2.66 2 3.32 2 4 2 C4.125 4.875 4.125 4.875 4 8 C3.34 8.66 2.68 9.32 2 10 C-0.125 9.625 -0.125 9.625 -2 9 C-2 8.34 -2 7.68 -2 7 C-2.04125 6.175 -2.0825 5.35 -2.125 4.5 C-2 2 -2 2 0 0 Z " fill="#224494" transform="translate(533,109)"/>
<path d="M0 0 C0.33 0.66 0.66 1.32 1 2 C-2.40554079 7.26630019 -5.87668862 12.2703193 -10 17 C-10.66 16.67 -11.32 16.34 -12 16 C-10.56988481 13.70342089 -9.13141541 11.41287838 -7.6875 9.125 C-7.28337891 8.47402344 -6.87925781 7.82304687 -6.46289062 7.15234375 C-4.50036859 4.05698379 -3.0874665 2.058311 0 0 Z " fill="#2E437E" transform="translate(127,22)"/>
<path d="M0 0 C3.42298577 1.14099526 4.14758766 2.00085621 6 5 C6 5.99 6 6.98 6 8 C6.66 8.33 7.32 8.66 8 9 C9.6875 10.8125 9.6875 10.8125 11 13 C10.58203125 15.13671875 10.58203125 15.13671875 10 17 C6.18507091 11.50650211 2.85956354 6.04907673 0 0 Z " fill="#25447C" transform="translate(49,106)"/>
<path d="M0 0 C2 3 2 3 1.75 4.97265625 C0.97213672 7.14013987 0.22746962 9.04701569 -1 11 C-4.1875 12.5 -4.1875 12.5 -7 13 C-5.35821735 8.22390502 -2.73453298 4.20617096 0 0 Z " fill="#283F79" transform="translate(102,60)"/>
<path d="M0 0 C1.98 0 3.96 0 6 0 C6.66 1.32 7.32 2.64 8 4 C7.67 4.33 7.34 4.66 7 5 C6.84417697 6.34015221 6.74955858 7.68758903 6.68359375 9.03515625 C6.64169922 9.84404297 6.59980469 10.65292969 6.55664062 11.48632812 C6.51732422 12.33646484 6.47800781 13.18660156 6.4375 14.0625 C6.39431641 14.91650391 6.35113281 15.77050781 6.30664062 16.65039062 C6.20023298 18.76672037 6.09958269 20.88333813 6 23 C5.67 23 5.34 23 5 23 C4.67 16.73 4.34 10.46 4 4 C2.68 3.34 1.36 2.68 0 2 C0 1.34 0 0.68 0 0 Z " fill="#162A80" transform="translate(348,95)"/>
<path d="M0 0 C0.66 0 1.32 0 2 0 C0.44584521 5.9057882 -2.59534467 10.97738893 -6 16 C-6.33 16 -6.66 16 -7 16 C-7.25 13.25 -7.25 13.25 -7 10 C-5.1875 8 -5.1875 8 -3 6 C-1.93988057 4.03120677 -0.92529151 2.03564133 0 0 Z " fill="#283E7A" transform="translate(131,109)"/>
<path d="M0 0 C0.33 0 0.66 0 1 0 C1.2120464 4.45297431 0.72718916 7.87393702 -1 12 C-4.21451269 13.60725635 -7.43612536 13.05748185 -11 13 C-11 12.67 -11 12.34 -11 12 C-9.865625 11.87625 -8.73125 11.7525 -7.5625 11.625 C-6.386875 11.41875 -5.21125 11.2125 -4 11 C-3.67 10.34 -3.34 9.68 -3 9 C-4.32 8.67 -5.64 8.34 -7 8 C-6.38125 7.71125 -5.7625 7.4225 -5.125 7.125 C-2.86674235 6.06279958 -2.86674235 6.06279958 -1 4 C-0.3574765 1.93125966 -0.3574765 1.93125966 0 0 Z " fill="#27407C" transform="translate(212,107)"/>
<path d="M0 0 C0.33 0.66 0.66 1.32 1 2 C0.29296875 4.0234375 0.29296875 4.0234375 -0.8125 6.375 C-1.16957031 7.14585938 -1.52664062 7.91671875 -1.89453125 8.7109375 C-2.25933594 9.46632813 -2.62414062 10.22171875 -3 11 C-3.27199219 11.73476562 -3.54398437 12.46953125 -3.82421875 13.2265625 C-5 15 -5 15 -7.625 15.75 C-8.40875 15.8325 -9.1925 15.915 -10 16 C-9.52949219 15.26394531 -9.05898437 14.52789062 -8.57421875 13.76953125 C-7.95160156 12.79371094 -7.32898438 11.81789063 -6.6875 10.8125 C-6.07261719 9.84957031 -5.45773438 8.88664062 -4.82421875 7.89453125 C-3.17876897 5.28365697 -1.57630335 2.6530398 0 0 Z " fill="#263A74" transform="translate(94,73)"/>
<path d="M0 0 C0.33 0 0.66 0 1 0 C1.33 6.93 1.66 13.86 2 21 C-0.61964821 18.38035179 -0.97210561 16.63664844 -1.1328125 12.96875 C-1.13023438 11.8240625 -1.12765625 10.679375 -1.125 9.5 C-1.12757812 8.3553125 -1.13015625 7.210625 -1.1328125 6.03125 C-1 3 -1 3 0 0 Z " fill="#D35053" transform="translate(15,28)"/>
<path d="M0 0 C0.33 0.99 0.66 1.98 1 3 C-4.75815354 8.90968389 -4.75815354 8.90968389 -9.4375 9.25 C-13 9 -13 9 -16 6 C-12.04 6 -8.08 6 -4 6 C-3.34 4.68 -2.68 3.36 -2 2 C-1.34 2 -0.68 2 0 2 C0 1.34 0 0.68 0 0 Z " fill="#263E77" transform="translate(494,111)"/>
<path d="M0 0 C6.6842783 0.65212471 11.67075434 3.15160053 15.9375 8.25 C16.618125 9.1575 17.29875 10.065 18 11 C15.56740423 9.91884632 13.82043114 8.8409533 11.8125 7.0625 C8.13661602 4.36685175 4.34516526 3.24959001 0 2 C0 1.34 0 0.68 0 0 Z " fill="#D5585B" transform="translate(43,12)"/>
<path d="M0 0 C3.78521496 1.61072977 5.75924937 3.57990693 8 7 C5.73453484 5.90922048 3.81352533 4.85614811 1.8125 3.3125 C-2.23311333 1.42454711 -5.71027065 2.08980202 -10 3 C-10.99 3.495 -10.99 3.495 -12 4 C-12.66 3.34 -13.32 2.68 -14 2 C-9.43791811 -0.64453246 -5.15057882 -0.5434864 0 0 Z " fill="#283977" transform="translate(455,91)"/>
<path d="M0 0 C2.475 0.99 2.475 0.99 5 2 C5 3.32 5 4.64 5 6 C5.66 6 6.32 6 7 6 C8.02611949 7.65071396 9.02308143 9.31970006 10 11 C11.58245275 12.75149165 11.58245275 12.75149165 13 14 C10 14 10 14 8.53515625 12.71484375 C5.18219722 8.66816905 2.46464069 4.64489977 0 0 Z " fill="#2A3E7A" transform="translate(73,145)"/>
<path d="M0 0 C0.391875 0.515625 0.78375 1.03125 1.1875 1.5625 C2.952472 3.30408494 2.952472 3.30408494 5.5625 2.75 C7.97602515 2.080487 7.97602515 2.080487 10 1 C9.375 2.9375 9.375 2.9375 8 5 C4.875 5.75 4.875 5.75 2 6 C2 6.99 2 7.98 2 9 C1.01 8.67 0.02 8.34 -1 8 C-1.625 5.6875 -1.625 5.6875 -2 3 C-1.34 2.01 -0.68 1.02 0 0 Z " fill="#244185" transform="translate(312,110)"/>
<path d="M0 0 C0.33 0 0.66 0 1 0 C1.33 3.3 1.66 6.6 2 10 C-0.64 10 -3.28 10 -6 10 C-6 9.34 -6 8.68 -6 8 C-4.35 7.67 -2.7 7.34 -1 7 C-1.020625 6.030625 -1.04125 5.06125 -1.0625 4.0625 C-1 1 -1 1 0 0 Z " fill="#254181" transform="translate(300,109)"/>
<path d="M0 0 C-0.96497485 2.6317496 -1.58828539 3.77878021 -4.09375 5.125 C-7.70606651 6.21257916 -11.08246709 6.21780465 -14.8125 6.125 C-15.85180664 6.11146484 -15.85180664 6.11146484 -16.91210938 6.09765625 C-18.60822395 6.07426157 -20.30415871 6.03839641 -22 6 C-22 5.67 -22 5.34 -22 5 C-21.2265625 4.97421875 -20.453125 4.9484375 -19.65625 4.921875 C-12.8356562 4.55045653 -5.99039344 0 0 0 Z " fill="#2A3C73" transform="translate(84,89)"/>
<path d="M0 0 C0.66 0.33 1.32 0.66 2 1 C2 1.66 2 2.32 2 3 C-5.625 5.125 -5.625 5.125 -9 4 C-9 3.01 -9 2.02 -9 1 C-7.700625 1.020625 -6.40125 1.04125 -5.0625 1.0625 C-3.70834367 1.08399454 -2.35243917 1.07148199 -1 1 C-0.67 0.67 -0.34 0.34 0 0 Z " fill="#294496" transform="translate(259,114)"/>
<path d="M0 0 C1.875 0.1875 1.875 0.1875 4 1 C5.52164099 3.89111788 6 5.71823412 6 9 C5.01 9.33 4.02 9.66 3 10 C2.01 8.35 1.02 6.7 0 5 C0.66 5 1.32 5 2 5 C1.34 3.35 0.68 1.7 0 0 Z " fill="#1F3978" transform="translate(260,92)"/>
<path d="M0 0 C2.71815409 0.9966565 3.79387661 1.59347887 5.125 4.21875 C6.07875955 7.25034287 6.20133813 9.64446773 6.125 12.8125 C6.10695313 13.78832031 6.08890625 14.76414062 6.0703125 15.76953125 C6.03550781 16.87361328 6.03550781 16.87361328 6 18 C5.67 18 5.34 18 5 18 C4.95101563 17.30132812 4.90203125 16.60265625 4.8515625 15.8828125 C4.77679688 14.97273438 4.70203125 14.06265625 4.625 13.125 C4.52058594 11.76761719 4.52058594 11.76761719 4.4140625 10.3828125 C4.20431868 7.82058097 4.20431868 7.82058097 2 6 C1.28591666 4.01643517 0.61382258 2.01684563 0 0 Z " fill="#223876" transform="translate(356,92)"/>
<path d="M0 0 C0.33 0 0.66 0 1 0 C2.13253652 6.22895086 1.70366626 10.91748904 0 17 C-0.33 17 -0.66 17 -1 17 C-1.02709444 14.91673869 -1.04643873 12.83337559 -1.0625 10.75 C-1.07410156 9.58984375 -1.08570313 8.4296875 -1.09765625 7.234375 C-1.01782092 4.59022872 -0.78643778 2.50173909 0 0 Z " fill="#CE595D" transform="translate(64,31)"/>
<path d="M0 0 C0.99 0 1.98 0 3 0 C6.25601751 7.21225383 6.25601751 7.21225383 5.1875 10.5 C4.795625 10.995 4.40375 11.49 4 12 C4 10.35 4 8.7 4 7 C3.01 6.67 2.02 6.34 1 6 C0.67 4.02 0.34 2.04 0 0 Z " fill="#E04E51" transform="translate(59,23)"/>
<path d="M0 0 C-2.90600261 1.25664978 -4.79604584 2 -8 2 C-8.226875 2.639375 -8.45375 3.27875 -8.6875 3.9375 C-10 6 -10 6 -12.625 6.75 C-13.800625 6.87375 -13.800625 6.87375 -15 7 C-6.16916168 -2.61002994 -6.16916168 -2.61002994 0 0 Z " fill="#D1565C" transform="translate(36,13)"/>
<path d="M0 0 C0.66 0 1.32 0 2 0 C2 5.61 2 11.22 2 17 C-0.64 17 -3.28 17 -6 17 C-6 16.67 -6 16.34 -6 16 C-4.02 15.34 -2.04 14.68 0 14 C0 9.38 0 4.76 0 0 Z " fill="#283E82" transform="translate(232,102)"/>
<path d="M0 0 C0.66 0 1.32 0 2 0 C1.00956295 4.83628305 0.04301154 9.47618873 -2 14 C-2.33 14 -2.66 14 -3 14 C-3.34615998 8.34605369 -2.43425238 4.96993194 0 0 Z " fill="#243C80" transform="translate(189,89)"/>
<path d="M0 0 C0.33 0 0.66 0 1 0 C0.67 2.31 0.34 4.62 0 7 C0.99 7.33 1.98 7.66 3 8 C3 8.66 3 9.32 3 10 C2.01 10.33 1.02 10.66 0 11 C-0.66 10.34 -1.32 9.68 -2 9 C-1.45652174 2.91304348 -1.45652174 2.91304348 0 0 Z " fill="#233D7C" transform="translate(180,96)"/>
<path d="M0 0 C0.66 0 1.32 0 2 0 C2.33692785 1.60341555 2.66941093 3.20776555 3 4.8125 C3.185625 5.70582031 3.37125 6.59914063 3.5625 7.51953125 C4 10 4 10 4 13 C1.0396355 9.63594943 -0.03380551 6.34787522 -1 2 C-0.67 1.34 -0.34 0.68 0 0 Z " fill="#243E79" transform="translate(251,101)"/>
<path d="M0 0 C2.4375 0.6875 2.4375 0.6875 5 2 C6 4.375 6 4.375 6 7 C4.5625 9.3125 4.5625 9.3125 3 11 C2.15545644 7.62182575 1.89155081 5.32534757 3 2 C2.01 2 1.02 2 0 2 C0 1.34 0 0.68 0 0 Z " fill="#29437E" transform="translate(178,15)"/>
<path d="M0 0 C1.98 0 3.96 0 6 0 C5.67 2.31 5.34 4.62 5 7 C3.29115995 5.37660195 1.62553283 3.70680947 0 2 C0 1.34 0 0.68 0 0 Z " fill="#214298" transform="translate(485,95)"/>
<path d="M0 0 C0.99 0 1.98 0 3 0 C3 1.32 3 2.64 3 4 C1.02 4.66 -0.96 5.32 -3 6 C-1.125 1.125 -1.125 1.125 0 0 Z " fill="#2B4188" transform="translate(440,94)"/>
<path d="M0 0 C0.598125 0.226875 1.19625 0.45375 1.8125 0.6875 C1.4825 1.3475 1.1525 2.0075 0.8125 2.6875 C-0.52083333 3.02083333 -1.85416667 3.35416667 -3.1875 3.6875 C-3.5175 4.3475 -3.8475 5.0075 -4.1875 5.6875 C-3.5275 6.3475 -2.8675 7.0075 -2.1875 7.6875 C-3.5075 7.6875 -4.8275 7.6875 -6.1875 7.6875 C-5.82037028 4.97074005 -5.46005401 3.07686287 -3.875 0.8125 C-2.1875 -0.3125 -2.1875 -0.3125 0 0 Z " fill="#294077" transform="translate(312.1875,92.3125)"/>
<path d="M0 0 C0.556875 0.78375 1.11375 1.5675 1.6875 2.375 C4.07668565 5.08704858 5.60073413 5.96133543 9 7 C5.67465243 8.10844919 3.37817425 7.84454356 0 7 C-1.125 2.25 -1.125 2.25 0 0 Z " fill="#213977" transform="translate(390,105)"/>
<path d="M0 0 C2 3 2 3 2 6 C0.02 6 -1.96 6 -4 6 C-4 5.34 -4 4.68 -4 4 C-3.34 4 -2.68 4 -2 4 C-1.34 2.68 -0.68 1.36 0 0 Z " fill="#234391" transform="translate(201,93)"/>
<path d="M0 0 C3 2 3 2 4 5 C5.49985609 6.66710346 5.49985609 6.66710346 7 8 C6.01 8.66 5.02 9.32 4 10 C0 3.375 0 3.375 0 0 Z " fill="#2F4688" transform="translate(36,80)"/>
<path d="M0 0 C-1.2491742 3.45925163 -2.67527795 6.14693203 -5 9 C-5 6.12862585 -4.72886734 3.7696959 -4 1 C-2 0 -2 0 0 0 Z " fill="#2D4280" transform="translate(159,64)"/>
<path d="M0 0 C2.475 0.99 2.475 0.99 5 2 C4.6875 3.875 4.6875 3.875 4 6 C3.01 6.66 2.02 7.32 1 8 C0.67 7.01 0.34 6.02 0 5 C0.66 5 1.32 5 2 5 C1.34 3.35 0.68 1.7 0 0 Z " fill="#293F88" transform="translate(210,96)"/>
<path d="M0 0 C2.0625 0.4375 2.0625 0.4375 4 1 C3.67 2.32 3.34 3.64 3 5 C2.34 4.67 1.68 4.34 1 4 C0.34 4.66 -0.32 5.32 -1 6 C-1.042721 4.33388095 -1.04063832 2.66617115 -1 1 C-0.67 0.67 -0.34 0.34 0 0 Z " fill="#274592" transform="translate(186,82)"/>
<path d="M0 0 C2.4375 0.8125 2.4375 0.8125 5 2 C6 5 6 5 5 8 C2.525 4.04 2.525 4.04 0 0 Z " fill="#223770" transform="translate(54,115)"/>
<path d="M0 0 C2.375 0.6875 2.375 0.6875 5 2 C6.3125 4.625 6.3125 4.625 7 7 C4 6 4 6 2 3 C1.01 2.34 0.02 1.68 -1 1 C-0.67 0.67 -0.34 0.34 0 0 Z " fill="#243E73" transform="translate(408,82)"/>
<path d="M0 0 C0.33 0.66 0.66 1.32 1 2 C-0.375 4 -0.375 4 -2 6 C-2.66 6 -3.32 6 -4 6 C-4 6.66 -4 7.32 -4 8 C-4.66 7.67 -5.32 7.34 -6 7 C-4.19587357 3.73539027 -3.16605307 2.11070205 0 0 Z " fill="#2C4072" transform="translate(127,22)"/>
<path d="M0 0 C-4.43076923 3.07692308 -4.43076923 3.07692308 -7.3125 2.6875 C-8.1478125 2.3471875 -8.1478125 2.3471875 -9 2 C-5.96271914 -1.03728086 -4.06215635 -1.35405212 0 0 Z " fill="#273B72" transform="translate(415,116)"/>
<path d="M0 0 C-2.31 1.32 -4.62 2.64 -7 4 C-7 2.68 -7 1.36 -7 0 C-3.86650268 -1.04449911 -3.01031744 -0.93423645 0 0 Z " fill="#204492" transform="translate(291,104)"/>
<path d="M0 0 C0.33 1.32 0.66 2.64 1 4 C2.98 3.67 4.96 3.34 7 3 C6.67 3.99 6.34 4.98 6 6 C3.69 5.67 1.38 5.34 -1 5 C-0.67 3.35 -0.34 1.7 0 0 Z " fill="#293D73" transform="translate(278,95)"/>
<path d="M0 0 C0.66 0.33 1.32 0.66 2 1 C1.67 3.97 1.34 6.94 1 10 C0.67 10 0.34 10 0 10 C0 8.02 0 6.04 0 4 C-0.66 3.67 -1.32 3.34 -2 3 C-2 2.34 -2 1.68 -2 1 C-1.34 0.67 -0.68 0.34 0 0 Z " fill="#27427F" transform="translate(476,98)"/>
<path d="M0 0 C1.32 0.66 2.64 1.32 4 2 C4 2.99 4 3.98 4 5 C2.02 4.34 0.04 3.68 -2 3 C-1.34 2.01 -0.68 1.02 0 0 Z " fill="#263F89" transform="translate(319,94)"/>
<path d="M0 0 C0.99 0.33 1.98 0.66 3 1 C1.69593116 3.01920337 0.36176581 5.01924973 -1 7 C-1.33 7 -1.66 7 -2 7 C-2.125 4.625 -2.125 4.625 -2 2 C-1.34 1.34 -0.68 0.68 0 0 Z " fill="#283B7B" transform="translate(151,74)"/>
</svg>
