<?xml version="1.0" encoding="UTF-8" standalone="no"?>
<!-- Generator: Adobe Illustrator 16.0.0, SVG Export Plug-In . SVG Version: 6.00 Build 0)  -->

<svg
   xmlns:dc="http://purl.org/dc/elements/1.1/"
   xmlns:cc="http://creativecommons.org/ns#"
   xmlns:rdf="http://www.w3.org/1999/02/22-rdf-syntax-ns#"
   xmlns:svg="http://www.w3.org/2000/svg"
   xmlns="http://www.w3.org/2000/svg"
   xmlns:sodipodi="http://sodipodi.sourceforge.net/DTD/sodipodi-0.dtd"
   xmlns:inkscape="http://www.inkscape.org/namespaces/inkscape"
   version="1.1"
   id="Layer_1"
   x="0px"
   y="0px"
   width="606.16px"
   height="557.762px"
   viewBox="395.689 57.875 606.16 557.762"
   enable-background="new 395.689 57.875 606.16 557.762"
   xml:space="preserve"
   inkscape:version="0.91 r13725"
   sodipodi:docname="Environmental law icon.svg"><metadata
     id="metadata4147"><rdf:RDF><cc:Work
         rdf:about=""><dc:format>image/svg+xml</dc:format><dc:type
           rdf:resource="http://purl.org/dc/dcmitype/StillImage" /><dc:title></dc:title></cc:Work></rdf:RDF></metadata><defs
     id="defs4145"><clipPath
       id="clipPath18"><path
         inkscape:connector-curvature="0"
         d="M 0,38 38,38 38,0 0,0 0,38 Z"
         id="path20" /></clipPath><clipPath
       id="clipPath46"><path
         inkscape:connector-curvature="0"
         d="m 9.49,27.768 c 0.874,-2.87 2.748,-3.868 6.493,-5.865 l 0,0 c 1.996,3.746 2.994,5.62 2.12,8.488 l 0,0 c -0.876,2.874 -3.187,5.307 -6.495,5.866 l 0,0 C 9.175,33.947 8.614,30.64 9.49,27.768"
         id="path48" /></clipPath><clipPath
       id="clipPath58"><path
         inkscape:connector-curvature="0"
         d="M 3.943,23.462 C 2.98,21.308 3.502,19.008 4.841,17.374 l 0,0 c 1.34,-1.632 2.826,-1.777 5.796,-2.071 l 0,0 c 0.293,2.971 0.439,4.457 -0.899,6.087 l 0,0 c -1.09,1.33 -2.722,2.215 -4.533,2.215 l 0,0 c -0.413,0 -0.835,-0.046 -1.262,-0.143"
         id="path60" /></clipPath><clipPath
       id="clipPath70"><path
         inkscape:connector-curvature="0"
         d="m 15.645,19.387 c 2.377,-3.038 3.565,-4.558 6.272,-4.889 l 0,0 c 2.709,-0.328 5.583,0.691 7.266,3.236 l 0,0 C 28.16,20.606 25.62,22.29 22.91,22.622 l 0,0 c -0.297,0.037 -0.58,0.054 -0.852,0.054 l 0,0 c -2.207,0 -3.708,-1.174 -6.413,-3.289"
         id="path72" /></clipPath><clipPath
       id="clipPath82"><path
         inkscape:connector-curvature="0"
         d="M 9.86,9.972 C 12.226,7.236 13.41,5.87 15.959,5.684 l 0,0 c 2.55,-0.183 5.193,0.907 6.652,3.365 l 0,0 c -1.089,2.642 -3.547,4.102 -6.099,4.287 l 0,0 c -0.171,0.012 -0.337,0.019 -0.499,0.019 l 0,0 C 13.773,13.354 12.412,12.177 9.86,9.972"
         id="path84" /></clipPath><clipPath
       id="clipPath94"><path
         inkscape:connector-curvature="0"
         d="M 27.789,34.139 C 25.358,33.116 24.651,31.388 23.24,27.936 l 0,0 c 3.453,-1.411 5.179,-2.117 7.614,-1.097 l 0,0 c 2.432,1.023 4.354,3.26 4.548,6.204 l 0,0 c -1.368,1.175 -3.001,1.705 -4.62,1.705 l 0,0 c -1.026,0 -2.048,-0.213 -2.993,-0.609"
         id="path96" /></clipPath><clipPath
       id="clipPath106"><path
         inkscape:connector-curvature="0"
         d="M 0,38 38,38 38,0 0,0 0,38 Z"
         id="path108" /></clipPath></defs><sodipodi:namedview
     pagecolor="#ffffff"
     bordercolor="#666666"
     borderopacity="1"
     objecttolerance="10"
     gridtolerance="10"
     guidetolerance="10"
     inkscape:pageopacity="0"
     inkscape:pageshadow="2"
     inkscape:window-width="1366"
     inkscape:window-height="746"
     id="namedview4143"
     showgrid="false"
     inkscape:zoom="1.0649703"
     inkscape:cx="303.07999"
     inkscape:cy="278.88101"
     inkscape:window-x="-8"
     inkscape:window-y="-8"
     inkscape:window-maximized="1"
     inkscape:current-layer="Layer_1" /><path
     d="M1001.841,414.803L1001.841,414.803l-10.008-0.007l-92.197-243.542c0.471-0.142,0.957-0.202,1.408-0.391  c2.121-0.916,3.906-2.371,5.186-3.92c1.422-1.724,2.357-3.489,3.07-5.24c0.27-0.586,0.432-1.232,0.432-1.919  c0-2.606-2.107-4.722-4.715-4.722c-1.967,0-3.643,1.206-4.35,2.923c-0.525,1.017-1.105,1.906-1.725,2.512  c-1.232,1.158-1.967,1.313-3.51,1.131c-3.252-0.471-7.826-3.819-11.578-7.416c-3.67-3.468-7.752-8.365-12.426-12.426  c-4.506-4.236-9.711-7.873-15.174-11.12c-5.537-3.166-11.605-5.543-17.834-7.119c-12.568-3.071-25.467-2.209-36.781,0.189  c-11.457,2.303-21.727,5.879-31.299,9.099c-9.543,3.287-18.332,6.385-26.428,8.856c-11.02,3.455-20.703,5.597-28.746,6.85V117.05  c6.277-2.331,10.057-6.149,11.256-11.369c4.066-17.72-24.908-45.253-26.141-46.418l-1.508-1.387l-1.496,1.408  c-1.24,1.165-30.209,28.698-26.141,46.418c1.199,5.22,4.984,9.038,11.256,11.369v31.494c-8.043-1.253-17.729-3.395-28.754-6.85  c-8.096-2.479-16.887-5.57-26.424-8.857c-9.578-3.219-19.848-6.795-31.306-9.099c-11.314-2.391-24.213-3.253-36.78-0.188  c-6.23,1.576-12.299,3.947-17.842,7.119c-5.455,3.246-10.668,6.876-15.167,11.12c-4.674,4.061-8.756,8.958-12.42,12.426  c-3.751,3.597-8.324,6.937-11.578,7.415c-1.542,0.182-2.283,0.027-3.509-1.131c-0.613-0.606-1.199-1.488-1.724-2.512  c-0.707-1.71-2.384-2.923-4.351-2.923c-2.606,0-4.714,2.108-4.714,4.721c0,0.687,0.162,1.327,0.424,1.919  c0.72,1.751,1.664,3.516,3.078,5.24c1.28,1.549,3.058,2.997,5.186,3.92c0.452,0.188,0.937,0.249,1.401,0.391l-92.204,243.521  h-10.022l0.007,0.007h-0.007c0,15.201,5.099,50.958,107.755,50.958c102.65,0,107.749-35.764,107.749-50.958l0,0h-10.016  l-92.446-244.175c1.697-0.633,3.24-1.428,4.681-2.236c2.903-1.664,5.469-3.556,7.88-5.55c5.031-4.203,8.634-8.116,12.985-11.423  c4.195-3.502,8.803-6.243,13.437-8.641c4.694-2.296,9.577-3.839,14.507-4.769c9.901-1.751,20.051-0.559,29.864,2.162  c9.813,2.6,19.33,6.546,28.469,10.285c9.162,3.805,17.998,7.557,26.418,10.715c8.412,3.186,16.408,5.765,23.662,7.712  c4.209,1.091,8.121,1.96,11.754,2.667v257.308c-6.717,0.553-12.01,6.203-12.01,13.053c0,6.419,4.518,11.699,10.629,12.851v27.648  c0,65.485-66.607,107.027-94.721,107.027c-8.83,0-13.45,6.587-13.45,13.1c0,6.514,4.62,13.1,13.45,13.1h224.971  c8.83,0,13.443-6.593,13.443-13.1c0-6.52-4.619-13.1-13.443-13.1c-28.119,0-94.715-41.542-94.715-107.027v-27.648  c6.102-1.145,10.635-6.432,10.635-12.851c0-6.856-5.301-12.5-12.016-13.053V171.55c3.631-0.701,7.543-1.569,11.746-2.667  c7.26-1.94,15.262-4.526,23.666-7.712c8.42-3.159,17.264-6.91,26.416-10.715c9.146-3.738,18.664-7.685,28.477-10.285  c9.807-2.721,19.955-3.913,29.863-2.162c4.924,0.923,9.82,2.465,14.508,4.769c4.633,2.398,9.246,5.139,13.436,8.641  c4.352,3.307,7.961,7.227,12.986,11.423c2.41,1.987,4.977,3.886,7.879,5.55c1.449,0.808,2.984,1.603,4.682,2.236l-92.447,244.175  h-10.014h-0.008c0,15.201,5.105,50.958,107.756,50.958c102.643,0,107.748-35.764,107.748-50.958H1001.841z M415.053,414.796  l88.392-233.466l88.392,233.473L415.053,414.796z M805.722,414.803l88.385-233.473l88.379,233.466L805.722,414.803z"
     id="path4137" /><text
     transform="matrix(1 0 0 1 362.0142 774.5371)"
     font-family="'Arial-BoldMT'"
     font-size="33.6756"
     id="text4139">Created by David</text>
<text
     transform="matrix(1 0 0 1 362.0142 808.2129)"
     font-family="'Arial-BoldMT'"
     font-size="33.6756"
     id="text4141">from the Noun Project</text>
<g
     transform="matrix(6.2163419,0,0,-5.4076554,380.57041,425.92079)"
     id="g12"><g
       id="g14"><g
         clip-path="url(#clipPath18)"
         id="g16"><g
           transform="translate(21.917,14.498)"
           id="g22"><path
             inkscape:connector-curvature="0"
             d="M 0,0 C -2.706,0.331 -3.895,1.852 -6.272,4.889 -3.233,7.265 -1.714,8.454 0.993,8.124 3.703,7.792 6.243,6.108 7.267,3.235 5.583,0.691 2.709,-0.328 0,0"
             id="path24"
             style="fill:#77b255;fill-opacity:1;fill-rule:nonzero;stroke:none" /></g><g
           transform="translate(15.9585,5.6836)"
           id="g26"><path
             inkscape:connector-curvature="0"
             d="M 0,0 C -2.549,0.187 -3.733,1.553 -6.098,4.288 -3.363,6.652 -1.996,7.835 0.554,7.652 3.105,7.467 5.563,6.008 6.652,3.365 5.193,0.907 2.551,-0.183 0,0"
             id="path28"
             style="fill:#77b255;fill-opacity:1;fill-rule:nonzero;stroke:none" /></g><g
           transform="translate(9.7383,21.3906)"
           id="g30"><path
             inkscape:connector-curvature="0"
             d="m 0,0 c 1.338,-1.631 1.191,-3.117 0.898,-6.088 -2.969,0.294 -4.455,0.44 -5.795,2.071 -1.339,1.635 -1.861,3.935 -0.898,6.089 C -3.494,2.595 -1.339,1.632 0,0"
             id="path32"
             style="fill:#77b255;fill-opacity:1;fill-rule:nonzero;stroke:none" /></g><g
           transform="translate(30.8535,26.8389)"
           id="g34"><path
             inkscape:connector-curvature="0"
             d="M 0,0 C -2.435,-1.02 -4.16,-0.314 -7.613,1.097 -6.202,4.55 -5.495,6.277 -3.064,7.3 -0.63,8.321 2.313,8.125 4.548,6.204 4.354,3.26 2.432,1.023 0,0"
             id="path36"
             style="fill:#77b255;fill-opacity:1;fill-rule:nonzero;stroke:none" /></g><g
           transform="translate(18.1025,30.3916)"
           id="g38"><path
             inkscape:connector-curvature="0"
             d="m 0,0 c 0.874,-2.869 -0.124,-4.742 -2.119,-8.488 -3.745,1.996 -5.619,2.994 -6.494,5.864 -0.876,2.872 -0.315,6.18 2.118,8.49 C -3.187,5.306 -0.876,2.874 0,0"
             id="path40"
             style="fill:#77b255;fill-opacity:1;fill-rule:nonzero;stroke:none" /></g></g></g><g
       id="g42"><g
         clip-path="url(#clipPath46)"
         id="g44"><g
           transform="translate(15.8281,21.9917)"
           id="g50"><path
             inkscape:connector-curvature="0"
             d="m 0,0 c 0.082,-2.994 -8.905,3.805 -9.151,5.741 -0.246,1.935 -0.441,5.669 0.998,7.391 1.439,1.723 2.329,3.268 3.163,2.362 C -3.828,14.231 -0.083,2.995 0,0"
             id="path52"
             style="fill:#a6d388;fill-opacity:1;fill-rule:nonzero;stroke:none" /></g></g></g><g
       id="g54"><g
         clip-path="url(#clipPath58)"
         id="g56"><g
           transform="translate(3.3218,23.8179)"
           id="g62"><path
             inkscape:connector-curvature="0"
             d="M 0,0 C 1.385,-0.98 6.194,-6.339 7.315,-8.515 8.436,-10.691 4.127,-10.798 2.161,-9.186 0.194,-7.575 -2.628,-6.238 -2.018,-4.027 -1.408,-1.816 0,0 0,0"
             id="path64"
             style="fill:#a6d388;fill-opacity:1;fill-rule:nonzero;stroke:none" /></g></g></g><g
       id="g66"><g
         clip-path="url(#clipPath70)"
         id="g68"><g
           transform="translate(16.0264,19.748)"
           id="g74"><path
             inkscape:connector-curvature="0"
             d="M 0,0 C 1.881,-0.107 11.15,-0.941 14.903,-2.691 18.657,-4.441 16.819,2.436 13.08,3.688 9.341,4.938 5.673,6.946 3.039,5.091 0.406,3.236 0,0 0,0"
             id="path76"
             style="fill:#5c913b;fill-opacity:1;fill-rule:nonzero;stroke:none" /></g></g></g><g
       id="g78"><g
         clip-path="url(#clipPath82)"
         id="g80"><g
           transform="translate(9.1113,10.0088)"
           id="g86"><path
             inkscape:connector-curvature="0"
             d="M 0,0 C 2.567,0.24 9.015,1.328 14.514,-1.412 20.012,-4.152 13.515,5.339 10.2,5.529 6.887,5.722 5.596,7.322 3.186,5.161 0.776,2.998 0,0 0,0"
             id="path88"
             style="fill:#5c913b;fill-opacity:1;fill-rule:nonzero;stroke:none" /></g></g></g><g
       id="g90"><g
         clip-path="url(#clipPath94)"
         id="g92"><g
           transform="translate(23.2637,27.7651)"
           id="g98"><path
             inkscape:connector-curvature="0"
             d="M 0,0 C 1.507,0.989 10.404,5.679 13.838,5.379 17.27,5.078 9.706,-4.47 1.688,-2.247 -0.651,-1.599 0,0 0,0"
             id="path100"
             style="fill:#a6d388;fill-opacity:1;fill-rule:nonzero;stroke:none" /></g></g></g><g
       id="g102"><g
         clip-path="url(#clipPath106)"
         id="g104"><g
           transform="translate(5.751,1.9395)"
           id="g110"><path
             inkscape:connector-curvature="0"
             d="m 0,0 c -0.584,0.091 -1.363,0.831 -1.273,1.416 0.545,3.563 2.858,12.168 18.297,24.755 0.458,0.375 0.976,0.66 1.365,0.212 0.39,-0.446 -0.052,-0.949 -0.498,-1.339 C 4.603,13.474 2.377,4.31 1.868,0.979 1.777,0.394 0.585,-0.089 0,0"
             id="path112"
             style="fill:#a06253;fill-opacity:1;fill-rule:nonzero;stroke:none" /></g></g></g></g><path
     inkscape:connector-curvature="0"
     style="fill:#dbb471"
     d="m 962.86261,364.36323 c 0,35.00117 -29.49829,35.00117 -66.22068,35.00117 -36.72239,0 -66.22071,0 -66.22071,-35.00117 0,-35.00116 29.79932,-92.2758 66.22071,-92.2758 36.42137,0 66.22068,56.98537 66.22068,92.2758 z"
     id="path6319" /><g
     style="fill:#89664c"
     id="g6321"
     transform="matrix(3.0100327,0,0,2.8926584,800.32089,228.69756)"><path
       style="opacity:0.5"
       inkscape:connector-curvature="0"
       d="M 54,46.9 C 54,42.8 52.9,37.8 50.9,33 51.3,36.1 50.5,41.6 41,43.7 27.5,46.6 34.5,50.4 29.2,50.9 24.7,51.3 12.7,49.5 10.3,42.7 10.1,44.2 9.9,45.6 9.9,47 10,59 19.9,59 32,59 44.1,59 54,59 54,46.9"
       id="path6323" /><path
       inkscape:connector-curvature="0"
       d="m 37.9,41.1 c -0.4,-2 -2.1,-2.6 -3.9,-2.7 0,-0.9 0,-1.9 0,-2.8 0.5,0.2 1.1,0.5 1.5,0.8 0.8,0.5 1.6,-0.8 0.8,-1.3 -0.7,-0.4 -1.5,-0.8 -2.3,-1.1 0,-1.1 0,-2.2 0,-3.3 0,-1 -1.5,-1 -1.5,0 0,1 0,1.9 0,2.9 -0.8,-0.1 -1.6,-0.1 -2.4,0 -0.1,-0.7 -0.3,-1.4 -0.5,-2.1 -0.2,-1 -1.7,-0.6 -1.4,0.4 0.2,0.7 0.3,1.4 0.5,2.1 -0.1,0 -0.1,0 -0.2,0.1 -2,0.8 -3.3,2.8 -1.8,4.7 0.7,0.9 1.6,1.2 2.6,1.4 0.1,1.3 0.1,2.6 0.1,3.9 -0.7,-0.4 -1.3,-1 -1.8,-1.5 -0.7,-0.7 -1.7,0.4 -1.1,1.1 0.9,1 1.9,1.7 2.9,2.2 0,1.1 0.1,2.2 0.2,3.3 0.1,1 1.6,1 1.5,0 -0.1,-1 -0.2,-1.9 -0.2,-2.9 0.6,0.1 1.2,0.1 1.8,0.1 0.1,1 0.2,2 0.3,3.1 0.1,1 1.6,1 1.5,0 -0.1,-1.1 -0.2,-2.2 -0.3,-3.4 2.2,-0.8 4.2,-2.5 3.7,-5 m -5.4,-6 c 0,1.1 0,2.2 0,3.3 -0.5,0 -0.9,0.1 -1.3,0.1 -0.2,0 -0.3,0 -0.5,0 -0.1,-1.2 -0.2,-2.4 -0.3,-3.6 0.7,0 1.4,0.1 2.1,0.2 m -3.6,3.2 c -0.4,-0.1 -0.8,-0.4 -1.2,-0.7 -0.9,-0.9 0.4,-1.7 1.2,-2.1 0.1,1 0.2,1.9 0.3,2.9 -0.1,0 -0.2,0 -0.3,-0.1 m 3.3,6.4 c -0.5,0.1 -0.9,0 -1.3,-0.1 -0.1,-1.5 -0.1,-3 -0.1,-4.6 0.6,0 1.2,-0.1 1.8,-0.1 0,1.6 0.1,3.1 0.1,4.7 -0.2,0.1 -0.3,0.1 -0.5,0.1 m 3.3,-1.1 c -0.4,0.3 -0.9,0.5 -1.3,0.7 -0.1,-1.5 -0.1,-2.9 -0.1,-4.4 0.2,0 0.4,0 0.5,0 1.9,0.4 2.4,2.5 0.9,3.7"
       id="path6325" /></g><path
     inkscape:connector-curvature="0"
     style="fill:#699635"
     d="m 902.662,387.79377 -6.92307,0 0,11.57063 27.99329,14.46329 63.21068,-18.80228 0,-10.1243 -23.17725,-13.01697 z"
     id="path6327" /><path
     inkscape:connector-curvature="0"
     style="fill:#83bf4f"
     d="m 896.64193,381.14065 c 0,0 7.22409,11.28137 27.6923,21.11641 0,0 31.90631,-1.44634 62.60867,-21.11641 0,0 -17.75923,-8.38871 -22.87623,-19.38081 0,0 -12.04009,16.19889 -67.42474,19.38081"
     id="path6329" /><path
     inkscape:connector-curvature="0"
     style="fill:#699635"
     d="m 883.09679,387.5045 6.62207,-0.28926 0.90301,10.70282 -26.18729,15.90963 -62.90968,-13.01697 -0.90301,-9.54577 21.37123,-14.17402 z"
     id="path6331" /><path
     inkscape:connector-curvature="0"
     style="fill:#83bf4f"
     d="m 888.21384,380.85139 c 0,0 -6.32107,11.28136 -25.28427,21.9842 0,0 -31.00333,0.86779 -62.60868,-15.04182 0,0 16.85619,-9.25651 20.76923,-20.24861 0,0 13.24413,14.46329 67.12372,13.30623"
     id="path6333" /><path
     inkscape:connector-curvature="0"
     style="fill:none;stroke:#699635;stroke-width:2.95076203;stroke-miterlimit:10"
     d="m 873.16368,384.03331 c 0,0 -0.90301,2.31412 3.31103,2.6034 l -11.13711,8.96724 c 0,0 -6.62207,-0.57854 -8.12709,3.76045 0,0 -27.0903,-2.89266 -44.54849,-10.41358 0,0 3.61204,-2.60339 -0.903,-4.33898 0,0 5.11705,-3.47119 6.32106,-6.65311 0,0 4.81606,0.57853 6.32107,-2.89266 0.602,-0.28927 18.6622,10.1243 48.76253,8.96724 z"
     stroke-miterlimit="10"
     id="path6335" /><ellipse
     style="fill:#699635"
     cx="826.80914"
     cy="384.32254"
     rx="5.7190623"
     ry="3.7604558"
     id="ellipse6337" /><g
     style="fill:#f9f3d9"
     id="g6339"
     transform="matrix(3.0100327,0,0,2.8926584,800.32089,228.69756)"><path
       inkscape:connector-curvature="0"
       d="m 19,52.2 c 0,0 -2.3,3 -7.3,7.1 L 12,62 8.5,61.2 8.3,58.3 c 0,0 5.1,-4.7 6.2,-7 -0.1,0 1.7,0.6 4.5,0.9"
       id="path6341" /><path
       inkscape:connector-curvature="0"
       d="m 42.1,51.5 c 0,0 0.9,2.4 7.7,6.8 l 0,2.9 3.9,-1.2 0,-3 c 0,0 -4.7,-3.3 -7.5,-6.6 l -4.1,1.1"
       id="path6343" /></g><path
     inkscape:connector-curvature="0"
     style="fill:#699635"
     d="m 909.88608,368.41295 -6.62208,-0.28926 -0.602,11.85989 26.78929,16.48816 62.90974,-16.48816 0.3009,-10.41356 -21.97319,-14.75257 z"
     id="path6345" /><path
     inkscape:connector-curvature="0"
     style="fill:#83bf4f"
     d="m 904.46802,361.18131 c 0,0 6.62207,12.14916 26.18729,23.14127 0,0 31.30438,0 62.30763,-18.51302 0,0 -17.1572,-9.54577 -21.37116,-21.40567 0,0 -12.94313,16.19888 -67.12376,16.77742"
     id="path6347" /><path
     inkscape:connector-curvature="0"
     style="fill:none;stroke:#699635;stroke-width:2.95076203;stroke-miterlimit:10"
     d="m 918.01316,364.36323 c 0,0 1.50502,2.31413 -3.31103,3.18193 l 12.64213,9.54577 c 0,0 7.22411,-1.73559 9.6321,2.31412 0,0 30.10033,-5.20678 43.94649,-12.14916 0,0 -4.51508,-2.02486 0,-4.62826 0,0 -5.41801,-4.33898 -7.52511,-7.23164 0,0 -5.117,1.44633 -7.82601,-2.02486 0,0.28926 -10.83614,9.54577 -47.55857,10.9921 z"
     stroke-miterlimit="10"
     id="path6349" /><path
     inkscape:connector-curvature="0"
     style="fill:#699635"
     d="m 941.19044,371.59487 c -1.20406,1.44634 -5.11712,2.02487 -8.42815,1.15707 -3.311,-0.8678 -4.81601,-2.89265 -3.612,-4.33899 1.204,-1.44632 5.11707,-2.02485 8.4281,-1.15706 3.31103,0.8678 4.81599,2.6034 3.61205,4.33898"
     id="path6351" /><path
     inkscape:connector-curvature="0"
     style="fill:#f9f3d9"
     d="m 935.1704,358.86718 c 0,0 7.22398,9.25651 22.57521,21.69493 l -0.30101,8.67798 10.53513,-2.89266 0.30101,-9.2565 c 0,0 -15.65224,-14.4633 -19.56519,-21.40567 0.3009,0 -4.8161,2.02485 -13.54515,3.18192"
     id="path6353" /><path
     inkscape:connector-curvature="0"
     style="fill:#dbb471"
     d="m 938.78244,234.48287 c 0,17.64522 -23.77931,46.28254 -42.14051,46.28254 -18.3612,0 -42.14045,-25.74466 -42.14045,-43.38988 0,-17.64521 2.70903,0 21.07022,0 2.70903,0 15.35117,-8.67797 21.07023,-8.67797 3.91304,0 15.05016,8.67797 21.07023,8.67797 15.95317,0 21.07028,-16.19889 21.07028,-2.89266"
     id="path6355" /><path
     inkscape:connector-curvature="0"
     style="fill:#89664c"
     d="m 891.22387,267.16991 c -1.80601,1.15706 -10.53511,0.28926 -13.24414,2.31413 -3.61203,2.60339 1.50501,8.67797 -2.10702,12.43843 -7.22408,6.94238 -12.94314,14.75255 -11.13712,19.09155 3.01004,7.5209 8.72909,-13.88477 13.84615,-5.78532 5.11706,8.09944 4.21405,-5.49605 12.04013,1.44632 7.82609,6.94239 1.20402,-12.43843 8.72909,-4.04971 7.52509,8.38871 7.82609,17.93447 13.24415,17.93447 6.32107,0 -6.62208,-22.852 1.80601,-17.35595 8.4281,5.49606 17.75925,3.47119 9.3311,-4.91752 -2.70903,-2.60339 -6.32106,-7.23164 -10.5351,-11.28137 -1.50503,-1.44632 -0.30101,-8.96724 -1.80603,-10.1243 -1.80601,-1.44633 -6.32106,3.18193 -8.12709,2.31413 -3.61204,-1.7356 -2.40802,1.44633 -7.82608,2.31413 -3.61203,1.15706 -0.602,-6.65312 -4.21405,-4.33899"
     id="path6357" /><path
     inkscape:connector-curvature="0"
     style="fill:#e8e8e8"
     d="m 856.6085,284.23659 c 11.73913,-10.70283 33.11036,-4.62825 45.75249,0.57853 12.34114,5.20679 19.86622,-11.28136 12.04013,-19.67007 -4.51504,-4.91752 -11.73912,0.8678 -14.44815,4.33899 -3.01004,3.47119 -5.41806,7.23164 -8.7291,10.70284 -4.81604,5.20677 -16.55517,0.86779 -12.94314,-6.36386 3.91304,-7.5209 20.46823,1.15707 25.88629,2.60339 10.53511,2.89266 21.67223,4.04973 32.20732,0.28927 3.61204,-1.15706 2.10709,-6.94238 -1.50496,-5.49605 -11.73916,4.04973 -23.47829,1.44633 -34.61541,-2.02486 -5.71906,-1.7356 -14.74916,-6.36384 -20.76923,-3.76046 -17.15717,7.81018 -1.20401,30.08365 13.24415,21.40568 3.31104,-2.02487 5.41806,-5.20679 7.82608,-8.09945 1.50502,-1.7356 9.03011,-12.72769 10.83612,-7.23164 0.90301,2.89266 0,8.09944 -3.31103,8.96724 -2.10703,0.8678 -6.32107,-2.02486 -8.4281,-2.60339 -3.91303,-1.44634 -7.82607,-2.60339 -12.04013,-3.47119 -11.13712,-2.31413 -26.18728,-1.7356 -34.91638,6.07458 -3.01003,2.31412 1.20402,6.36385 3.91305,3.76045"
     id="path6359" /><path
     inkscape:connector-curvature="0"
     style="fill:#89664c"
     d="m 935.1704,230.14388 c -3.01003,2.31413 -8.42814,7.23165 -17.45824,7.23165 -6.02007,0 -17.15719,-8.67797 -21.07023,-8.67797 -5.71906,0 -18.3612,8.67797 -21.07023,8.67797 -9.9331,0 -15.35116,-4.91752 -18.06019,-6.94238 0,0 3.31103,13.01696 13.54515,19.67007 7.52508,4.62826 6.62207,-0.86779 10.53511,-6.07458 3.91304,-5.20678 6.62207,-7.81018 13.54515,5.20679 3.61204,7.23164 10.53511,-19.67008 15.95317,-10.9921 9.9331,15.90961 13.54515,7.23164 24.08031,-8.09945"
     id="path6361" /><g
     style="fill:#dbb471"
     id="g6363"
     transform="matrix(3.0100327,0,0,2.8926584,800.32089,228.69756)"><path
       inkscape:connector-curvature="0"
       d="m 52.4,52.4 -0.1,3 3.5,-1 0.1,-3.2 c 0,0.1 -2.1,0.9 -3.5,1.2"
       id="path6365" /><path
       inkscape:connector-curvature="0"
       d="m 49.8,58.4 0,2.9 3.9,-1.2 0,-3 c -0.1,-0.1 -1.1,0.5 -3.9,1.3"
       id="path6367" /><path
       inkscape:connector-curvature="0"
       d="M 11.7,59.2 12,62 8.5,61.2 8.3,58.3 c -0.1,0 1.3,0.5 3.4,0.9"
       id="path6369" /></g></svg>